<svg xmlns="http://www.w3.org/2000/svg" viewBox="-100.0 -100.0 200 200"><circle stroke="black" cx="-13.086925469491868" cy="-9.505945863298669" r="2.5" fill="hsl(180,90.0%,90.0%)"/><polyline stroke="black" stroke-width="1" points="-13.086925469491868 -9.505945863298669 -12.9769237565405 -9.804942392916669 -12.860243202807277 -10.103191063605129 -12.73679059265895 -10.400645584457694 -12.607383691701886 -10.696173931679496 -12.470562845257907 -10.991377469675552 -12.32722273703364 -11.285034818819524 -12.177250805833044 -11.577139883163651 -12.020618310092816 -11.867584976639314 -11.857249135860252 -12.15630586227293 -11.687580160426982 -12.44274687169121 -11.51052526230396 -12.727792315156236 -11.327563755406215 -13.009944526849342 -11.138072539166634 -13.289666075919891 -10.941587302949241 -13.567208170509511 -10.739549467275518 -13.841285790086495 -10.529665972789887 -14.113573370957093 -10.314265681720705 -14.382159254990508 -10.092481348073381 -14.647601274646844 -9.863984534680531 -14.909999742291902 -9.628961937165716 -15.16909075922461 -9.388044331511237 -15.424358793547297 -9.140749363140088 -15.676000084089578 -8.88748546467011 -15.92366149932623 -8.628210381929678 -16.16726797541361 -8.36209065584455 -16.407139960426967 -8.09066293330797 -16.642363643161662 -7.813498232796528 -16.873075922660064 -7.530163453921609 -17.099371168473517" fill="none"/><polyline stroke="black" stroke-width="1" points="-13.569678821646734 -1.1099737282260784 -13.634215549781072 -1.3740217225611886 -13.69355347828523 -1.641186185938219 -13.747612019446356 -1.9112241065882465 -13.79640401483495 -2.183380452688467 -13.839713348907228 -2.458481998382165 -13.87738868727102 -2.7366682606583193 -13.909751799944152 -3.015813438575554 -13.936286044583726 -3.2980142900511487 -13.957148889708817 -3.582064801408107 -13.972198306979221 -3.8681622890241054 -13.981332960554257 -4.156288076919436 -13.98473678009092 -4.445505740395137 -13.982146567769322 -4.736404635741009 -13.97325694325245 -5.02953224358747 -13.958713114737 -5.32279722542035 -13.937790917043117 -5.617931083766177 -13.910374047380298 -5.914859898041117 -13.877092956710817 -6.211832138771297 -13.837521961632723 -6.509656854583328 -13.791385224016402 -6.808671251804445 -13.739176387015148 -7.1076432299162535 -13.680427271570334 -7.407314254514543 -13.61524206684309 -7.707269181451032 -13.543519755515051 -8.007489783816078 -13.465260495224491 -8.30777769859105 -13.38046682680102 -8.607943641398943 -13.289471908226238 -8.907316298184304 -13.191289626655337 -9.207202152423303 -13.086925469491868 -9.505945863298669" fill="none"/><circle stroke="black" cx="2.8010184497216764" cy="-21.128139166626074" r="2.5" fill="hsl(180,90.0%,90.0%)"/><polyline stroke="black" stroke-width="1" points="2.8010184497216764 -21.128139166626074 3.212051198594001 -21.162337317760347 3.626067568444429 -21.188394826310134 4.042252071964525 -21.206322411184516 4.460229560953149 -21.216091958659433 4.879401616253143 -21.217746400989288 5.300507789679769 -21.21103202100345 5.723496708125324 -21.195839460424267 6.147652049848082 -21.1722456312484 6.572695993560348 -21.140238574540277 6.9988769938996525 -21.099643889725765 7.425867261762306 -21.050458468090643 7.85392616355993 -20.992475509120457 8.281288154008212 -20.926255078057224 8.71018239773044 -20.85083047742384 9.138325201079297 -20.767011543746356 9.566171694197095 -20.67453228044353 9.994432681349062 -20.572949089897946 10.422283685540137 -20.462520315339336 10.849265396659716 -20.343372735384893 11.275351015477378 -20.215422217122967 11.700503078888588 -20.07857934966811 12.124958902810208 -19.932576368517843 12.54689557902231 -19.77841175405103 12.968892762168963 -19.61435022705274 13.387867845461463 -19.442260311019364 13.805605591832641 -19.26084488943837 14.220234611962397 -19.071314647309062 14.633946383554122 -18.871930856254835" fill="none"/><polyline stroke="black" stroke-width="1" points="-7.530163453921609 -17.099371168473517 -7.241396040118461 -17.32194735684186 -6.946698554256052 -17.539763784126503 -6.646895485547813 -17.752391644368604 -6.341661820263394 -17.959874305044956 -6.029830572420688 -18.162501773952517 -5.714021892793154 -18.359283364976584 -5.391842256555597 -18.55089782500338 -5.065003543783229 -18.73671235894377 -4.732949636034988 -18.916795533882034 -4.395917117117163 -19.090982938433527 -4.053879583453394 -19.259178726719757 -3.70778157389171 -19.421093827962075 -3.355685791740086 -19.57700089470305 -2.9996699008024192 -19.726405396340564 -2.639566659818715 -19.869265516217805 -2.275510197857585 -20.005485480153684 -1.9063873400987934 -20.13509105116937 -1.5332913650632731 -20.257849515976243 -1.1562081124620145 -20.3736671720167 -0.775130250970427 -20.48244181886898 -0.39105783549220385 -20.584044276892755 -0.0030003501995656038 -20.678413575434394 0.3890454302376051 -20.765424853530508 0.7830759064876681 -20.845020586107875 1.181116265381179 -20.91705900969294 1.5821107991394754 -20.981469384289646 1.9861083991265769 -21.03814823384985 2.392012446321826 -21.087109722235915 2.8010184497216764 -21.128139166626074" fill="none"/><circle stroke="black" cx="24.82074889447059" cy="-9.472904164913578" r="2.5" fill="hsl(180,90.0%,90.0%)"/><polyline stroke="black" stroke-width="1" points="24.82074889447059 -9.472904164913578 25.08289671330269 -9.03496279570585 25.337135681318024 -8.591046005375661 25.583688012434205 -8.140218911824823 25.822155395386492 -7.68334378617228 26.052447079643912 -7.2204010561985745 26.274461235632703 -6.751375472985817 26.488032055066878 -6.276481506365616 26.69310586438216 -5.795457213446278 26.889319944403947 -5.309458086987785 27.07660275236672 -4.818463177251342 27.255025827836075 -4.321479766698946 27.424167258449543 -3.8204412285211062 27.584212517896237 -3.313385884188037 27.73479028237528 -2.8022819259777707 27.87582288948288 -2.2872316201430536 28.007301614642472 -1.7672083257060867 28.12904386597206 -1.2431345205647184 28.240948430192265 -0.7150746556975519 28.342909102178492 -0.18301878495760987 28.434820914017035 0.3520349240902503 28.516581238130176 0.8910806580337375 28.58810215753938 1.4331053799676043 28.649287901821765 1.9781579736029413 28.700037265514375 2.5261793202553946 28.74034547950918 3.0761440097070265 28.77000936506241 3.629127324057544 28.789030258694552 4.184149736083715 28.79733699365101 4.7410554810188374" fill="none"/><polyline stroke="black" stroke-width="1" points="14.633946383554122 -18.871930856254835 15.045003127815406 -18.665003880403756 15.453801297024233 -18.448956599204237 15.859388024275022 -18.22444588904647 16.26202578499932 -17.991134854691456 16.662271471798068 -17.748354349078706 17.05846010836567 -17.49749768751631 17.45055153045213 -17.238532679832847 17.839970522599092 -16.96987441571148 18.224643759690274 -16.693505659702033 18.60555594059172 -16.408254085972573 18.982024518240255 -16.11471870718679 19.354089229138914 -15.812706945117581 19.721691189008702 -15.50211539274988 20.08415783886842 -15.183631327044138 20.44163847118733 -14.85691763244228 20.793944845327392 -14.522056618448064 21.140981231753507 -14.17899947594708 21.482185238591377 -13.828406671042968 21.818080705541437 -13.469284513303636 22.147427496525424 -13.103436218535835 22.47112449963603 -12.729203463944428 22.788791229552235 -12.346970488438668 23.09969039095466 -11.957875054318334 23.403770430538913 -11.56187462385524 23.701534658943668 -11.157722455267278 23.991914454890125 -10.747409638893927 24.275581122076634 -10.329247267144371 24.55170279435928 -9.90488009849009 24.82074889447059 -9.472904164913578" fill="none"/><circle stroke="black" cx="24.209936122046454" cy="20.799945119312937" r="2.5" fill="hsl(180,90.0%,90.0%)"/><polyline stroke="black" stroke-width="1" points="24.209936122046454 20.799945119312937 23.884146479531676 21.316130730099527 23.547456133980024 21.82742281549166 23.200761617675994 22.332733122669843 22.843033482350677 22.833033029902403 22.4741804196032 23.328225276913805 22.0951464775062 23.817235833633006 21.70533491284966 24.300494519320576 21.305221275849334 24.77742031216875 20.89525203022215 25.247512814922395 20.47537030548223 25.710720679087746 20.04440269577809 26.167831209785433 19.604022236478514 26.61738794297363 19.15402693408064 27.059450779635252 18.693870607717276 27.494280458886795 18.22394911894329 27.92145417334668 17.744898110044726 28.340434374467844 17.257126806649318 28.75087729278866 16.758959506878984 29.153669145753437 16.25195643923643 29.54773890552455 15.73684187433351 29.93260130533022 15.212402736546652 30.308802402002094 14.679393219925052 30.675821719544988 14.137344790934142 31.03375687182989 13.588253738820631 31.3815860007308 13.03005159237055 31.72012559554825 12.46510621967232 32.048273094910435 11.890961082277595 32.36689406694802 11.309986775039159 32.67496179260871" fill="none"/><polyline stroke="black" stroke-width="1" points="28.79733699365101 4.7410554810188374 28.79553661229093 5.300098768714774 28.782973548006787 5.860198213860044 28.759359890589607 6.422303679580167 28.724788986875264 6.985435054601668 28.679166572114433 7.549570333469048 28.622389531206277 8.114677451300063 28.554346696768516 8.680713411598163 28.475507253077513 9.245814088950992 28.385219240900277 9.811767113147752 28.283554872513918 10.377937446061912 28.17085090537695 10.943107448403671 28.04669475515599 11.508105710582653 27.911341701190974 12.072012815761092 27.76454463738457 12.635158019909108 27.60675332313942 13.196316117186807 27.437512635378077 13.756259752127777 27.25651092269461 14.315318754951589 27.064677977320333 14.871471492230924 26.861105815589877 15.426209360194864 26.646303878982952 15.978381514581544 26.42044567251804 16.527529910819634 26.183008196370345 17.07430957322604 25.93482786403549 17.617241647817423 25.674907055457403 18.15764148188596 25.404228292448863 18.693903848787414 25.122091492727094 19.226835358432034 24.828895934053612 19.75571287164609 24.524564678986394 20.280466958483284 24.209936122046454 20.799945119312937" fill="none"/><circle stroke="black" cx="-7.909968191169" cy="36.50485320083748" r="2.5" fill="hsl(180,90.0%,90.0%)"/><polyline stroke="black" stroke-width="1" points="-7.909968191169 36.50485320083748 -8.619207674722636 36.442878069641786 -9.328081299602148 36.367316962117435 -10.037255138232078 36.277922152998414 -10.74740758673164 36.17437188376698 -11.456373164711845 36.05717447860076 -12.164400387663754 35.9261824997386 -12.87267415694122 35.78087388604724 -13.578757691686143 35.621987699061755 -14.28380827821816 35.449005953791186 -14.98692128703299 35.262167661869974 -15.687692878768635 35.06154856439271 -16.386812464758272 34.84672771478717 -17.083862164865945 34.61774704085931 -17.777191138655983 34.37530327458496 -18.467932573738043 34.11872289046522 -19.154867373322645 33.848532733885975 -19.838716287485358 33.564211853859845 -20.517946093753643 33.266533938134955 -21.193972528662353 32.95451218501444 -21.86483592069285 32.62924745793847 -22.53095524957128 32.29036902145617 -23.191811363804376 31.938117352672204 -23.84780832333378 31.572070137793894 -24.498384410163663 31.192489449009095 -25.142232822243482 30.800285216971563 -25.780999915702157 30.39399990061872 -26.41293612778804 29.974927514119805 -27.03800009272046 29.543000101310778" fill="none"/><polyline stroke="black" stroke-width="1" points="11.309986775039159 32.67496179260871 10.722068651884006 32.97321112279158 10.126042733065761 33.26114036584044 9.523997198175547 33.53799013360053 8.914300936943151 33.8041411904296 8.298271076906998 34.05911259789089 7.675216384723927 34.30296709170034 7.047231131594133 34.53513266616599 6.41235747586717 34.75593757272107 5.771346277520444 34.96509788614579 5.125338097390609 35.16231951302514 4.473211370581058 35.34767026705971 3.817189153218011 35.5207601606368 3.1551538658013136 35.68174007346776 2.488164330324004 35.83036640950497 1.8181223628584087 35.96642060387229 1.142062302381503 36.08996879889985 0.46302255121986774 36.20076313522233 -0.22001058902887544 36.29874704536871 -0.9060454178634035 36.3838238330095 -1.5960818987332661 36.45587063685634 -2.289112896728165 36.51480087297317 -2.984129779624063 36.56059001785398 -3.682207898582146 36.59306605568153 -4.383133474137565 36.612114903411 -5.085117005211596 36.61784255257292 -5.7891637366112745 36.61003545234105 -6.495105737782638 36.588595648035614 -7.202109087147831 36.5535536604436 -7.909968191169 36.50485320083748" fill="none"/><circle stroke="black" cx="-41.154102398435185" cy="11.96802977850203" r="2.5" fill="hsl(180,90.0%,90.0%)"/><polyline stroke="black" stroke-width="1" points="-41.154102398435185 11.96802977850203 -41.466371688387156 11.216100536751801 -41.76498332041751 10.456246183274732 -42.04964168722048 9.689147858628722 -42.32014276444552 8.915240736903806 -42.57643306095815 8.134273787852827 -42.81838312620003 7.346237299321892 -43.04552667916432 6.553232420977687 -43.25808731026896 5.753277609949555 -43.455688074573764 4.948192216895819 -43.63831993917427 4.1372199465662405 -43.80577875003976 3.3212106757272855 -43.95796041100101 2.500111498487194 -44.09469394838135 1.6751023397337244 -44.21590625447526 0.8460556101437712 -44.32149837532306 0.012000676470689524 -44.41133711519533 -0.82504341732614 -44.485348762124666 -1.6650879142354946 -44.54338604698819 -2.509134406319869 -44.58543459332825 -3.3551832102060475 -44.61133282552603 -4.2042198479793775 -44.62105294342494 -5.0552325831823435 -44.61449553450623 -5.908198050296167 -44.59152393499837 -6.763231136407129 -44.55235293638056 -7.618231345409699 -44.49654263855584 -8.475293827660664 -44.42435911888234 -9.332285511951241 -44.33551681648876 -10.190118785610034 -44.23029593981033 -11.047073914697831" fill="none"/><polyline stroke="black" stroke-width="1" points="-27.03800009272046 29.543000101310778 -27.657104981237744 29.098110451027082 -28.268181173210923 28.64118356381541 -28.872682648469087 28.170666050407803 -29.46950337339425 27.687472934241637 -30.057622258003423 27.192562945058707 -30.637943322843117 26.684821608732776 -31.20987149188939 26.16473061340621 -31.772901036895384 25.632726909785433 -32.32695972862726 25.088744839194497 -32.871600458410725 24.533194476596652 -33.40744978769061 23.96504001413571 -33.93242831302969 23.386984425113106 -34.448530071368594 22.7960125113028 -34.95364070956398 22.195041826163393 -35.44844694237163 21.582880974702075 -35.93257557686243 20.959919053615533 -36.40593911154132 20.32608264042626 -36.86801540882647 19.682075930698048 -37.31911548169987 19.02707857423752 -37.75811767094475 18.363029893894687 -38.18553223531078 17.688709778393502 -38.60089092397173 17.00483300788144 -39.00390937057429 16.311798516574473 -39.3944893958201 15.60959015508735 -39.77239384091023 14.898522125213878 -40.13763998915911 14.178226069868158 -40.48958248287412 13.45019349439741 -40.828542449357535 12.713168907580151 -41.154102398435185 11.96802977850203" fill="none"/><circle stroke="black" cx="-34.04027328120269" cy="-34.450276572780055" r="2.5" fill="hsl(180,90.0%,90.0%)"/><polyline stroke="black" stroke-width="1" points="-34.04027328120269 -34.450276572780055 -33.45298564393876 -35.15698491268214 -32.85094313796114 -35.85393794004625 -32.234542303603966 -36.540614747586055 -31.603757724258553 -37.21689230345241 -30.959623996955784 -37.88176351395983 -30.300890617425008 -38.536132671368755 -29.628700020019092 -39.17892565763156 -28.94284971353803 -39.81016875980359 -28.243913188878572 -40.42930716991761 -27.53115127178906 -41.03671603479347 -26.805872995741975 -41.6313558221503 -26.0689698609556 -42.212570461899524 -25.318767731805526 -42.781297241750586 -24.556824233711623 -43.336454559695966 -23.781881991308936 -43.8786273130929 -22.99584209890918 -44.40662615360132 -22.198681756786748 -44.92037957622779 -21.390761017016505 -45.419615889240546 -20.570437597845142 -45.904976543095955 -19.74045586822275 -46.375070943919056 -18.899547694999644 -46.830357109325284 -18.0485232632209 -47.270370463718365 -17.18824549869865 -47.69468122032428 -16.3172403282312 -48.10370849475429 -15.438135188906996 -48.49642467426054 -14.549098571913474 -48.87333112276635 -13.651931652219908 -49.2337535134336 -12.745945279081207 -49.57778715254108" fill="none"/><polyline stroke="black" stroke-width="1" points="-44.23029593981033 -11.047073914697831 -44.10885679453199 -11.90423123429103 -43.97065239107503 -12.761189337332464 -43.81604073323606 -13.61632341946234 -43.644651600409944 -14.470547594297646 -43.45646223880769 -15.323515611212764 -43.25189558184016 -16.173708838037015 -43.03019395968929 -17.02286793673495 -42.79240130746421 -17.868002667923896 -42.5377574942572 -18.71077305617717 -42.26617863346946 -19.55100776746943 -41.978267982969385 -20.387101465142315 -41.6739638892098 -21.218999947236856 -41.35338717950796 -22.046272650534522 -41.01582421381938 -22.870017163549907 -40.66220261833448 -23.68828316331751 -40.292251766541526 -24.501369279728653 -39.90588491125516 -25.309195452436995 -39.50392673641367 -26.11027348390018 -39.085382838990235 -26.90595193130263 -38.650748574616465 -27.695252943813006 -38.200602205164216 -28.47719438713726 -37.73452901281914 -29.252185306070903 -37.252820141376844 -30.01966089938772 -36.75599291833028 -30.778831452601537 -36.242958460375 -31.530833846245354 -35.71453866507555 -32.27448678044041 -35.17166455379652 -33.0086236840498 -34.613269400539636 -33.734262559090666 -34.04027328120269 -34.450276572780055" fill="none"/><circle stroke="black" cx="15.716981786228724" cy="-51.72694005575194" r="2.5" fill="hsl(180,90.0%,90.0%)"/><polyline stroke="black" stroke-width="1" points="15.716981786228724 -51.72694005575194 16.720043588660694 -51.51613430104333 17.720035137739096 -51.286101697183256 18.718122849399432 -51.03633495789879 19.71218585359523 -50.7674786540924 20.703402813461476 -50.478982138719445 21.69052529842435 -50.17121504020054 22.673495754796534 -49.844089838412366 23.652630307024655 -49.49731902910927 24.62547431495034 -49.131946337779716 25.593584311678086 -48.74711291591685 26.55572381150593 -48.34331766129992 27.51184347998555 -47.92046918386926 28.461140838703905 -47.47890314824823 29.403849923086398 -47.01835907335147 30.338896042115735 -46.539374514074154 31.266943670503903 -46.04138957941533 32.18609581053595 -45.525549966718614 33.09810283818792 -44.99049909620921 33.99997318898497 -44.43827196679092 34.893885010572355 -43.86711259776363 35.778036691324765 -43.27825401488279 36.65188816617647 -42.672034049246015 37.515862408442 -42.04796659170359 38.36987347449777 -41.40594258937111 39.211774951478894 -40.747805308406065 40.04354600914571 -40.07154639094168 40.86357126712764 -39.37855050674087 41.67129011198165 -38.66926921216718" fill="none"/><polyline stroke="black" stroke-width="1" points="-12.745945279081207 -49.57778715254108 -11.8321345099235 -49.9055673358462 -10.911076552857686 -50.2163523213548 -9.981077864219275 -50.51039404084918 -9.045169621087961 -50.78695239099765 -8.102185952086067 -51.0461715532256 -7.152128837039443 -51.28792389055404 -6.196111866712854 -51.511930013919695 -5.2341105646512265 -51.718092486065686 -4.266106247486395 -51.90629272756245 -3.2930840050213206 -52.07632844260121 -2.315048597670583 -52.228096376043936 -1.333036865545731 -52.36144807199917 -0.3470086028309131 -52.476300961246686 0.6440188438266335 -52.57253825902203 1.63706444157232 -52.65007252284643 2.6340886687770544 -52.70877428444651 3.6341066955587933 -52.74854867106218 4.636119140924813 -52.769356088938906 5.641106952641931 -52.77100051248271 6.6471953018214425 -52.75354995662474 7.654139099951805 -52.7169580341076 8.662180276466891 -52.661095977689484 9.671159732408581 -52.58586852742274 10.68026523707855 -52.49130358560423 11.689085032812267 -52.37738102178187 12.698206131470663 -52.243848080518326 13.705991377403388 -52.090967228974144 14.71193973378511 -51.91878731908573 15.716981786228724 -51.72694005575194" fill="none"/><circle stroke="black" cx="58.53912527932987" cy="-11.953025580618561" r="2.5" fill="hsl(180,90.0%,90.0%)"/><polyline stroke="black" stroke-width="1" points="58.53912527932987 -11.953025580618561 58.85274647660292 -10.8659531921018 59.1461960081417 -9.771032380812777 59.4192265446808 -8.66903305198401 59.671709140676654 -7.560089844371899 59.903427259848904 -6.445045969145555 60.11426290498 -5.3241118511156245 60.30412121875797 -4.197078035174489 60.4728031898109 -3.065040709365829 60.62023582728748 -1.9270392853590947 60.746200667335536 -0.7860155358387644 60.850649334944606 0.36000975793488893 60.93345984567819 1.5090361535339127 60.99450699748901 2.6620657719298233 61.03375363466238 3.81710967399899 61.051046081726135 4.975166739120829 61.04634228255122 6.135134898901658 61.019626181093955 7.2961944445452405 60.97068327224167 8.459233541634148 60.89966097062752 9.622262436523004 60.80631364934278 10.786233023958737 60.690835378547014 11.949361365951956 60.55302373870462 13.112221681561218 60.392884312001314 14.274209012278227 60.21028775311844 15.435330124555849 60.0054098573017 16.594389893541507 59.77842779507169 17.75042396511238 59.52898536070488 18.904312915917973 59.25725291251867 20.055085595972827" fill="none"/><polyline stroke="black" stroke-width="1" points="41.67129011198165 -38.66926921216718 42.467415145804374 -37.94337092041479 43.25063630683143 -37.20154731214881 44.02088895060993 -36.44373593882502 44.77808704807937 -35.669865933804026 45.52212232017484 -34.879859941683584 46.25203412971201 -34.07476186322041 46.96740517703935 -33.254994927336085 47.6684999172703 -32.420020114921975 48.35443406275071 -31.57093630924741 49.025582222826856 -30.706991019380737 49.68138108930459 -29.828829209576835 50.32146224340616 -28.936840848076322 50.945732010301015 -28.030952972847388 51.55324805926561 -27.112656373813028 52.14453343389872 -26.180769907743485 52.71868850885914 -25.23680830110912 53.276014281315966 -24.2799179850597 53.81600975357833 -23.31087054216209 54.338201074532634 -22.33049358621774 54.84255941182171 -21.338606749137536 55.32890796979112 -20.335333711063157 55.79657547634172 -19.32219928586054 56.24580170566441 -18.29826081625473 56.67654674026558 -17.263166532168903 57.08795324821873 -16.21927082755898 57.48010126449217 -15.166026718463607 57.85274882871023 -14.103938766876896 58.205798043578284 -13.032954779609588 58.53912527932987 -11.953025580618561" fill="none"/><circle stroke="black" cx="42.075862244436074" cy="50.1748357285526" r="2.5" fill="hsl(180,90.0%,90.0%)"/><polyline stroke="black" stroke-width="1" points="42.075862244436074 50.1748357285526 41.185971062905544 51.03796414093558 40.27896774820454 51.884958455165034 39.35416747492795 52.71622433827061 38.41325871790006 53.53036053339208 37.45439511362266 54.328573122574134 36.479770818448706 55.10916445799146 35.488872838877555 55.87237416537782 34.48238593453633 56.61763367715456 33.459690555117625 57.34518351393243 32.422491830474044 58.053880643837815 31.370440836044786 58.74382550308506 30.303468119845927 59.414917825711164 29.222702971045273 60.06644493723341 28.12769845352559 60.69850723623716 27.019628612427972 61.31042638881332 25.89846450176273 61.902110244946144 24.76451744680196 62.47330536006347 23.618262611382374 63.02370076031635 22.459445563849044 63.55326080741505 21.289451969425727 64.06136000570305 20.108279761603953 64.54789803920086 18.916195560195195 65.01267211669537 17.71408396698925 65.45531026641535 16.502164050445096 65.87565487959466 15.280151615568505 66.27365759283843 14.048992445902536 66.64896416306915 12.810037011728758 67.001193584921 11.56191632950863 67.3305127471152" fill="none"/><polyline stroke="black" stroke-width="1" points="59.25725291251867 20.055085595972827 58.96335362177556 21.203127161821943 58.647572171397954 22.34621801186862 58.30936436004607 23.485549530007575 57.94923735531144 24.61952568596694 57.56696810828845 25.7484330134491 57.1626465705163 26.87177404167778 56.736524861856545 27.988752231138463 56.288323087456476 29.099684003800103 55.818330123366465 30.2037197397932 55.32686008467165 31.300052305289434 54.814068855558084 32.38822243349923 54.27943817524156 33.4688867837611 53.723929421638076 34.54024046561851 53.14713262111242 35.60275873211238 52.54927023608591 36.65588605662878 51.93054802666051 37.69912379420069 51.29122661654605 38.73192626409524 50.63134852080558 39.75405881389659 49.95119789082793 40.76497759402822 49.25119377395248 41.76401229607263 48.530762673686915 42.751671853756214 47.79080340495599 43.726735084434104 47.03071974794066 44.68968392123582 46.25189237132782 45.63888054404572 45.45426942594408 46.57427606467898 44.6372688102406 47.496286027537415 43.80129605706202 48.404327169380366 42.947885978128 49.296869122282196 42.075862244436074 50.1748357285526" fill="none"/><circle stroke="black" cx="-26.205000629529085" cy="66.27000159202036" r="2.5" fill="hsl(180,90.0%,90.0%)"/><polyline stroke="black" stroke-width="1" points="-26.205000629529085 66.27000159202036 -27.489113185166417 65.85827116841976 -28.76640014469679 65.42191002802647 -30.037289670801297 64.9606264612063 -31.300443499984386 64.4749135532905 -32.55664788289103 63.964272900029485 -33.80463482249509 63.42919114664598 -35.043559811815946 62.87000433207937 -36.27380463118496 62.286381646220434 -37.494435538008126 61.678716464321425 -38.70480878716212 61.04727566197545 -39.90470878180496 60.392072675470715 -41.09381172254264 59.713179509319524 -42.27092226022304 59.011287498835166 -43.43711278178978 58.285493170960436 -44.59005455789381 57.53736076258672 -45.730787046953665 56.76597696742456 -46.85801445298433 55.972211770877095 -47.97177628169329 55.155892535423355 -49.07084715558585 54.31793774098142 -50.15572310217799 53.457770708266985 -51.22577374566573 52.575794137205996 -52.279917370169116 51.67290671878534 -53.31857199624372 50.74854442524805 -54.340685659847566 49.80362841217131 -55.34664345750508 48.837567783293736 -56.33448341684477 47.85241063057577 -57.30555202131546 46.84645126935774 -58.25835820727796 45.821281736683105" fill="none"/><polyline stroke="black" stroke-width="1" points="11.56191632950863 67.3305127471152 10.305992751893719 67.63695243157727 9.042984774105118 67.9198856416256 7.772035227333007 68.17930902783546 6.496073055075971 68.41476939500734 5.2130296986307405 68.62639096455656 3.92405315371381 68.81393212704094 2.6300466032777456 68.97722224626823 1.3320218006531945 69.11613119530442 0.029000661916945048 69.23058013271408 -1.2780263038974173 69.32042672915972 -2.588058840142566 69.3855774978566 -3.901052499611981 69.42593432083115 -5.216108166133241 69.44144000312352 -6.534085929282709 69.43191309397433 -7.853156595616262 69.39738381629788 -9.173233363740975 69.33776392765122 -10.493167453518046 69.25310516449363 -11.81321857920348 69.14327935353315 -13.134191555180994 69.00800644498058 -14.453147054370751 68.84770049486362 -15.771238318709388 68.66203754999084 -17.0863469655321 68.45139001467123 -18.400323626781656 68.21519977593937 -19.71123950096697 67.95382567141239 -21.018139871537624 67.66745031341408 -22.322198680908148 67.35559950508775 -23.621293146525908 67.01883172151366 -24.91594883013338 66.65686310684707 -26.205000629529085 66.27000159202036" fill="none"/><circle stroke="black" cx="-76.5341143490854" cy="9.216013769581762" r="2.5" fill="hsl(180,90.0%,90.0%)"/><polyline stroke="black" stroke-width="1" points="-76.5341143490854 9.216013769581762 -76.79639529636772 7.7820400567260535 -77.03172561323076 6.3420597400930925 -77.24007935352212 4.895068403727299 -77.4211928687008 3.4430530489142153 -77.57497455031243 1.98602494981463 -77.70130452066925 0.5240087975396577 -77.8000472054728 -0.9420126796945439 -77.87111245757578 -2.411034443755182 -77.91440562961256 -3.8830700532618105 -77.92980662309247 -5.358055459283828 -77.91724180954475 -6.835108934855979 -77.87670332412519 -8.313075077475142 -77.80807264335049 -9.792134992014695 -77.71122890314783 -11.272178255003007 -77.58633647486816 -12.751219648012423 -77.43314232977608 -14.230209930683877 -77.25188157757472 -15.707179246080528 -77.04221722756661 -17.18327148688723 -76.8045394622424 -18.656131037544867 -76.5386643362927 -20.12617469011767 -76.24453111925399 -21.593150417843393 -75.92200631818876 -23.057001918791396 -75.57171782336991 -24.515232859693725 -75.1931832706059 -25.969063295178593 -74.78680414688546 -27.416928200023527 -74.35248330719908 -28.858799453451248 -73.89044909502033 -30.293774138725226 -73.40059453074905 -31.72182476675282" fill="none"/><polyline stroke="black" stroke-width="1" points="-58.25835820727796 45.821281736683105 -59.19357274131229 44.776433244893816 -60.10950378252077 43.713366365192066 -61.007022473514965 42.63071448785273 -61.884607022688265 41.5304073694694 -62.742026007745444 40.412660860123495 -63.57978652281485 39.276485875368856 -64.39719276792378 38.122706110609215 -65.19327991906212 36.95272548118149 -65.96796814663924 35.76652490992011 -66.72134807928684 34.56369834628887 -67.45250389690742 33.34574346477264 -68.16173656546626 32.11181811698484 -68.84815060150281 30.86351579610122 -69.51169609011029 29.600722259635525 -70.15221755784567 28.32349158088783 -70.76930130088473 27.03249707163572 -71.36251696752707 25.72854691695095 -71.93176482468229 24.411598931396078 -72.47662571284225 23.082517760659908 -72.99663081929009 21.74248574933906 -73.49230287708703 20.38936146413747 -73.96257400888683 19.026404903842323 -74.40772795917749 17.652172697937043 -74.82724275566544 16.268270188826964 -75.2209178982289 14.875181517364483 -75.58861310488733 13.473109281395812 -75.9302113137293 12.062033568631689 -76.2454094771099 10.643057158697388 -76.5341143490854 9.216013769581762" fill="none"/><circle stroke="black" cx="-47.942982243132626" cy="-67.69297492823512" r="2.5" fill="hsl(180,90.0%,90.0%)"/><polyline stroke="black" stroke-width="1" points="-47.942982243132626 -67.69297492823512 -46.71741489927576 -68.6696098576186 -45.471342284536355 -69.62452409708519 -44.20561438170879 -70.55698062019788 -42.92115555085226 -71.46625900135624 -41.618525505152 -72.35191356680406 -40.297519740581045 -73.21394428287866 -38.95852144487261 -74.05199115750973 -37.6014655349218 -74.86592689747403 -36.228689042969265 -75.65443889167925 -34.83938136042988 -76.41783648841736 -33.43344041728798 -77.15601637292063 -32.013322689941816 -77.86778489668885 -30.57729767773856 -78.55376474079858 -29.126494738797724 -79.21334550743825 -27.66261852399396 -79.84578531667175 -26.18445728619609 -80.45140500589963 -24.693480401311483 -81.02957639644704 -23.190287126805117 -81.5800100697557 -21.67538514924272 -82.10245887603128 -20.148229895701828 -82.59694244914577 -18.61021767584186 -83.06297155243294 -17.06225294425547 -83.50023787319118 -15.50412548066149 -83.9086791041889 -13.937154209148193 -84.28793261293498 -12.36113571742156 -84.63792927072322 -10.77606691536835 -84.95852756086344 -9.184035492169274 -85.24932945034179 -7.5850223299133654 -85.51025173775783" fill="none"/><polyline stroke="black" stroke-width="1" points="-73.40059453074905 -31.72182476675282 -72.88369102368618 -33.14185950149566 -72.33872645276851 -34.55486933155584 -71.76692539607103 -35.95796262059055 -71.16782424252557 -37.35190775498559 -70.5415045809133 -38.736277079234185 -69.88831452094122 -40.11018050931425 -69.20835826250541 -41.47321468935512 -68.50152119701066 -42.82532583848385 -67.76842302151209 -44.165275686829816 -67.00944759110054 -45.49230386685886 -66.22418170651213 -46.8068352227324 -65.41317274192556 -48.10786248847021 -64.57683711540093 -49.394640307205705 -63.714719792417476 -50.66757239731327 -62.82806855538161 -51.924883118239556 -61.9167325240814 -53.16662900341289 -60.98071193803865 -54.39263502351264 -60.01988864933298 -55.60282325064082 -59.035589383468064 -56.79556702014179 -58.02778110739251 -57.97078034010968 -56.99585813352384 -59.12889024860073 -55.94177246927638 -60.267832205464366 -54.86444398821766 -61.38849678384198 -53.76476912446226 -62.489893940527544 -52.64332258609257 -63.57138955075683 -51.4999671166654 -64.63295873109581 -50.335094461617274 -65.67412324768556 -49.14988378347742 -66.69384230020846 -47.942982243132626 -67.69297492823512" fill="none"/><circle stroke="black" cx="39.298870846678135" cy="-79.68973810457724" r="2.5" fill="hsl(180,90.0%,90.0%)"/><polyline stroke="black" stroke-width="1" points="39.298870846678135 -79.68973810457724 40.84124215494867 -79.02746856783939 42.373049059493844 -78.33509069632667 43.89306626974776 -77.61311718027778 45.40125705854548 -76.86143518373744 46.8963872452591 -76.08062823309689 48.378392004447484 -75.27060990894128 49.8464909789107 -74.43173313909445 51.29947747250222 -73.5646847070538 52.738424067704294 -72.66858432538086 54.1614557469516 -71.74460370209736 55.568514975052764 -70.79265606309269 56.958426120342885 -69.81352229255764 58.33161231387284 -68.80672227234805 59.68642942803892 -67.77348761227896 61.02329737553891 -66.7133251038842 62.34159018888217 -65.62662128832682 63.64023188503388 -64.51423506962719 64.91962482188757 -63.375609961446195 66.1781869577497 -62.21217575350607 67.41635426898785 -61.02332067397124 68.63304380797666 -59.81003817631583 69.82731785033734 -58.57326662247854 70.99993468092607 -57.31194727370754 72.14996788777856 -56.026975063736224 73.2760027729343 -54.7200020707321 74.37880704993866 -53.3898614984905 75.45790923579283 -52.03693740760359 76.51195235276603 -50.66296845002333" fill="none"/><polyline stroke="black" stroke-width="1" points="-7.5850223299133654 -85.51025173775783 -5.979033034091872 -85.74147372070118 -4.367025369392355 -85.94249926638837 -2.7500373233368536 -86.11316872261263 -1.1280180848497747 -86.25338284970124 0.49900581648017783 -86.36300665903877 2.1290227455047885 -86.44192350595587 3.762045570050947 -86.4900476629814 5.398078625636828 -86.50726002025543 7.036121179247592 -86.4934896298298 8.675171398403144 -86.44870799743583 10.315216290507395 -86.37281107391317 11.95623055860562 -86.26566350849411 13.596222228039816 -86.12740773846404 15.235169452228167 -85.95795606203976 16.872264116086356 -85.75734243356457 18.507323198466214 -85.52549355517505 20.14030284866314 -85.26228208440256 21.76926468514157 -84.96803309763533 23.394439742425035 -84.64259101644001 25.015288942646837 -84.28597355710524 26.630464014966734 -83.89846186495171 28.240286310844635 -83.47984635067279 29.84439457878317 -83.0300977577331 31.44036672072879 -82.54996286353185 33.029367936959396 -82.03891388816723 34.61013341886038 -81.49731416460168 36.18295614940997 -80.92490192607029 37.74613391265097 -80.32228496084224 39.298870846678135 -79.68973810457724" fill="none"/></svg>