<svg xmlns="http://www.w3.org/2000/svg" viewBox="0 0 1000 150"><line stroke="black" stroke-width="0.75" x1="50.0" y1="112.0" x2="900.0" y2="112.0"/><line stroke="black" stroke-dasharray="5" stroke-width="0.75" x1="900.0" y1="112.0" x2="950.0" y2="112.0"/><text text-anchor="middle" x="950" y="112.0" dx="16" dy="4">(0)</text><line stroke="black" stroke-dasharray="5" stroke-width="0.75" x1="900.0" y1="38.0" x2="950.0" y2="38.0"/><text text-anchor="middle" x="950" y="38.0" dx="16" dy="4">(0)</text><path stroke="black" stroke-width="0.75" d="M 50.0 68.0 C 77.5 68.0 72.5 68.0 100.0 68.0" fill="none"/><path stroke="black" stroke-width="0.75" d="M 50.0 68.0 C 77.5 68.0 72.5 8.0 100.0 8.0" fill="none"/><path stroke="black" stroke-width="0.75" d="M 50.0 38.0 C 77.5 38.0 72.5 68.0 100.0 68.0" fill="none"/><path stroke="black" stroke-width="0.75" d="M 50.0 38.0 C 77.5 38.0 72.5 8.0 100.0 8.0" fill="none"/><path stroke="black" stroke-width="0.75" d="M 50.0 8.0 C 77.5 8.0 72.5 68.0 100.0 68.0" fill="none"/><path stroke="black" stroke-width="0.75" d="M 50.0 8.0 C 77.5 8.0 72.5 8.0 100.0 8.0" fill="none"/><path stroke="black" stroke-width="0.75" d="M 100.0 68.0 C 127.5 68.0 122.5 68.0 150.0 68.0" fill="none"/><path stroke="black" stroke-width="0.75" d="M 100.0 68.0 C 127.5 68.0 122.5 8.0 150.0 8.0" fill="none"/><path stroke="black" stroke-width="0.75" d="M 100.0 8.0 C 127.5 8.0 122.5 68.0 150.0 68.0" fill="none"/><path stroke="black" stroke-width="0.75" d="M 100.0 8.0 C 127.5 8.0 122.5 8.0 150.0 8.0" fill="none"/><path stroke="black" stroke-width="0.75" d="M 150.0 68.0 C 177.5 68.0 172.5 38.0 200.0 38.0" fill="none"/><path stroke="black" stroke-width="0.75" d="M 150.0 8.0 C 177.5 8.0 172.5 38.0 200.0 38.0" fill="none"/><path stroke="black" stroke-width="0.75" d="M 200.0 38.0 C 227.5 38.0 222.5 68.0 250.0 68.0" fill="none"/><path stroke="black" stroke-width="0.75" d="M 200.0 38.0 C 227.5 38.0 222.5 38.0 250.0 38.0" fill="none"/><path stroke="black" stroke-width="0.75" d="M 200.0 38.0 C 227.5 38.0 222.5 8.0 250.0 8.0" fill="none"/><path stroke="black" stroke-width="0.75" d="M 250.0 68.0 C 277.5 68.0 272.5 68.0 300.0 68.0" fill="none"/><path stroke="black" stroke-width="0.75" d="M 250.0 68.0 C 277.5 68.0 272.5 48.0 300.0 48.0" fill="none"/><path stroke="black" stroke-width="0.75" d="M 250.0 68.0 C 277.5 68.0 272.5 28.0 300.0 28.0" fill="none"/><path stroke="black" stroke-width="0.75" d="M 250.0 68.0 C 277.5 68.0 272.5 8.0 300.0 8.0" fill="none"/><path stroke="black" stroke-width="0.75" d="M 250.0 38.0 C 277.5 38.0 272.5 68.0 300.0 68.0" fill="none"/><path stroke="black" stroke-width="0.75" d="M 250.0 38.0 C 277.5 38.0 272.5 48.0 300.0 48.0" fill="none"/><path stroke="black" stroke-width="0.75" d="M 250.0 38.0 C 277.5 38.0 272.5 28.0 300.0 28.0" fill="none"/><path stroke="black" stroke-width="0.75" d="M 250.0 38.0 C 277.5 38.0 272.5 8.0 300.0 8.0" fill="none"/><path stroke="black" stroke-width="0.75" d="M 250.0 8.0 C 277.5 8.0 272.5 68.0 300.0 68.0" fill="none"/><path stroke="black" stroke-width="0.75" d="M 250.0 8.0 C 277.5 8.0 272.5 48.0 300.0 48.0" fill="none"/><path stroke="black" stroke-width="0.75" d="M 250.0 8.0 C 277.5 8.0 272.5 28.0 300.0 28.0" fill="none"/><path stroke="black" stroke-width="0.75" d="M 250.0 8.0 C 277.5 8.0 272.5 8.0 300.0 8.0" fill="none"/><path stroke="black" stroke-width="0.75" d="M 300.0 68.0 C 327.5 68.0 322.5 68.0 350.0 68.0" fill="none"/><path stroke="black" stroke-width="0.75" d="M 300.0 68.0 C 327.5 68.0 322.5 8.0 350.0 8.0" fill="none"/><path stroke="black" stroke-width="0.75" d="M 300.0 48.0 C 327.5 48.0 322.5 68.0 350.0 68.0" fill="none"/><path stroke="black" stroke-width="0.75" d="M 300.0 48.0 C 327.5 48.0 322.5 8.0 350.0 8.0" fill="none"/><path stroke="black" stroke-width="0.75" d="M 300.0 28.0 C 327.5 28.0 322.5 68.0 350.0 68.0" fill="none"/><path stroke="black" stroke-width="0.75" d="M 300.0 28.0 C 327.5 28.0 322.5 8.0 350.0 8.0" fill="none"/><path stroke="black" stroke-width="0.75" d="M 300.0 8.0 C 327.5 8.0 322.5 68.0 350.0 68.0" fill="none"/><path stroke="black" stroke-width="0.75" d="M 300.0 8.0 C 327.5 8.0 322.5 8.0 350.0 8.0" fill="none"/><path stroke="black" stroke-width="0.75" d="M 350.0 68.0 C 377.5 68.0 372.5 68.0 400.0 68.0" fill="none"/><path stroke="black" stroke-width="0.75" d="M 350.0 68.0 C 377.5 68.0 372.5 8.0 400.0 8.0" fill="none"/><path stroke="black" stroke-width="0.75" d="M 350.0 8.0 C 377.5 8.0 372.5 68.0 400.0 68.0" fill="none"/><path stroke="black" stroke-width="0.75" d="M 350.0 8.0 C 377.5 8.0 372.5 8.0 400.0 8.0" fill="none"/><path stroke="black" stroke-width="0.75" d="M 400.0 68.0 C 427.5 68.0 422.5 68.0 450.0 68.0" fill="none"/><path stroke="black" stroke-width="0.75" d="M 400.0 68.0 C 427.5 68.0 422.5 38.0 450.0 38.0" fill="none"/><path stroke="black" stroke-width="0.75" d="M 400.0 68.0 C 427.5 68.0 422.5 8.0 450.0 8.0" fill="none"/><path stroke="black" stroke-width="0.75" d="M 400.0 8.0 C 427.5 8.0 422.5 68.0 450.0 68.0" fill="none"/><path stroke="black" stroke-width="0.75" d="M 400.0 8.0 C 427.5 8.0 422.5 38.0 450.0 38.0" fill="none"/><path stroke="black" stroke-width="0.75" d="M 400.0 8.0 C 427.5 8.0 422.5 8.0 450.0 8.0" fill="none"/><path stroke="black" stroke-width="0.75" d="M 450.0 68.0 C 477.5 68.0 472.5 68.0 500.0 68.0" fill="none"/><path stroke="black" stroke-width="0.75" d="M 450.0 68.0 C 477.5 68.0 472.5 58.0 500.0 58.0" fill="none"/><path stroke="black" stroke-width="0.75" d="M 450.0 68.0 C 477.5 68.0 472.5 48.0 500.0 48.0" fill="none"/><path stroke="black" stroke-width="0.75" d="M 450.0 68.0 C 477.5 68.0 472.5 38.0 500.0 38.0" fill="none"/><path stroke="black" stroke-width="0.75" d="M 450.0 68.0 C 477.5 68.0 472.5 28.0 500.0 28.0" fill="none"/><path stroke="black" stroke-width="0.75" d="M 450.0 68.0 C 477.5 68.0 472.5 18.0 500.0 18.0" fill="none"/><path stroke="black" stroke-width="0.75" d="M 450.0 68.0 C 477.5 68.0 472.5 8.0 500.0 8.0" fill="none"/><path stroke="black" stroke-width="0.75" d="M 450.0 38.0 C 477.5 38.0 472.5 68.0 500.0 68.0" fill="none"/><path stroke="black" stroke-width="0.75" d="M 450.0 38.0 C 477.5 38.0 472.5 58.0 500.0 58.0" fill="none"/><path stroke="black" stroke-width="0.75" d="M 450.0 38.0 C 477.5 38.0 472.5 48.0 500.0 48.0" fill="none"/><path stroke="black" stroke-width="0.75" d="M 450.0 38.0 C 477.5 38.0 472.5 38.0 500.0 38.0" fill="none"/><path stroke="black" stroke-width="0.75" d="M 450.0 38.0 C 477.5 38.0 472.5 28.0 500.0 28.0" fill="none"/><path stroke="black" stroke-width="0.75" d="M 450.0 38.0 C 477.5 38.0 472.5 18.0 500.0 18.0" fill="none"/><path stroke="black" stroke-width="0.75" d="M 450.0 38.0 C 477.5 38.0 472.5 8.0 500.0 8.0" fill="none"/><path stroke="black" stroke-width="0.75" d="M 450.0 8.0 C 477.5 8.0 472.5 68.0 500.0 68.0" fill="none"/><path stroke="black" stroke-width="0.75" d="M 450.0 8.0 C 477.5 8.0 472.5 58.0 500.0 58.0" fill="none"/><path stroke="black" stroke-width="0.75" d="M 450.0 8.0 C 477.5 8.0 472.5 48.0 500.0 48.0" fill="none"/><path stroke="black" stroke-width="0.75" d="M 450.0 8.0 C 477.5 8.0 472.5 38.0 500.0 38.0" fill="none"/><path stroke="black" stroke-width="0.75" d="M 450.0 8.0 C 477.5 8.0 472.5 28.0 500.0 28.0" fill="none"/><path stroke="black" stroke-width="0.75" d="M 450.0 8.0 C 477.5 8.0 472.5 18.0 500.0 18.0" fill="none"/><path stroke="black" stroke-width="0.75" d="M 450.0 8.0 C 477.5 8.0 472.5 8.0 500.0 8.0" fill="none"/><path stroke="black" stroke-width="0.75" d="M 500.0 68.0 C 527.5 68.0 522.5 68.0 550.0 68.0" fill="none"/><path stroke="black" stroke-width="0.75" d="M 500.0 68.0 C 527.5 68.0 522.5 8.0 550.0 8.0" fill="none"/><path stroke="black" stroke-width="0.75" d="M 500.0 58.0 C 527.5 58.0 522.5 68.0 550.0 68.0" fill="none"/><path stroke="black" stroke-width="0.75" d="M 500.0 58.0 C 527.5 58.0 522.5 8.0 550.0 8.0" fill="none"/><path stroke="black" stroke-width="0.75" d="M 500.0 48.0 C 527.5 48.0 522.5 68.0 550.0 68.0" fill="none"/><path stroke="black" stroke-width="0.75" d="M 500.0 48.0 C 527.5 48.0 522.5 8.0 550.0 8.0" fill="none"/><path stroke="black" stroke-width="0.75" d="M 500.0 38.0 C 527.5 38.0 522.5 68.0 550.0 68.0" fill="none"/><path stroke="black" stroke-width="0.75" d="M 500.0 38.0 C 527.5 38.0 522.5 8.0 550.0 8.0" fill="none"/><path stroke="black" stroke-width="0.75" d="M 500.0 28.0 C 527.5 28.0 522.5 68.0 550.0 68.0" fill="none"/><path stroke="black" stroke-width="0.75" d="M 500.0 28.0 C 527.5 28.0 522.5 8.0 550.0 8.0" fill="none"/><path stroke="black" stroke-width="0.75" d="M 500.0 18.0 C 527.5 18.0 522.5 68.0 550.0 68.0" fill="none"/><path stroke="black" stroke-width="0.75" d="M 500.0 18.0 C 527.5 18.0 522.5 8.0 550.0 8.0" fill="none"/><path stroke="black" stroke-width="0.75" d="M 500.0 8.0 C 527.5 8.0 522.5 68.0 550.0 68.0" fill="none"/><path stroke="black" stroke-width="0.75" d="M 500.0 8.0 C 527.5 8.0 522.5 8.0 550.0 8.0" fill="none"/><path stroke="black" stroke-width="0.75" d="M 550.0 68.0 C 577.5 68.0 572.5 68.0 600.0 68.0" fill="none"/><path stroke="black" stroke-width="0.75" d="M 550.0 68.0 C 577.5 68.0 572.5 38.0 600.0 38.0" fill="none"/><path stroke="black" stroke-width="0.75" d="M 550.0 68.0 C 577.5 68.0 572.5 8.0 600.0 8.0" fill="none"/><path stroke="black" stroke-width="0.75" d="M 550.0 8.0 C 577.5 8.0 572.5 68.0 600.0 68.0" fill="none"/><path stroke="black" stroke-width="0.75" d="M 550.0 8.0 C 577.5 8.0 572.5 38.0 600.0 38.0" fill="none"/><path stroke="black" stroke-width="0.75" d="M 550.0 8.0 C 577.5 8.0 572.5 8.0 600.0 8.0" fill="none"/><path stroke="black" stroke-width="0.75" d="M 600.0 68.0 C 627.5 68.0 622.5 38.0 650.0 38.0" fill="none"/><path stroke="black" stroke-width="0.75" d="M 600.0 38.0 C 627.5 38.0 622.5 38.0 650.0 38.0" fill="none"/><path stroke="black" stroke-width="0.75" d="M 600.0 8.0 C 627.5 8.0 622.5 38.0 650.0 38.0" fill="none"/><path stroke="black" stroke-width="0.75" d="M 650.0 38.0 C 677.5 38.0 672.5 38.0 700.0 38.0" fill="none"/><path stroke="black" stroke-width="0.75" d="M 700.0 38.0 C 727.5 38.0 722.5 68.0 750.0 68.0" fill="none"/><path stroke="black" stroke-width="0.75" d="M 700.0 38.0 C 727.5 38.0 722.5 8.0 750.0 8.0" fill="none"/><path stroke="black" stroke-width="0.75" d="M 750.0 68.0 C 777.5 68.0 772.5 68.0 800.0 68.0" fill="none"/><path stroke="black" stroke-width="0.75" d="M 750.0 68.0 C 777.5 68.0 772.5 38.0 800.0 38.0" fill="none"/><path stroke="black" stroke-width="0.75" d="M 750.0 68.0 C 777.5 68.0 772.5 8.0 800.0 8.0" fill="none"/><path stroke="black" stroke-width="0.75" d="M 750.0 8.0 C 777.5 8.0 772.5 68.0 800.0 68.0" fill="none"/><path stroke="black" stroke-width="0.75" d="M 750.0 8.0 C 777.5 8.0 772.5 38.0 800.0 38.0" fill="none"/><path stroke="black" stroke-width="0.75" d="M 750.0 8.0 C 777.5 8.0 772.5 8.0 800.0 8.0" fill="none"/><path stroke="black" stroke-width="0.75" d="M 800.0 68.0 C 827.5 68.0 822.5 68.0 850.0 68.0" fill="none"/><path stroke="black" stroke-width="0.75" d="M 800.0 68.0 C 827.5 68.0 822.5 8.0 850.0 8.0" fill="none"/><path stroke="black" stroke-width="0.75" d="M 800.0 38.0 C 827.5 38.0 822.5 68.0 850.0 68.0" fill="none"/><path stroke="black" stroke-width="0.75" d="M 800.0 38.0 C 827.5 38.0 822.5 8.0 850.0 8.0" fill="none"/><path stroke="black" stroke-width="0.75" d="M 800.0 8.0 C 827.5 8.0 822.5 68.0 850.0 68.0" fill="none"/><path stroke="black" stroke-width="0.75" d="M 800.0 8.0 C 827.5 8.0 822.5 8.0 850.0 8.0" fill="none"/><path stroke="black" stroke-width="0.75" d="M 850.0 68.0 C 877.5 68.0 872.5 38.0 900.0 38.0" fill="none"/><path stroke="black" stroke-width="0.75" d="M 850.0 8.0 C 877.5 8.0 872.5 38.0 900.0 38.0" fill="none"/><circle stroke="black" stroke-width="0.75" cx="50.0" cy="112.0" r="2.5" fill="black"/><text text-anchor="middle" x="50.0" y="112.0" dy="20">(2)</text><circle stroke="black" stroke-width="0.75" cx="50.0" cy="68.0" r="3.9" fill="black"/><circle stroke="black" stroke-width="0.75" cx="50.0" cy="38.0" r="3.9" fill="black"/><circle stroke="black" stroke-width="0.75" cx="50.0" cy="8.0" r="2.5" fill="black"/><circle stroke="black" stroke-width="0.75" cx="100.0" cy="112.0" r="2.5" fill="black"/><text text-anchor="middle" x="100.0" y="112.0" dy="20">(3)</text><circle stroke="black" stroke-width="0.75" cx="100.0" cy="68.0" r="6.0" fill="black"/><circle stroke="black" stroke-width="0.75" cx="100.0" cy="8.0" r="2.5" fill="black"/><circle stroke="black" stroke-width="0.75" cx="150.0" cy="112.0" r="2.5" fill="black"/><text text-anchor="middle" x="150.0" y="112.0" dy="20">(5)</text><circle stroke="black" stroke-width="0.75" cx="150.0" cy="68.0" r="6.0" fill="black"/><circle stroke="black" stroke-width="0.75" cx="150.0" cy="8.0" r="2.5" fill="black"/><circle stroke="black" stroke-width="0.75" cx="200.0" cy="112.0" r="2.5" fill="black"/><text text-anchor="middle" x="200.0" y="112.0" dy="20">(7)</text><circle stroke="black" stroke-width="0.75" cx="200.0" cy="38.0" r="2.5" fill="hsl(45,70%,50%)"/><circle stroke="black" stroke-width="0.75" cx="250.0" cy="112.0" r="2.5" fill="black"/><text text-anchor="middle" x="250.0" y="112.0" dy="20">(11)</text><circle stroke="black" stroke-width="0.75" cx="250.0" cy="68.0" r="3.9" fill="black"/><circle stroke="black" stroke-width="0.75" cx="250.0" cy="38.0" r="3.9" fill="black"/><circle stroke="black" stroke-width="0.75" cx="250.0" cy="8.0" r="2.5" fill="black"/><circle stroke="black" stroke-width="0.75" cx="300.0" cy="112.0" r="2.5" fill="black"/><text text-anchor="middle" x="300.0" y="112.0" dy="20">(13)</text><circle stroke="black" stroke-width="0.75" cx="300.0" cy="68.0" r="3.2" fill="black"/><circle stroke="black" stroke-width="0.75" cx="300.0" cy="48.0" r="3.2" fill="black"/><circle stroke="black" stroke-width="0.75" cx="300.0" cy="28.0" r="3.2" fill="black"/><circle stroke="black" stroke-width="0.75" cx="300.0" cy="8.0" r="2.5" fill="black"/><circle stroke="black" stroke-width="0.75" cx="350.0" cy="112.0" r="2.5" fill="black"/><text text-anchor="middle" x="350.0" y="112.0" dy="20">(17)</text><circle stroke="black" stroke-width="0.75" cx="350.0" cy="68.0" r="6.0" fill="black"/><circle stroke="black" stroke-width="0.75" cx="350.0" cy="8.0" r="2.5" fill="black"/><circle stroke="black" stroke-width="0.75" cx="400.0" cy="112.0" r="2.5" fill="black"/><text text-anchor="middle" x="400.0" y="112.0" dy="20">(19)</text><circle stroke="black" stroke-width="0.75" cx="400.0" cy="68.0" r="6.0" fill="black"/><circle stroke="black" stroke-width="0.75" cx="400.0" cy="8.0" r="2.5" fill="black"/><circle stroke="black" stroke-width="0.75" cx="450.0" cy="112.0" r="2.5" fill="black"/><text text-anchor="middle" x="450.0" y="112.0" dy="20">(23)</text><circle stroke="black" stroke-width="0.75" cx="450.0" cy="68.0" r="3.9" fill="black"/><circle stroke="black" stroke-width="0.75" cx="450.0" cy="38.0" r="3.9" fill="black"/><circle stroke="black" stroke-width="0.75" cx="450.0" cy="8.0" r="2.5" fill="black"/><circle stroke="black" stroke-width="0.75" cx="500.0" cy="112.0" r="2.5" fill="black"/><text text-anchor="middle" x="500.0" y="112.0" dy="20">(29)</text><circle stroke="black" stroke-width="0.75" cx="500.0" cy="68.0" r="2.5" fill="black"/><circle stroke="black" stroke-width="0.75" cx="500.0" cy="58.0" r="2.5" fill="black"/><circle stroke="black" stroke-width="0.75" cx="500.0" cy="48.0" r="2.5" fill="black"/><circle stroke="black" stroke-width="0.75" cx="500.0" cy="38.0" r="2.5" fill="black"/><circle stroke="black" stroke-width="0.75" cx="500.0" cy="28.0" r="2.5" fill="black"/><circle stroke="black" stroke-width="0.75" cx="500.0" cy="18.0" r="2.5" fill="black"/><circle stroke="black" stroke-width="0.75" cx="500.0" cy="8.0" r="2.5" fill="black"/><circle stroke="black" stroke-width="0.75" cx="550.0" cy="112.0" r="2.5" fill="black"/><text text-anchor="middle" x="550.0" y="112.0" dy="20">(31)</text><circle stroke="black" stroke-width="0.75" cx="550.0" cy="68.0" r="6.0" fill="black"/><circle stroke="black" stroke-width="0.75" cx="550.0" cy="8.0" r="2.5" fill="black"/><circle stroke="black" stroke-width="0.75" cx="600.0" cy="112.0" r="2.5" fill="black"/><text text-anchor="middle" x="600.0" y="112.0" dy="20">(37)</text><circle stroke="black" stroke-width="0.75" cx="600.0" cy="68.0" r="3.9" fill="black"/><circle stroke="black" stroke-width="0.75" cx="600.0" cy="38.0" r="3.9" fill="black"/><circle stroke="black" stroke-width="0.75" cx="600.0" cy="8.0" r="2.5" fill="black"/><circle stroke="black" stroke-width="0.75" cx="650.0" cy="112.0" r="2.5" fill="black"/><text text-anchor="middle" x="650.0" y="112.0" dy="20">(41)</text><circle stroke="black" stroke-width="0.75" cx="650.0" cy="38.0" r="2.5" fill="hsl(45,70%,50%)"/><circle stroke="black" stroke-width="0.75" cx="700.0" cy="112.0" r="2.5" fill="black"/><text text-anchor="middle" x="700.0" y="112.0" dy="20">(43)</text><circle stroke="black" stroke-width="0.75" cx="700.0" cy="38.0" r="6.0" fill="black"/><circle stroke="black" stroke-width="0.75" cx="750.0" cy="112.0" r="2.5" fill="black"/><text text-anchor="middle" x="750.0" y="112.0" dy="20">(47)</text><circle stroke="black" stroke-width="0.75" cx="750.0" cy="68.0" r="6.0" fill="black"/><circle stroke="black" stroke-width="0.75" cx="750.0" cy="8.0" r="2.5" fill="black"/><circle stroke="black" stroke-width="0.75" cx="800.0" cy="112.0" r="2.5" fill="black"/><text text-anchor="middle" x="800.0" y="112.0" dy="20">(53)</text><circle stroke="black" stroke-width="0.75" cx="800.0" cy="68.0" r="3.9" fill="black"/><circle stroke="black" stroke-width="0.75" cx="800.0" cy="38.0" r="3.9" fill="black"/><circle stroke="black" stroke-width="0.75" cx="800.0" cy="8.0" r="2.5" fill="black"/><circle stroke="black" stroke-width="0.75" cx="850.0" cy="112.0" r="2.5" fill="black"/><text text-anchor="middle" x="850.0" y="112.0" dy="20">(59)</text><circle stroke="black" stroke-width="0.75" cx="850.0" cy="68.0" r="6.0" fill="black"/><circle stroke="black" stroke-width="0.75" cx="850.0" cy="8.0" r="2.5" fill="black"/></svg>