<svg xmlns="http://www.w3.org/2000/svg" xmlns:xlink="http://www.w3.org/1999/xlink" xmlns:inkscape="http://www.inkscape.org/namespaces/inkscape" version="1.1" width="189.45" height="25.1" viewBox="0 0 189.45 25.1">
<defs>
<path id="font_1_1" d="M.33099366-.2400055C.33099366-.23701477 .33099366-.23500061 .31399537-.21800232 .18899536-.0920105 .15699768 .09700012 .15699768 .25 .15699768 .42399598 .19499207 .59799197 .31799317 .72299197 .33099366 .73498538 .33099366 .7369995 .33099366 .73999026 .33099366 .746994 .32699586 .75 .32099916 .75 .31098939 .75 .22099304 .6819916 .1619873 .5549927 .11099243 .44499208 .09899902 .33399964 .09899902 .25 .09899902 .17199707 .10998535 .050994874 .16499329-.06201172 .22499085-.18501282 .31098939-.25 .32099916-.25 .32699586-.25 .33099366-.24700928 .33099366-.2400055Z"/>
<path id="font_1_3" d="M.45999146 .31976319C.45999146 .39982606 .45498658 .47988893 .41999818 .5539398 .37399293 .65000918 .2919922 .6660156 .25 .6660156 .18998719 .6660156 .116989139 .64001467 .07598877 .54693606 .04399109 .47789 .038986207 .39982606 .038986207 .31976319 .038986207 .24472046 .042999269 .15464783 .083999637 .07859802 .1269989-.0024719239 .19999695-.022460938 .24899292-.022460938 .30299378-.022460938 .3789978-.0014648438 .4229889 .09359741 .45498658 .16265869 .45999146 .2407074 .45999146 .31976319M.24899292-.00047302247C.20999146-.00047302247 .15098572 .024551392 .1329956 .12062073 .12199402 .18066406 .12199402 .2727356 .12199402 .3317871 .12199402 .39582826 .12199402 .46188355 .12998963 .5159149 .14898682 .63500979 .22399903 .64401248 .24899292 .64401248 .28199769 .64401248 .34799195 .6259918 .36698915 .52693179 .3769989 .47088624 .3769989 .39482118 .3769989 .3317871 .3769989 .25672914 .3769989 .18867493 .3659973 .12461853 .35099793 .029556275 .2939911-.00047302247 .24899292-.00047302247Z"/>
<path id="font_1_2" d="M.2889862 .25C.2889862 .32798768 .27799989 .44898988 .22299195 .56199648 .16299439 .68499758 .07699585 .75 .066986087 .75 .06098938 .75 .056991579 .74598696 .056991579 .73999026 .056991579 .7369995 .056991579 .73498538 .07598877 .71699526 .17399597 .6179962 .23098755 .45899964 .23098755 .25 .23098755 .07899475 .19400025-.09700012 .069992069-.2230072 .056991579-.23500061 .056991579-.23701477 .056991579-.2400055 .056991579-.2460022 .06098938-.25 .066986087-.25 .07699585-.25 .16699219-.18200684 .22599793-.055007936 .2769928 .054992677 .2889862 .16600037 .2889862 .25Z"/>
<path id="font_1_4" d="M.1269989 .07699585 .23298645 .18003845C.3889923 .31811524 .44898988 .3721466 .44898988 .47216798 .44898988 .5860901 .35899354 .6660156 .23699951 .6660156 .12399292 .6660156 .049987794 .57411196 .049987794 .48516847 .049987794 .4291687 .099990848 .4291687 .102996829 .4291687 .11999512 .4291687 .15499878 .44117738 .15499878 .48217774 .15499878 .5081787 .13699341 .5341797 .101989749 .5341797 .09399414 .5341797 .09199524 .5341797 .08898926 .5331726 .11199951 .59806826 .1659851 .63500979 .22399903 .63500979 .31498719 .63500979 .35798646 .5541382 .35798646 .47216798 .35798646 .39215089 .30799867 .31311036 .25299073 .25108338L.06098938 .036987306C.049987794 .025985718 .049987794 .023986817 .049987794 0H.42099L.44898988 .17404175H.42399598C.4189911 .14402771 .4119873 .1000061 .4019928 .084991458 .394989 .07699585 .32899476 .07699585 .30699159 .07699585H.1269989Z"/>
<path id="font_1_5" d="M.2899933 .35191346C.37199403 .37893678 .42999269 .4490509 .42999269 .52809146 .42999269 .6100464 .34199525 .6660156 .24598694 .6660156 .14498902 .6660156 .068984989 .60606387 .068984989 .53009036 .068984989 .49710084 .09098816 .47808839 .11999512 .47808839 .15098572 .47808839 .17098999 .50009158 .17098999 .5290985 .17098999 .57910159 .12399292 .57910159 .10899353 .57910159 .13999939 .62802127 .20599365 .64100649 .24198914 .64100649 .2829895 .64100649 .33799745 .6190338 .33799745 .5290985 .33799745 .51708987 .33599855 .45906068 .30999757 .4149933 .27999879 .36691285 .24598694 .36390687 .22099304 .36291505 .21299744 .36190797 .18899536 .35990907 .18199158 .35990907 .17399597 .35890199 .16699219 .35791017 .16699219 .3479004 .16699219 .33691407 .17399597 .33691407 .19099427 .33691407H.23498535C.31698609 .33691407 .35398866 .2686615 .35398866 .17037964 .35398866 .034469606 .2849884 .0055389406 .24099732 .0055389406 .19799805 .0055389406 .12298584 .022491456 .08799744 .08137512 .12298584 .07637024 .1539917 .09837341 .1539917 .1363678 .1539917 .17237854 .1269989 .19238281 .09799194 .19238281 .07398987 .19238281 .041992189 .17837525 .041992189 .1343689 .041992189 .043441774 .1349945-.022460938 .24398804-.022460938 .3659973-.022460938 .45700074 .06838989 .45700074 .17037964 .45700074 .252594 .3939972 .33088685 .2899933 .35191346Z"/>
<path id="font_1_6" d="M.44898988 .20022583C.44898988 .3193512 .36698915 .41944886 .25898744 .41944886 .21099854 .41944886 .16799927 .40345765 .13198853 .36842347V.5637665C.1519928 .5577698 .18499756 .55078127 .21699524 .55078127 .33999635 .55078127 .4099884 .6417694 .4099884 .6547699 .4099884 .6607666 .40699769 .6657715 .3999939 .6657715 .39898683 .6657715 .39698792 .6657715 .3919983 .66278079 .37199403 .6537781 .32299806 .6337738 .2559967 .6337738 .21598816 .6337738 .16999817 .6407776 .12298584 .6617737 .114990238 .66477969 .11299133 .66477969 .11099243 .66477969 .100997928 .66477969 .100997928 .6567688 .100997928 .6407776V.34439088C.100997928 .32637025 .100997928 .31835938 .114990238 .31835938 .12199402 .31835938 .12399292 .32136537 .12799073 .32736207 .13899231 .3433838 .17599488 .39746095 .25698854 .39746095 .30899049 .39746095 .33399964 .35139466 .34199525 .33337403 .35798646 .29632569 .3600006 .25727845 .3600006 .20722962 .3600006 .17222595 .3600006 .11222839 .33599855 .07035828 .31199647 .031463624 .2749939 .0055389406 .22898865 .0055389406 .1559906 .0055389406 .09899902 .058380128 .08198547 .11723328 .084991458 .1162262 .08799744 .115234378 .09899902 .115234378 .13198853 .115234378 .14898682 .14022827 .14898682 .16423035 .14898682 .18823242 .13198853 .21322632 .09899902 .21322632 .084991458 .21322632 .049987794 .20622254 .049987794 .16023255 .049987794 .07434082 .11898804-.022460938 .23098755-.022460938 .34700013-.022460938 .44898988 .073349 .44898988 .20022583Z"/>
<path id="font_1_7" d="M.47599793 .609375C.4850006 .6213684 .4850006 .62338259 .4850006 .64437869H.24198914C.11999512 .64437869 .117996219 .65737918 .11399841 .67637637H.08898926L.055999757 .4702301H.08099365C.083999637 .48625184 .09298706 .5493469 .10598755 .56137087 .11299133 .5673828 .19099427 .5673828 .20399475 .5673828H.41099549C.3999939 .5513611 .32099916 .4421997 .29899598 .40914918 .20899964 .27394105 .17599488 .1347351 .17599488 .032577516 .17599488 .022567749 .17599488-.022460938 .22200012-.022460938 .2679901-.022460938 .2679901 .022567749 .2679901 .032577516V.08366394C.2679901 .13873291 .2709961 .19381714 .2789917 .24790955 .2829895 .27093507 .29699708 .35707093 .34098817 .41915895L.47599793 .609375Z"/>
</defs>
<path transform="matrix(1,0,0,-1,9.686001,8.297001)" stroke-width=".3985" stroke-linecap="butt" stroke-miterlimit="10" stroke-linejoin="miter" fill="none" stroke="#000000" d="M170.08086 0"/>
<use data-text="(" xlink:href="#font_1_1" transform="matrix(9.9626,0,0,-9.9626,173.40201,10.787998)"/>
<use data-text="0" xlink:href="#font_1_3" transform="matrix(9.9626,0,0,-9.9626,177.26749,10.787998)"/>
<use data-text=")" xlink:href="#font_1_2" transform="matrix(9.9626,0,0,-9.9626,182.2488,10.787998)"/>
<path transform="matrix(1,0,0,-1,9.686001,8.297001)" d="M1.4174 0C1.4174 .78282 .78282 1.4174 0 1.4174-.78282 1.4174-1.4174 .78282-1.4174 0-1.4174-.78282-.78282-1.4174 0-1.4174 .78282-1.4174 1.4174-.78282 1.4174 0ZM0 0"/>
<path transform="matrix(1,0,0,-1,9.686001,8.297001)" stroke-width=".3985" stroke-linecap="butt" stroke-miterlimit="10" stroke-linejoin="miter" fill="none" stroke="#000000" d="M1.4174 0C1.4174 .78282 .78282 1.4174 0 1.4174-.78282 1.4174-1.4174 .78282-1.4174 0-1.4174-.78282-.78282-1.4174 0-1.4174 .78282-1.4174 1.4174-.78282 1.4174 0ZM0 0"/>
<path transform="matrix(1,0,0,-1,9.686001,8.297001)" stroke-width=".3985" stroke-linecap="butt" stroke-miterlimit="10" stroke-linejoin="miter" fill="none" stroke="#000000" d="M0 0"/>
<use data-text="(" xlink:href="#font_1_1" transform="matrix(9.9626,0,0,-9.9626,3.321003,19.288998)"/>
<use data-text="2" xlink:href="#font_1_4" transform="matrix(9.9626,0,0,-9.9626,7.186493,19.288998)"/>
<use data-text=")" xlink:href="#font_1_2" transform="matrix(9.9626,0,0,-9.9626,12.167793,19.288998)"/>
<path transform="matrix(1,0,0,-1,9.686001,8.297001)" d="M29.76422 0C29.76422 .78282 29.12962 1.4174 28.3468 1.4174 27.56398 1.4174 26.92938 .78282 26.92938 0 26.92938-.78282 27.56398-1.4174 28.3468-1.4174 29.12962-1.4174 29.76422-.78282 29.76422 0ZM28.3468 0"/>
<path transform="matrix(1,0,0,-1,9.686001,8.297001)" stroke-width=".3985" stroke-linecap="butt" stroke-miterlimit="10" stroke-linejoin="miter" fill="none" stroke="#000000" d="M29.76422 0C29.76422 .78282 29.12962 1.4174 28.3468 1.4174 27.56398 1.4174 26.92938 .78282 26.92938 0 26.92938-.78282 27.56398-1.4174 28.3468-1.4174 29.12962-1.4174 29.76422-.78282 29.76422 0ZM28.3468 0"/>
<path transform="matrix(1,0,0,-1,9.686001,8.297001)" stroke-width=".3985" stroke-linecap="butt" stroke-miterlimit="10" stroke-linejoin="miter" fill="none" stroke="#000000" d="M28.3468 0"/>
<use data-text="(" xlink:href="#font_1_1" transform="matrix(9.9626,0,0,-9.9626,31.668004,19.288998)"/>
<use data-text="3" xlink:href="#font_1_5" transform="matrix(9.9626,0,0,-9.9626,35.533494,19.288998)"/>
<use data-text=")" xlink:href="#font_1_2" transform="matrix(9.9626,0,0,-9.9626,40.514795,19.288998)"/>
<path transform="matrix(1,0,0,-1,9.686001,8.297001)" d="M58.11102 0C58.11102 .78282 57.47644 1.4174 56.69362 1.4174 55.91078 1.4174 55.2762 .78282 55.2762 0 55.2762-.78282 55.91078-1.4174 56.69362-1.4174 57.47644-1.4174 58.11102-.78282 58.11102 0ZM56.69362 0"/>
<path transform="matrix(1,0,0,-1,9.686001,8.297001)" stroke-width=".3985" stroke-linecap="butt" stroke-miterlimit="10" stroke-linejoin="miter" fill="none" stroke="#000000" d="M58.11102 0C58.11102 .78282 57.47644 1.4174 56.69362 1.4174 55.91078 1.4174 55.2762 .78282 55.2762 0 55.2762-.78282 55.91078-1.4174 56.69362-1.4174 57.47644-1.4174 58.11102-.78282 58.11102 0ZM56.69362 0"/>
<path transform="matrix(1,0,0,-1,9.686001,8.297001)" stroke-width=".3985" stroke-linecap="butt" stroke-miterlimit="10" stroke-linejoin="miter" fill="none" stroke="#000000" d="M56.69362 0"/>
<use data-text="(" xlink:href="#font_1_1" transform="matrix(9.9626,0,0,-9.9626,60.014005,19.288998)"/>
<use data-text="5" xlink:href="#font_1_6" transform="matrix(9.9626,0,0,-9.9626,63.879495,19.288998)"/>
<use data-text=")" xlink:href="#font_1_2" transform="matrix(9.9626,0,0,-9.9626,68.860797,19.288998)"/>
<path transform="matrix(1,0,0,-1,9.686001,8.297001)" d="M86.45784 0C86.45784 .78282 85.82324 1.4174 85.04042 1.4174 84.2576 1.4174 83.623 .78282 83.623 0 83.623-.78282 84.2576-1.4174 85.04042-1.4174 85.82324-1.4174 86.45784-.78282 86.45784 0ZM85.04042 0"/>
<path transform="matrix(1,0,0,-1,9.686001,8.297001)" stroke-width=".3985" stroke-linecap="butt" stroke-miterlimit="10" stroke-linejoin="miter" fill="none" stroke="#000000" d="M86.45784 0C86.45784 .78282 85.82324 1.4174 85.04042 1.4174 84.2576 1.4174 83.623 .78282 83.623 0 83.623-.78282 84.2576-1.4174 85.04042-1.4174 85.82324-1.4174 86.45784-.78282 86.45784 0ZM85.04042 0"/>
<path transform="matrix(1,0,0,-1,9.686001,8.297001)" stroke-width=".3985" stroke-linecap="butt" stroke-miterlimit="10" stroke-linejoin="miter" fill="none" stroke="#000000" d="M85.04042 0"/>
<use data-text="(" xlink:href="#font_1_1" transform="matrix(9.9626,0,0,-9.9626,88.36101,19.288998)"/>
<use data-text="7" xlink:href="#font_1_7" transform="matrix(9.9626,0,0,-9.9626,92.226497,19.288998)"/>
<use data-text=")" xlink:href="#font_1_2" transform="matrix(9.9626,0,0,-9.9626,97.207798,19.288998)"/>
<path transform="matrix(1,0,0,-1,9.686001,8.297001)" d="M0 0H113.38724"/>
<path transform="matrix(1,0,0,-1,9.686001,8.297001)" stroke-width=".3985" stroke-linecap="butt" stroke-miterlimit="10" stroke-linejoin="miter" fill="none" stroke="#000000" d="M0 0H113.38724"/>
<path transform="matrix(1,0,0,-1,9.686001,8.297001)" stroke-width=".3985" stroke-linecap="butt" stroke-dasharray="2.98883,2.98883" stroke-miterlimit="10" stroke-linejoin="miter" fill="none" stroke="#000000" d="M113.38724 0H141.73404"/>
</svg>
