<svg xmlns="http://www.w3.org/2000/svg" viewBox="0 0 200 200" preserveAspectRatio="none"><circle stroke="black" cx="10.0" cy="100.0" r="1.5" fill="hsl(180,90.0%,90.0%)"/><circle stroke="black" cx="20.0" cy="100.0" r="1.5" fill="black"/><circle stroke="black" cx="30.0" cy="100.0" r="1.5" fill="hsl(180,90.0%,90.0%)"/><circle stroke="black" cx="40.0" cy="150.0" r="1.5" fill="hsl(180,45.0%,45.0%)"/><circle stroke="black" cx="40.0" cy="50.0" r="1.5" fill="hsl(180,45.0%,45.0%)"/><circle stroke="black" cx="50.0" cy="100.0" r="1.5" fill="hsl(180,90.0%,90.0%)"/><circle stroke="black" cx="60.0" cy="150.0" r="1.5" fill="hsl(180,45.0%,45.0%)"/><circle stroke="black" cx="60.0" cy="50.0" r="1.5" fill="hsl(180,45.0%,45.0%)"/><circle stroke="black" cx="70.0" cy="100.0" r="1.5" fill="hsl(180,90.0%,90.0%)"/><circle stroke="black" cx="80.0" cy="150.0" r="1.5" fill="hsl(180,45.0%,45.0%)"/><circle stroke="black" cx="80.0" cy="50.0" r="1.5" fill="hsl(180,45.0%,45.0%)"/><circle stroke="black" cx="90.0" cy="100.0" r="1.5" fill="hsl(180,90.0%,90.0%)"/><circle stroke="black" cx="100.0" cy="100.0" r="1.5" fill="hsl(180,90.0%,90.0%)"/><circle stroke="black" cx="110.0" cy="150.0" r="1.5" fill="hsl(180,45.0%,45.0%)"/><circle stroke="black" cx="110.0" cy="50.0" r="1.5" fill="hsl(180,45.0%,45.0%)"/><circle stroke="black" cx="120.0" cy="150.0" r="1.5" fill="hsl(180,45.0%,45.0%)"/><circle stroke="black" cx="120.0" cy="50.0" r="1.5" fill="hsl(180,45.0%,45.0%)"/><circle stroke="black" cx="130.0" cy="100.0" r="1.5" fill="hsl(180,90.0%,90.0%)"/><circle stroke="black" cx="140.0" cy="150.0" r="1.5" fill="hsl(180,45.0%,45.0%)"/><circle stroke="black" cx="140.0" cy="50.0" r="1.5" fill="hsl(180,45.0%,45.0%)"/><circle stroke="black" cx="150.0" cy="100.0" r="1.5" fill="hsl(180,90.0%,90.0%)"/><circle stroke="black" cx="160.0" cy="100.0" r="1.5" fill="hsl(180,90.0%,90.0%)"/><circle stroke="black" cx="170.0" cy="100.0" r="1.5" fill="hsl(180,90.0%,90.0%)"/><line stroke="gray" stroke-width="0.5" x1="180" y1="25" x2="180" y2="175"/><circle stroke="black" cx="190.0" cy="150.0" r="1.5" fill="black"/></svg>