<svg xmlns="http://www.w3.org/2000/svg" viewBox="0 0 200 200" preserveAspectRatio="none"><circle stroke="black" cx="10.0" cy="150.0" r="1.5" fill="hsl(180,44.0%,44.0%)"/><circle stroke="black" cx="10.0" cy="117.0" r="1.5" fill="hsl(180,30.0%,30.0%)"/><circle stroke="black" cx="10.0" cy="83.0" r="1.5" fill="hsl(180,10.0%,10.0%)"/><circle stroke="black" cx="10.0" cy="50.0" r="1.5" fill="hsl(180,6.0%,6.0%)"/><circle stroke="black" cx="20.0" cy="150.0" r="1.5" fill="hsl(180,54.0%,54.0%)"/><circle stroke="black" cx="20.0" cy="117.0" r="1.5" fill="hsl(180,18.0%,18.0%)"/><circle stroke="black" cx="20.0" cy="83.0" r="1.5" fill="hsl(180,12.0%,12.0%)"/><circle stroke="black" cx="20.0" cy="50.0" r="1.5" fill="hsl(180,6.0%,6.0%)"/><circle stroke="black" cx="30.0" cy="100.0" r="1.5" fill="hsl(180,90.0%,90.0%)"/><circle stroke="black" cx="40.0" cy="150.0" r="1.5" fill="hsl(180,40.0%,40.0%)"/><circle stroke="black" cx="40.0" cy="125.0" r="1.5" fill="hsl(180,24.0%,24.0%)"/><circle stroke="black" cx="40.0" cy="100.0" r="1.5" fill="hsl(180,16.0%,16.0%)"/><circle stroke="black" cx="40.0" cy="75.0" r="1.5" fill="hsl(180,8.0%,8.0%)"/><circle stroke="black" cx="40.0" cy="50.0" r="1.5" fill="hsl(180,2.0%,2.0%)"/><circle stroke="black" cx="50.0" cy="150.0" r="1.5" fill="hsl(180,32.0%,32.0%)"/><circle stroke="black" cx="50.0" cy="125.0" r="1.5" fill="hsl(180,28.0%,28.0%)"/><circle stroke="black" cx="50.0" cy="100.0" r="1.5" fill="hsl(180,14.0%,14.0%)"/><circle stroke="black" cx="50.0" cy="75.0" r="1.5" fill="hsl(180,12.0%,12.0%)"/><circle stroke="black" cx="50.0" cy="50.0" r="1.5" fill="hsl(180,4.0%,4.0%)"/><circle stroke="black" cx="60.0" cy="150.0" r="1.5" fill="hsl(180,54.0%,54.0%)"/><circle stroke="black" cx="60.0" cy="100.0" r="1.5" fill="hsl(180,34.0%,34.0%)"/><circle stroke="black" cx="60.0" cy="50.0" r="1.5" fill="hsl(180,2.0%,2.0%)"/><circle stroke="black" cx="70.0" cy="150.0" r="1.5" fill="hsl(180,52.0%,52.0%)"/><circle stroke="black" cx="70.0" cy="117.0" r="1.5" fill="hsl(180,34.0%,34.0%)"/><circle stroke="black" cx="70.0" cy="83.0" r="1.5" fill="hsl(180,2.0%,2.0%)"/><circle stroke="black" cx="70.0" cy="50.0" r="1.5" fill="hsl(180,2.0%,2.0%)"/><circle stroke="black" cx="80.0" cy="150.0" r="1.5" fill="hsl(180,52.0%,52.0%)"/><circle stroke="black" cx="80.0" cy="100.0" r="1.5" fill="hsl(180,22.0%,22.0%)"/><circle stroke="black" cx="80.0" cy="50.0" r="1.5" fill="hsl(180,16.0%,16.0%)"/><circle stroke="black" cx="90.0" cy="150.0" r="1.5" fill="hsl(180,64.0%,64.0%)"/><circle stroke="black" cx="90.0" cy="50.0" r="1.5" fill="hsl(180,26.0%,26.0%)"/><circle stroke="black" cx="100.0" cy="150.0" r="1.5" fill="black"/><circle stroke="black" cx="100.0" cy="130.0" r="3.3333333333333335" fill="black"/><circle stroke="black" cx="100.0" cy="110.0" r="3.3333333333333335" fill="black"/><circle stroke="black" cx="100.0" cy="90.0" r="3.3333333333333335" fill="black"/><circle stroke="black" cx="100.0" cy="70.0" r="3.3333333333333335" fill="black"/><circle stroke="black" cx="100.0" cy="50.0" r="3.3333333333333335" fill="black"/><circle stroke="black" cx="110.0" cy="150.0" r="1.5" fill="hsl(180,44.0%,44.0%)"/><circle stroke="black" cx="110.0" cy="130.0" r="1.5" fill="hsl(180,22.0%,22.0%)"/><circle stroke="black" cx="110.0" cy="110.0" r="1.5" fill="hsl(180,10.0%,10.0%)"/><circle stroke="black" cx="110.0" cy="90.0" r="1.5" fill="hsl(180,6.0%,6.0%)"/><circle stroke="black" cx="110.0" cy="70.0" r="1.5" fill="hsl(180,6.0%,6.0%)"/><circle stroke="black" cx="110.0" cy="50.0" r="1.5" fill="hsl(180,2.0%,2.0%)"/><circle stroke="black" cx="120.0" cy="150.0" r="1.5" fill="hsl(180,76.0%,76.0%)"/><circle stroke="black" cx="120.0" cy="100.0" r="1.5" fill="hsl(180,12.0%,12.0%)"/><circle stroke="black" cx="120.0" cy="50.0" r="1.5" fill="hsl(180,2.0%,2.0%)"/><circle stroke="black" cx="130.0" cy="150.0" r="1.5" fill="black"/><circle stroke="black" cx="130.0" cy="125.0" r="2.2" fill="black"/><circle stroke="black" cx="130.0" cy="100.0" r="1.5" fill="black"/><circle stroke="black" cx="130.0" cy="75.0" r="3.3333333333333335" fill="black"/><circle stroke="black" cx="130.0" cy="50.0" r="3.3333333333333335" fill="black"/><circle stroke="black" cx="140.0" cy="150.0" r="1.5" fill="hsl(180,64.0%,64.0%)"/><circle stroke="black" cx="140.0" cy="117.0" r="1.5" fill="hsl(180,18.0%,18.0%)"/><circle stroke="black" cx="140.0" cy="83.0" r="1.5" fill="hsl(180,6.0%,6.0%)"/><circle stroke="black" cx="140.0" cy="50.0" r="1.5" fill="hsl(180,2.0%,2.0%)"/><circle stroke="black" cx="150.0" cy="150.0" r="1.5" fill="hsl(180,68.0%,68.0%)"/><circle stroke="black" cx="150.0" cy="100.0" r="1.5" fill="hsl(180,14.0%,14.0%)"/><circle stroke="black" cx="150.0" cy="50.0" r="1.5" fill="hsl(180,8.0%,8.0%)"/><circle stroke="black" cx="160.0" cy="150.0" r="1.5" fill="hsl(180,56.0%,56.0%)"/><circle stroke="black" cx="160.0" cy="50.0" r="1.5" fill="hsl(180,34.0%,34.0%)"/><circle stroke="black" cx="170.0" cy="150.0" r="1.5" fill="hsl(180,50.0%,50.0%)"/><circle stroke="black" cx="170.0" cy="125.0" r="1.5" fill="hsl(180,22.0%,22.0%)"/><circle stroke="black" cx="170.0" cy="100.0" r="1.5" fill="hsl(180,14.0%,14.0%)"/><circle stroke="black" cx="170.0" cy="75.0" r="1.5" fill="hsl(180,2.0%,2.0%)"/><circle stroke="black" cx="170.0" cy="50.0" r="1.5" fill="hsl(180,2.0%,2.0%)"/><line stroke="gray" stroke-width="0.5" x1="180" y1="25" x2="180" y2="175"/><circle stroke="black" cx="190.0" cy="50.0" r="1.5" fill="black"/><circle stroke="black" cx="190.0" cy="175.0" r="1.5" fill="black"/><circle stroke="black" cx="190.0" cy="173.0" r="1.5" fill="black"/><circle stroke="black" cx="190.0" cy="170.0" r="1.5" fill="black"/><circle stroke="black" cx="190.0" cy="168.0" r="1.5" fill="black"/><circle stroke="black" cx="190.0" cy="165.0" r="1.5" fill="black"/><circle stroke="black" cx="190.0" cy="163.0" r="1.5" fill="black"/><circle stroke="black" cx="190.0" cy="161.0" r="1.5" fill="black"/><circle stroke="black" cx="190.0" cy="158.0" r="1.5" fill="black"/><circle stroke="black" cx="190.0" cy="156.0" r="1.5" fill="black"/><circle stroke="black" cx="190.0" cy="154.0" r="1.5" fill="black"/><circle stroke="black" cx="190.0" cy="151.0" r="1.5" fill="black"/><circle stroke="black" cx="190.0" cy="149.0" r="1.5" fill="black"/><circle stroke="black" cx="190.0" cy="146.0" r="1.5" fill="black"/><circle stroke="black" cx="190.0" cy="144.0" r="1.5" fill="black"/><circle stroke="black" cx="190.0" cy="142.0" r="1.5" fill="black"/><circle stroke="black" cx="190.0" cy="139.0" r="1.5" fill="black"/><circle stroke="black" cx="190.0" cy="137.0" r="1.5" fill="black"/><circle stroke="black" cx="190.0" cy="135.0" r="1.5" fill="black"/><circle stroke="black" cx="190.0" cy="132.0" r="1.5" fill="black"/><circle stroke="black" cx="190.0" cy="130.0" r="1.5" fill="black"/><circle stroke="black" cx="190.0" cy="127.0" r="1.5" fill="black"/><circle stroke="black" cx="190.0" cy="125.0" r="1.5" fill="black"/></svg>