<svg xmlns="http://www.w3.org/2000/svg" viewBox="0 0 200 200" preserveAspectRatio="none"><circle stroke="black" cx="10.0" cy="150.0" r="2.2" fill="black"/><circle stroke="black" cx="10.0" cy="100.0" r="2.2" fill="black"/><circle stroke="black" cx="10.0" cy="50.0" r="2.2" fill="black"/><circle stroke="black" cx="20.0" cy="150.0" r="1.5" fill="hsl(180,54.0%,54.0%)"/><circle stroke="black" cx="20.0" cy="50.0" r="1.5" fill="hsl(180,36.0%,36.0%)"/><circle stroke="black" cx="30.0" cy="100.0" r="1.5" fill="hsl(180,90.0%,90.0%)"/><circle stroke="black" cx="40.0" cy="150.0" r="1.5" fill="hsl(180,72.0%,72.0%)"/><circle stroke="black" cx="40.0" cy="50.0" r="1.5" fill="hsl(180,18.0%,18.0%)"/><circle stroke="black" cx="50.0" cy="150.0" r="1.5" fill="hsl(180,45.0%,45.0%)"/><circle stroke="black" cx="50.0" cy="50.0" r="1.5" fill="hsl(180,45.0%,45.0%)"/><circle stroke="black" cx="60.0" cy="150.0" r="1.5" fill="hsl(180,36.0%,36.0%)"/><circle stroke="black" cx="60.0" cy="125.0" r="1.5" fill="hsl(180,18.0%,18.0%)"/><circle stroke="black" cx="60.0" cy="100.0" r="1.5" fill="hsl(180,18.0%,18.0%)"/><circle stroke="black" cx="60.0" cy="75.0" r="1.5" fill="hsl(180,9.0%,9.0%)"/><circle stroke="black" cx="60.0" cy="50.0" r="1.5" fill="hsl(180,9.0%,9.0%)"/><circle stroke="black" cx="70.0" cy="150.0" r="1.5" fill="hsl(180,36.0%,36.0%)"/><circle stroke="black" cx="70.0" cy="125.0" r="1.5" fill="hsl(180,18.0%,18.0%)"/><circle stroke="black" cx="70.0" cy="100.0" r="1.5" fill="hsl(180,18.0%,18.0%)"/><circle stroke="black" cx="70.0" cy="75.0" r="1.5" fill="hsl(180,9.0%,9.0%)"/><circle stroke="black" cx="70.0" cy="50.0" r="1.5" fill="hsl(180,9.0%,9.0%)"/><circle stroke="black" cx="80.0" cy="150.0" r="1.5" fill="hsl(180,36.0%,36.0%)"/><circle stroke="black" cx="80.0" cy="100.0" r="1.5" fill="hsl(180,36.0%,36.0%)"/><circle stroke="black" cx="80.0" cy="50.0" r="1.5" fill="hsl(180,18.0%,18.0%)"/><circle stroke="black" cx="90.0" cy="150.0" r="1.5" fill="hsl(180,27.0%,27.0%)"/><circle stroke="black" cx="90.0" cy="125.0" r="1.5" fill="hsl(180,27.0%,27.0%)"/><circle stroke="black" cx="90.0" cy="100.0" r="1.5" fill="hsl(180,18.0%,18.0%)"/><circle stroke="black" cx="90.0" cy="75.0" r="1.5" fill="hsl(180,9.0%,9.0%)"/><circle stroke="black" cx="90.0" cy="50.0" r="1.5" fill="hsl(180,9.0%,9.0%)"/><circle stroke="black" cx="100.0" cy="150.0" r="1.5" fill="hsl(180,54.0%,54.0%)"/><circle stroke="black" cx="100.0" cy="100.0" r="1.5" fill="hsl(180,18.0%,18.0%)"/><circle stroke="black" cx="100.0" cy="50.0" r="1.5" fill="hsl(180,18.0%,18.0%)"/><circle stroke="black" cx="110.0" cy="150.0" r="1.5" fill="hsl(180,36.0%,36.0%)"/><circle stroke="black" cx="110.0" cy="100.0" r="1.5" fill="hsl(180,36.0%,36.0%)"/><circle stroke="black" cx="110.0" cy="50.0" r="1.5" fill="hsl(180,18.0%,18.0%)"/><circle stroke="black" cx="120.0" cy="150.0" r="1.5" fill="black"/><circle stroke="black" cx="120.0" cy="100.0" r="3.3333333333333335" fill="black"/><circle stroke="black" cx="120.0" cy="50.0" r="3.3333333333333335" fill="black"/><circle stroke="black" cx="130.0" cy="150.0" r="1.5" fill="hsl(180,18.0%,18.0%)"/><circle stroke="black" cx="130.0" cy="130.0" r="1.5" fill="hsl(180,18.0%,18.0%)"/><circle stroke="black" cx="130.0" cy="110.0" r="1.5" fill="hsl(180,18.0%,18.0%)"/><circle stroke="black" cx="130.0" cy="90.0" r="1.5" fill="hsl(180,18.0%,18.0%)"/><circle stroke="black" cx="130.0" cy="70.0" r="1.5" fill="hsl(180,9.0%,9.0%)"/><circle stroke="black" cx="130.0" cy="50.0" r="1.5" fill="hsl(180,9.0%,9.0%)"/><circle stroke="black" cx="140.0" cy="150.0" r="1.5" fill="hsl(180,36.0%,36.0%)"/><circle stroke="black" cx="140.0" cy="100.0" r="1.5" fill="hsl(180,36.0%,36.0%)"/><circle stroke="black" cx="140.0" cy="50.0" r="1.5" fill="hsl(180,18.0%,18.0%)"/><circle stroke="black" cx="150.0" cy="150.0" r="1.5" fill="hsl(180,54.0%,54.0%)"/><circle stroke="black" cx="150.0" cy="50.0" r="1.5" fill="hsl(180,36.0%,36.0%)"/><circle stroke="black" cx="160.0" cy="150.0" r="1.5" fill="hsl(180,27.0%,27.0%)"/><circle stroke="black" cx="160.0" cy="117.0" r="1.5" fill="hsl(180,27.0%,27.0%)"/><circle stroke="black" cx="160.0" cy="83.0" r="1.5" fill="hsl(180,18.0%,18.0%)"/><circle stroke="black" cx="160.0" cy="50.0" r="1.5" fill="hsl(180,18.0%,18.0%)"/><circle stroke="black" cx="170.0" cy="100.0" r="1.5" fill="hsl(180,90.0%,90.0%)"/><line stroke="gray" stroke-width="0.5" x1="180" y1="25" x2="180" y2="175"/><circle stroke="black" cx="190.0" cy="75.0" r="1.5" fill="black"/><circle stroke="black" cx="190.0" cy="25.0" r="1.5" fill="black"/><circle stroke="black" cx="190.0" cy="175.0" r="1.5" fill="black"/><circle stroke="black" cx="190.0" cy="158.0" r="1.5" fill="black"/><circle stroke="black" cx="190.0" cy="142.0" r="1.5" fill="black"/><circle stroke="black" cx="190.0" cy="125.0" r="1.5" fill="black"/></svg>