<svg xmlns="http://www.w3.org/2000/svg" viewBox="0 0 200 200" preserveAspectRatio="none"><circle stroke="black" cx="30.0" cy="130.0" r="2.5" fill="hsl(180,44.0%,44.0%)"/><circle stroke="black" cx="30.0" cy="110.0" r="2.5" fill="hsl(180,30.0%,30.0%)"/><circle stroke="black" cx="30.0" cy="90.0" r="2.5" fill="hsl(180,10.0%,10.0%)"/><circle stroke="black" cx="30.0" cy="70.0" r="2.5" fill="hsl(180,6.0%,6.0%)"/><circle stroke="black" cx="60.0" cy="130.0" r="2.5" fill="hsl(180,54.0%,54.0%)"/><circle stroke="black" cx="60.0" cy="110.0" r="2.5" fill="hsl(180,18.0%,18.0%)"/><circle stroke="black" cx="60.0" cy="90.0" r="2.5" fill="hsl(180,12.0%,12.0%)"/><circle stroke="black" cx="60.0" cy="70.0" r="2.5" fill="hsl(180,6.0%,6.0%)"/><circle stroke="black" cx="90.0" cy="100.0" r="2.5" fill="hsl(180,90.0%,90.0%)"/><circle stroke="black" cx="120.0" cy="130.0" r="2.5" fill="hsl(180,40.0%,40.0%)"/><circle stroke="black" cx="120.0" cy="115.0" r="2.5" fill="hsl(180,24.0%,24.0%)"/><circle stroke="black" cx="120.0" cy="100.0" r="2.5" fill="hsl(180,16.0%,16.0%)"/><circle stroke="black" cx="120.0" cy="85.0" r="2.5" fill="hsl(180,8.0%,8.0%)"/><circle stroke="black" cx="120.0" cy="70.0" r="2.5" fill="hsl(180,2.0%,2.0%)"/><circle stroke="black" cx="150.0" cy="130.0" r="2.5" fill="hsl(180,32.0%,32.0%)"/><circle stroke="black" cx="150.0" cy="115.0" r="2.5" fill="hsl(180,28.0%,28.0%)"/><circle stroke="black" cx="150.0" cy="100.0" r="2.5" fill="hsl(180,14.0%,14.0%)"/><circle stroke="black" cx="150.0" cy="85.0" r="2.5" fill="hsl(180,12.0%,12.0%)"/><circle stroke="black" cx="150.0" cy="70.0" r="2.5" fill="hsl(180,4.0%,4.0%)"/><path stroke="black" stroke-width="0.75" d="M 30.0 130.0 C 46.5 130.0 43.5 130.0 60.0 130.0" fill="none"/><path stroke="black" stroke-width="0.75" d="M 30.0 130.0 C 46.5 130.0 43.5 110.0 60.0 110.0" fill="none"/><path stroke="black" stroke-width="0.75" d="M 30.0 130.0 C 46.5 130.0 43.5 90.0 60.0 90.0" fill="none"/><path stroke="black" stroke-width="0.75" d="M 30.0 130.0 C 46.5 130.0 43.5 70.0 60.0 70.0" fill="none"/><path stroke="black" stroke-width="0.75" d="M 30.0 110.0 C 46.5 110.0 43.5 130.0 60.0 130.0" fill="none"/><path stroke="black" stroke-width="0.75" d="M 30.0 110.0 C 46.5 110.0 43.5 110.0 60.0 110.0" fill="none"/><path stroke="black" stroke-width="0.75" d="M 30.0 110.0 C 46.5 110.0 43.5 90.0 60.0 90.0" fill="none"/><path stroke="black" stroke-width="0.75" d="M 30.0 110.0 C 46.5 110.0 43.5 70.0 60.0 70.0" fill="none"/><path stroke="black" stroke-width="0.75" d="M 30.0 90.0 C 46.5 90.0 43.5 130.0 60.0 130.0" fill="none"/><path stroke="black" stroke-width="0.75" d="M 30.0 90.0 C 46.5 90.0 43.5 110.0 60.0 110.0" fill="none"/><path stroke="black" stroke-width="0.75" d="M 30.0 90.0 C 46.5 90.0 43.5 90.0 60.0 90.0" fill="none"/><path stroke="black" stroke-width="0.75" d="M 30.0 90.0 C 46.5 90.0 43.5 70.0 60.0 70.0" fill="none"/><path stroke="black" stroke-width="0.75" d="M 30.0 70.0 C 46.5 70.0 43.5 130.0 60.0 130.0" fill="none"/><path stroke="black" stroke-width="0.75" d="M 30.0 70.0 C 46.5 70.0 43.5 110.0 60.0 110.0" fill="none"/><path stroke="black" stroke-width="0.75" d="M 30.0 70.0 C 46.5 70.0 43.5 90.0 60.0 90.0" fill="none"/><path stroke="black" stroke-width="0.75" d="M 30.0 70.0 C 46.5 70.0 43.5 70.0 60.0 70.0" fill="none"/><path stroke="black" stroke-width="0.75" d="M 60.0 130.0 C 76.5 130.0 73.5 100.0 90.0 100.0" fill="none"/><path stroke="black" stroke-width="0.75" d="M 60.0 110.0 C 76.5 110.0 73.5 100.0 90.0 100.0" fill="none"/><path stroke="black" stroke-width="0.75" d="M 60.0 90.0 C 76.5 90.0 73.5 100.0 90.0 100.0" fill="none"/><path stroke="black" stroke-width="0.75" d="M 60.0 70.0 C 76.5 70.0 73.5 100.0 90.0 100.0" fill="none"/><path stroke="black" stroke-width="0.75" d="M 90.0 100.0 C 106.5 100.0 103.5 130.0 120.0 130.0" fill="none"/><path stroke="black" stroke-width="0.75" d="M 90.0 100.0 C 106.5 100.0 103.5 115.0 120.0 115.0" fill="none"/><path stroke="black" stroke-width="0.75" d="M 90.0 100.0 C 106.5 100.0 103.5 100.0 120.0 100.0" fill="none"/><path stroke="black" stroke-width="0.75" d="M 90.0 100.0 C 106.5 100.0 103.5 85.0 120.0 85.0" fill="none"/><path stroke="black" stroke-width="0.75" d="M 90.0 100.0 C 106.5 100.0 103.5 70.0 120.0 70.0" fill="none"/><path stroke="black" stroke-width="0.75" d="M 120.0 130.0 C 136.5 130.0 133.5 130.0 150.0 130.0" fill="none"/><path stroke="black" stroke-width="0.75" d="M 120.0 130.0 C 136.5 130.0 133.5 115.0 150.0 115.0" fill="none"/><path stroke="black" stroke-width="0.75" d="M 120.0 130.0 C 136.5 130.0 133.5 100.0 150.0 100.0" fill="none"/><path stroke="black" stroke-width="0.75" d="M 120.0 130.0 C 136.5 130.0 133.5 85.0 150.0 85.0" fill="none"/><path stroke="black" stroke-width="0.75" d="M 120.0 130.0 C 136.5 130.0 133.5 70.0 150.0 70.0" fill="none"/><path stroke="black" stroke-width="0.75" d="M 120.0 115.0 C 136.5 115.0 133.5 130.0 150.0 130.0" fill="none"/><path stroke="black" stroke-width="0.75" d="M 120.0 115.0 C 136.5 115.0 133.5 115.0 150.0 115.0" fill="none"/><path stroke="black" stroke-width="0.75" d="M 120.0 115.0 C 136.5 115.0 133.5 100.0 150.0 100.0" fill="none"/><path stroke="black" stroke-width="0.75" d="M 120.0 115.0 C 136.5 115.0 133.5 85.0 150.0 85.0" fill="none"/><path stroke="black" stroke-width="0.75" d="M 120.0 115.0 C 136.5 115.0 133.5 70.0 150.0 70.0" fill="none"/><path stroke="black" stroke-width="0.75" d="M 120.0 100.0 C 136.5 100.0 133.5 130.0 150.0 130.0" fill="none"/><path stroke="black" stroke-width="0.75" d="M 120.0 100.0 C 136.5 100.0 133.5 115.0 150.0 115.0" fill="none"/><path stroke="black" stroke-width="0.75" d="M 120.0 100.0 C 136.5 100.0 133.5 100.0 150.0 100.0" fill="none"/><path stroke="black" stroke-width="0.75" d="M 120.0 100.0 C 136.5 100.0 133.5 85.0 150.0 85.0" fill="none"/><path stroke="black" stroke-width="0.75" d="M 120.0 100.0 C 136.5 100.0 133.5 70.0 150.0 70.0" fill="none"/><path stroke="black" stroke-width="0.75" d="M 120.0 85.0 C 136.5 85.0 133.5 130.0 150.0 130.0" fill="none"/><path stroke="black" stroke-width="0.75" d="M 120.0 85.0 C 136.5 85.0 133.5 115.0 150.0 115.0" fill="none"/><path stroke="black" stroke-width="0.75" d="M 120.0 85.0 C 136.5 85.0 133.5 100.0 150.0 100.0" fill="none"/><path stroke="black" stroke-width="0.75" d="M 120.0 85.0 C 136.5 85.0 133.5 85.0 150.0 85.0" fill="none"/><path stroke="black" stroke-width="0.75" d="M 120.0 85.0 C 136.5 85.0 133.5 70.0 150.0 70.0" fill="none"/><path stroke="black" stroke-width="0.75" d="M 120.0 70.0 C 136.5 70.0 133.5 130.0 150.0 130.0" fill="none"/><path stroke="black" stroke-width="0.75" d="M 120.0 70.0 C 136.5 70.0 133.5 115.0 150.0 115.0" fill="none"/><path stroke="black" stroke-width="0.75" d="M 120.0 70.0 C 136.5 70.0 133.5 100.0 150.0 100.0" fill="none"/><path stroke="black" stroke-width="0.75" d="M 120.0 70.0 C 136.5 70.0 133.5 85.0 150.0 85.0" fill="none"/><path stroke="black" stroke-width="0.75" d="M 120.0 70.0 C 136.5 70.0 133.5 70.0 150.0 70.0" fill="none"/><circle stroke="black" stroke-width="1.5" cx="100" cy="30" r="20" fill="none"/><circle stroke="black" cx="100" cy="30" r="2" fill="black"/><circle stroke="black" stroke-width="1.5" cx="100" cy="170" r="20" fill="none"/><circle stroke="black" cx="111.514" cy="173.381" r="2" fill="black"/><circle stroke="black" cx="110.095" cy="176.488" r="2" fill="black"/><circle stroke="black" cx="107.859" cy="179.069" r="2" fill="black"/><circle stroke="black" cx="104.985" cy="180.915" r="2" fill="black"/><circle stroke="black" cx="101.708" cy="181.878" r="2" fill="black"/><circle stroke="black" cx="98.293" cy="181.878" r="2" fill="black"/><circle stroke="black" cx="95.016" cy="180.916" r="2" fill="black"/><circle stroke="black" cx="92.142" cy="179.07" r="2" fill="black"/><circle stroke="black" cx="89.905" cy="176.488" r="2" fill="black"/><circle stroke="black" cx="88.486" cy="173.382" r="2" fill="black"/><circle stroke="black" cx="88.0" cy="170.001" r="2" fill="black"/><circle stroke="black" cx="88.486" cy="166.62" r="2" fill="black"/><circle stroke="black" cx="89.904" cy="163.513" r="2" fill="black"/><circle stroke="black" cx="92.141" cy="160.932" r="2" fill="black"/><circle stroke="black" cx="95.014" cy="159.085" r="2" fill="black"/><circle stroke="black" cx="98.291" cy="158.122" r="2" fill="black"/><circle stroke="black" cx="101.706" cy="158.122" r="2" fill="black"/><circle stroke="black" cx="104.983" cy="159.084" r="2" fill="black"/><circle stroke="black" cx="107.857" cy="160.93" r="2" fill="black"/><circle stroke="black" cx="110.094" cy="163.511" r="2" fill="black"/><circle stroke="black" cx="111.513" cy="166.617" r="2" fill="black"/><circle stroke="black" cx="112.0" cy="169.998" r="2" fill="black"/></svg>