<svg xmlns="http://www.w3.org/2000/svg" viewBox="0 0 200 200" preserveAspectRatio="none"><circle stroke="black" cx="30.0" cy="130.0" r="2.5" fill="hsl(180,44.0%,44.0%)"/><circle stroke="black" cx="30.0" cy="110.0" r="2.5" fill="hsl(180,30.0%,30.0%)"/><circle stroke="black" cx="30.0" cy="90.0" r="2.5" fill="hsl(180,10.0%,10.0%)"/><circle stroke="black" cx="30.0" cy="70.0" r="2.5" fill="hsl(180,6.0%,6.0%)"/><circle stroke="black" cx="60.0" cy="130.0" r="2.5" fill="hsl(180,54.0%,54.0%)"/><circle stroke="black" cx="60.0" cy="110.0" r="2.5" fill="hsl(180,18.0%,18.0%)"/><circle stroke="black" cx="60.0" cy="90.0" r="2.5" fill="hsl(180,12.0%,12.0%)"/><circle stroke="black" cx="60.0" cy="70.0" r="2.5" fill="hsl(180,6.0%,6.0%)"/><circle stroke="black" cx="90.0" cy="100.0" r="2.5" fill="hsl(180,90.0%,90.0%)"/><circle stroke="black" cx="120.0" cy="130.0" r="2.5" fill="hsl(180,40.0%,40.0%)"/><circle stroke="black" cx="120.0" cy="115.0" r="2.5" fill="hsl(180,24.0%,24.0%)"/><circle stroke="black" cx="120.0" cy="100.0" r="2.5" fill="hsl(180,16.0%,16.0%)"/><circle stroke="black" cx="120.0" cy="85.0" r="2.5" fill="hsl(180,8.0%,8.0%)"/><circle stroke="black" cx="120.0" cy="70.0" r="2.5" fill="hsl(180,2.0%,2.0%)"/><circle stroke="black" cx="150.0" cy="130.0" r="2.5" fill="hsl(180,32.0%,32.0%)"/><circle stroke="black" cx="150.0" cy="115.0" r="2.5" fill="hsl(180,28.0%,28.0%)"/><circle stroke="black" cx="150.0" cy="100.0" r="2.5" fill="hsl(180,14.0%,14.0%)"/><circle stroke="black" cx="150.0" cy="85.0" r="2.5" fill="hsl(180,12.0%,12.0%)"/><circle stroke="black" cx="150.0" cy="70.0" r="2.5" fill="hsl(180,4.0%,4.0%)"/><path stroke="black" stroke-width="0.75" d="M 30.0 130.0 C 46.5 130.0 43.5 130.0 60.0 130.0" fill="none"/><path stroke="black" stroke-width="0.75" d="M 30.0 130.0 C 46.5 130.0 43.5 110.0 60.0 110.0" fill="none"/><path stroke="black" stroke-width="0.75" d="M 30.0 130.0 C 46.5 130.0 43.5 90.0 60.0 90.0" fill="none"/><path stroke="black" stroke-width="0.75" d="M 30.0 130.0 C 46.5 130.0 43.5 70.0 60.0 70.0" fill="none"/><path stroke="black" stroke-width="0.75" d="M 30.0 110.0 C 46.5 110.0 43.5 130.0 60.0 130.0" fill="none"/><path stroke="black" stroke-width="0.75" d="M 30.0 110.0 C 46.5 110.0 43.5 110.0 60.0 110.0" fill="none"/><path stroke="black" stroke-width="0.75" d="M 30.0 110.0 C 46.5 110.0 43.5 90.0 60.0 90.0" fill="none"/><path stroke="black" stroke-width="0.75" d="M 30.0 110.0 C 46.5 110.0 43.5 70.0 60.0 70.0" fill="none"/><path stroke="black" stroke-width="0.75" d="M 30.0 90.0 C 46.5 90.0 43.5 130.0 60.0 130.0" fill="none"/><path stroke="black" stroke-width="0.75" d="M 30.0 90.0 C 46.5 90.0 43.5 110.0 60.0 110.0" fill="none"/><path stroke="black" stroke-width="0.75" d="M 30.0 90.0 C 46.5 90.0 43.5 90.0 60.0 90.0" fill="none"/><path stroke="black" stroke-width="0.75" d="M 30.0 90.0 C 46.5 90.0 43.5 70.0 60.0 70.0" fill="none"/><path stroke="black" stroke-width="0.75" d="M 30.0 70.0 C 46.5 70.0 43.5 130.0 60.0 130.0" fill="none"/><path stroke="black" stroke-width="0.75" d="M 30.0 70.0 C 46.5 70.0 43.5 110.0 60.0 110.0" fill="none"/><path stroke="black" stroke-width="0.75" d="M 30.0 70.0 C 46.5 70.0 43.5 90.0 60.0 90.0" fill="none"/><path stroke="black" stroke-width="0.75" d="M 30.0 70.0 C 46.5 70.0 43.5 70.0 60.0 70.0" fill="none"/><path stroke="black" stroke-width="0.75" d="M 60.0 130.0 C 76.5 130.0 73.5 100.0 90.0 100.0" fill="none"/><path stroke="black" stroke-width="0.75" d="M 60.0 110.0 C 76.5 110.0 73.5 100.0 90.0 100.0" fill="none"/><path stroke="black" stroke-width="0.75" d="M 60.0 90.0 C 76.5 90.0 73.5 100.0 90.0 100.0" fill="none"/><path stroke="black" stroke-width="0.75" d="M 60.0 70.0 C 76.5 70.0 73.5 100.0 90.0 100.0" fill="none"/><path stroke="black" stroke-width="0.75" d="M 90.0 100.0 C 106.5 100.0 103.5 130.0 120.0 130.0" fill="none"/><path stroke="black" stroke-width="0.75" d="M 90.0 100.0 C 106.5 100.0 103.5 115.0 120.0 115.0" fill="none"/><path stroke="black" stroke-width="0.75" d="M 90.0 100.0 C 106.5 100.0 103.5 100.0 120.0 100.0" fill="none"/><path stroke="black" stroke-width="0.75" d="M 90.0 100.0 C 106.5 100.0 103.5 85.0 120.0 85.0" fill="none"/><path stroke="black" stroke-width="0.75" d="M 90.0 100.0 C 106.5 100.0 103.5 70.0 120.0 70.0" fill="none"/><path stroke="black" stroke-width="0.75" d="M 120.0 130.0 C 136.5 130.0 133.5 130.0 150.0 130.0" fill="none"/><path stroke="black" stroke-width="0.75" d="M 120.0 130.0 C 136.5 130.0 133.5 115.0 150.0 115.0" fill="none"/><path stroke="black" stroke-width="0.75" d="M 120.0 130.0 C 136.5 130.0 133.5 100.0 150.0 100.0" fill="none"/><path stroke="black" stroke-width="0.75" d="M 120.0 130.0 C 136.5 130.0 133.5 85.0 150.0 85.0" fill="none"/><path stroke="black" stroke-width="0.75" d="M 120.0 130.0 C 136.5 130.0 133.5 70.0 150.0 70.0" fill="none"/><path stroke="black" stroke-width="0.75" d="M 120.0 115.0 C 136.5 115.0 133.5 130.0 150.0 130.0" fill="none"/><path stroke="black" stroke-width="0.75" d="M 120.0 115.0 C 136.5 115.0 133.5 115.0 150.0 115.0" fill="none"/><path stroke="black" stroke-width="0.75" d="M 120.0 115.0 C 136.5 115.0 133.5 100.0 150.0 100.0" fill="none"/><path stroke="black" stroke-width="0.75" d="M 120.0 115.0 C 136.5 115.0 133.5 85.0 150.0 85.0" fill="none"/><path stroke="black" stroke-width="0.75" d="M 120.0 115.0 C 136.5 115.0 133.5 70.0 150.0 70.0" fill="none"/><path stroke="black" stroke-width="0.75" d="M 120.0 100.0 C 136.5 100.0 133.5 130.0 150.0 130.0" fill="none"/><path stroke="black" stroke-width="0.75" d="M 120.0 100.0 C 136.5 100.0 133.5 115.0 150.0 115.0" fill="none"/><path stroke="black" stroke-width="0.75" d="M 120.0 100.0 C 136.5 100.0 133.5 100.0 150.0 100.0" fill="none"/><path stroke="black" stroke-width="0.75" d="M 120.0 100.0 C 136.5 100.0 133.5 85.0 150.0 85.0" fill="none"/><path stroke="black" stroke-width="0.75" d="M 120.0 100.0 C 136.5 100.0 133.5 70.0 150.0 70.0" fill="none"/><path stroke="black" stroke-width="0.75" d="M 120.0 85.0 C 136.5 85.0 133.5 130.0 150.0 130.0" fill="none"/><path stroke="black" stroke-width="0.75" d="M 120.0 85.0 C 136.5 85.0 133.5 115.0 150.0 115.0" fill="none"/><path stroke="black" stroke-width="0.75" d="M 120.0 85.0 C 136.5 85.0 133.5 100.0 150.0 100.0" fill="none"/><path stroke="black" stroke-width="0.75" d="M 120.0 85.0 C 136.5 85.0 133.5 85.0 150.0 85.0" fill="none"/><path stroke="black" stroke-width="0.75" d="M 120.0 85.0 C 136.5 85.0 133.5 70.0 150.0 70.0" fill="none"/><path stroke="black" stroke-width="0.75" d="M 120.0 70.0 C 136.5 70.0 133.5 130.0 150.0 130.0" fill="none"/><path stroke="black" stroke-width="0.75" d="M 120.0 70.0 C 136.5 70.0 133.5 115.0 150.0 115.0" fill="none"/><path stroke="black" stroke-width="0.75" d="M 120.0 70.0 C 136.5 70.0 133.5 100.0 150.0 100.0" fill="none"/><path stroke="black" stroke-width="0.75" d="M 120.0 70.0 C 136.5 70.0 133.5 85.0 150.0 85.0" fill="none"/><path stroke="black" stroke-width="0.75" d="M 120.0 70.0 C 136.5 70.0 133.5 70.0 150.0 70.0" fill="none"/></svg>