<svg xmlns="http://www.w3.org/2000/svg" viewBox="-100.0 -100.0 200 200"><circle stroke="black" cx="-13.086925469491868" cy="-9.505945863298669" r="2.5" fill="hsl(180,90.0%,90.0%)"/><polyline stroke="black" stroke-width="1" points="-13.086925469491868 -9.505945863298669 -12.9769237565405 -9.804942392916669 -12.860243202807277 -10.103191063605129 -12.73679059265895 -10.400645584457694 -12.607383691701886 -10.696173931679496 -12.470562845257907 -10.991377469675552 -12.32722273703364 -11.285034818819524 -12.177250805833044 -11.577139883163651 -12.020618310092816 -11.867584976639314 -11.857249135860252 -12.15630586227293 -11.687580160426982 -12.44274687169121 -11.51052526230396 -12.727792315156236 -11.327563755406215 -13.009944526849342 -11.138072539166634 -13.289666075919891 -10.941587302949241 -13.567208170509511 -10.739549467275518 -13.841285790086495 -10.529665972789887 -14.113573370957093 -10.314265681720705 -14.382159254990508 -10.092481348073381 -14.647601274646844 -9.863984534680531 -14.909999742291902 -9.628961937165716 -15.16909075922461 -9.388044331511237 -15.424358793547297 -9.140749363140088 -15.676000084089578 -8.88748546467011 -15.92366149932623 -8.628210381929678 -16.16726797541361 -8.36209065584455 -16.407139960426967 -8.09066293330797 -16.642363643161662 -7.813498232796528 -16.873075922660064 -7.530163453921609 -17.099371168473517" fill="none"/><polyline stroke="black" stroke-width="1" points="-13.569678821646734 -1.1099737282260784 -13.634215549781072 -1.3740217225611886 -13.69355347828523 -1.641186185938219 -13.747612019446356 -1.9112241065882465 -13.79640401483495 -2.183380452688467 -13.839713348907228 -2.458481998382165 -13.87738868727102 -2.7366682606583193 -13.909751799944152 -3.015813438575554 -13.936286044583726 -3.2980142900511487 -13.957148889708817 -3.582064801408107 -13.972198306979221 -3.8681622890241054 -13.981332960554257 -4.156288076919436 -13.98473678009092 -4.445505740395137 -13.982146567769322 -4.736404635741009 -13.97325694325245 -5.02953224358747 -13.958713114737 -5.32279722542035 -13.937790917043117 -5.617931083766177 -13.910374047380298 -5.914859898041117 -13.877092956710817 -6.211832138771297 -13.837521961632723 -6.509656854583328 -13.791385224016402 -6.808671251804445 -13.739176387015148 -7.1076432299162535 -13.680427271570334 -7.407314254514543 -13.61524206684309 -7.707269181451032 -13.543519755515051 -8.007489783816078 -13.465260495224491 -8.30777769859105 -13.38046682680102 -8.607943641398943 -13.289471908226238 -8.907316298184304 -13.191289626655337 -9.207202152423303 -13.086925469491868 -9.505945863298669" fill="none"/><circle stroke="black" cx="2.8010184497216764" cy="-21.128139166626074" r="2.5" fill="black"/><polyline stroke="black" stroke-width="1" points="2.8010184497216764 -21.128139166626074 3.212051198594001 -21.162337317760347 3.626067568444429 -21.188394826310134 4.042252071964525 -21.206322411184516 4.460229560953149 -21.216091958659433 4.879401616253143 -21.217746400989288 5.300507789679769 -21.21103202100345 5.723496708125324 -21.195839460424267 6.147652049848082 -21.1722456312484 6.572695993560348 -21.140238574540277 6.9988769938996525 -21.099643889725765 7.425867261762306 -21.050458468090643 7.85392616355993 -20.992475509120457 8.281288154008212 -20.926255078057224 8.71018239773044 -20.85083047742384 9.138325201079297 -20.767011543746356 9.566171694197095 -20.67453228044353 9.994432681349062 -20.572949089897946 10.422283685540137 -20.462520315339336 10.849265396659716 -20.343372735384893 11.275351015477378 -20.215422217122967 11.700503078888588 -20.07857934966811 12.124958902810208 -19.932576368517843 12.54689557902231 -19.77841175405103 12.968892762168963 -19.61435022705274 13.387867845461463 -19.442260311019364 13.805605591832641 -19.26084488943837 14.220234611962397 -19.071314647309062 14.633946383554122 -18.871930856254835" fill="none"/><polyline stroke="black" stroke-width="1" points="-7.530163453921609 -17.099371168473517 -7.241396040118461 -17.32194735684186 -6.946698554256052 -17.539763784126503 -6.646895485547813 -17.752391644368604 -6.341661820263394 -17.959874305044956 -6.029830572420688 -18.162501773952517 -5.714021892793154 -18.359283364976584 -5.391842256555597 -18.55089782500338 -5.065003543783229 -18.73671235894377 -4.732949636034988 -18.916795533882034 -4.395917117117163 -19.090982938433527 -4.053879583453394 -19.259178726719757 -3.70778157389171 -19.421093827962075 -3.355685791740086 -19.57700089470305 -2.9996699008024192 -19.726405396340564 -2.639566659818715 -19.869265516217805 -2.275510197857585 -20.005485480153684 -1.9063873400987934 -20.13509105116937 -1.5332913650632731 -20.257849515976243 -1.1562081124620145 -20.3736671720167 -0.775130250970427 -20.48244181886898 -0.39105783549220385 -20.584044276892755 -0.0030003501995656038 -20.678413575434394 0.3890454302376051 -20.765424853530508 0.7830759064876681 -20.845020586107875 1.181116265381179 -20.91705900969294 1.5821107991394754 -20.981469384289646 1.9861083991265769 -21.03814823384985 2.392012446321826 -21.087109722235915 2.8010184497216764 -21.128139166626074" fill="none"/><circle stroke="black" cx="24.82074889447059" cy="-9.472904164913578" r="2.5" fill="hsl(180,90.0%,90.0%)"/><polyline stroke="black" stroke-width="1" points="24.82074889447059 -9.472904164913578 25.08289671330269 -9.03496279570585 25.337135681318024 -8.591046005375661 25.583688012434205 -8.140218911824823 25.822155395386492 -7.68334378617228 26.052447079643912 -7.2204010561985745 26.274461235632703 -6.751375472985817 26.488032055066878 -6.276481506365616 26.69310586438216 -5.795457213446278 26.889319944403947 -5.309458086987785 27.07660275236672 -4.818463177251342 27.255025827836075 -4.321479766698946 27.424167258449543 -3.8204412285211062 27.584212517896237 -3.313385884188037 27.73479028237528 -2.8022819259777707 27.87582288948288 -2.2872316201430536 28.007301614642472 -1.7672083257060867 28.12904386597206 -1.2431345205647184 28.240948430192265 -0.7150746556975519 28.342909102178492 -0.18301878495760987 28.434820914017035 0.3520349240902503 28.516581238130176 0.8910806580337375 28.58810215753938 1.4331053799676043 28.649287901821765 1.9781579736029413 28.700037265514375 2.5261793202553946 28.74034547950918 3.0761440097070265 28.77000936506241 3.629127324057544 28.789030258694552 4.184149736083715 28.79733699365101 4.7410554810188374" fill="none"/><polyline stroke="black" stroke-width="1" points="14.633946383554122 -18.871930856254835 15.045003127815406 -18.665003880403756 15.453801297024233 -18.448956599204237 15.859388024275022 -18.22444588904647 16.26202578499932 -17.991134854691456 16.662271471798068 -17.748354349078706 17.05846010836567 -17.49749768751631 17.45055153045213 -17.238532679832847 17.839970522599092 -16.96987441571148 18.224643759690274 -16.693505659702033 18.60555594059172 -16.408254085972573 18.982024518240255 -16.11471870718679 19.354089229138914 -15.812706945117581 19.721691189008702 -15.50211539274988 20.08415783886842 -15.183631327044138 20.44163847118733 -14.85691763244228 20.793944845327392 -14.522056618448064 21.140981231753507 -14.17899947594708 21.482185238591377 -13.828406671042968 21.818080705541437 -13.469284513303636 22.147427496525424 -13.103436218535835 22.47112449963603 -12.729203463944428 22.788791229552235 -12.346970488438668 23.09969039095466 -11.957875054318334 23.403770430538913 -11.56187462385524 23.701534658943668 -11.157722455267278 23.991914454890125 -10.747409638893927 24.275581122076634 -10.329247267144371 24.55170279435928 -9.90488009849009 24.82074889447059 -9.472904164913578" fill="none"/><circle stroke="black" cx="18.900406926785937" cy="16.238267826400143" r="2.5" fill="hsl(180,45.0%,45.0%)"/><polyline stroke="black" stroke-width="1" points="18.900406926785937 16.238267826400143 18.84812459483598 16.82158029909243 18.7804570879229 17.408631114710715 18.697912735318152 17.998352896772634 18.59946400070117 18.591321340688605 18.484823157295178 19.187267823175574 18.354562040788277 19.785111322685506 18.207993273716664 20.384999472817963 18.045320493075895 20.986240167876847 17.866740127320075 21.58819379986229 17.672030656966907 22.19059471329306 17.459998158604915 22.793908687225276 17.23191546767518 23.396656740684715 16.987447532075766 23.998661062126356 16.725946790076534 24.599928053259188 16.447600672438625 25.199857914420594 16.152829084269765 25.797735765279576 15.841865482458534 26.393010590820595 15.513027553642004 26.986262038654473 15.16760339237589 27.57627283435714 14.806143768797163 28.162346793585915 14.427385381786745 28.744753888455996 14.031910316888876 29.322763742119097 13.61914678338886 29.89622848757915 13.190903182501204 30.463919102890063 12.745072350541909 31.026377203314603 12.283859232042612 31.582280037585374 11.804749807073279 32.13222916538061 11.309986775039159 32.67496179260871" fill="none"/><polyline stroke="black" stroke-width="1" points="28.79733699365101 4.7410554810188374 28.558144984603622 5.256404529202958 28.30992005538666 5.763884772585847 28.05262925636867 6.26448240783085 27.78661459499881 6.757285205099283 27.5120319023657 7.242331095684997 27.229028480360718 7.719648395864672 26.937744207396342 8.18925538386804 26.63886230552066 8.649467285306729 26.33200817982446 9.1020446130521 26.017490810025322 9.546462364684162 25.69585521866449 9.981683037582608 25.366955367907117 10.40855639061857 25.031253964106494 10.826337977022808 24.688756339645874 11.235420632342265 24.34008692063126 11.634815494773566 23.9850628181541 12.025315803306349 23.623636432255648 12.407306519824882 23.25683346328791 12.779140994719207 22.88408378547778 13.142223924606084 22.506038577734245 13.495683018933347 22.12305022610412 13.839258385820148 21.73488542158159 14.17362586618779 21.34244217457974 14.49768485510341 20.945095907215936 14.812655074679434 20.543849419630146 15.117355320282895 20.138326477378303 15.412581698741105 19.72904185329325 15.697890358136302 19.316121759977353 15.973370954670557 18.900406926785937 16.238267826400143" fill="none"/><circle stroke="black" cx="29.51946531730697" cy="25.36162241222573" r="2.5" fill="hsl(180,45.0%,45.0%)"/><polyline stroke="black" stroke-width="1" points="29.51946531730697 25.36162241222573 28.92016836422737 25.81068116110662 28.314455180037143 26.246214516272598 27.703610500033836 26.66711334856706 27.086602964000182 27.074744719116197 26.463537681911227 27.469182730652037 25.83573091422413 27.84936034458051 25.202676551982663 28.21598956582319 24.56512205862277 28.568600456460647 23.923763933124228 28.906831829982497 23.27870995399756 29.23084664488244 22.628807232951264 29.541753732345594 21.97612900528185 29.838119145262542 21.32060633608552 30.12024049714415 20.661794425358014 30.3886328645144 20.000297565447948 30.64305043227277 19.33696713581969 30.883132983656115 18.672388130840105 31.10874399475672 18.00489146011596 31.321076252852396 17.336309486096976 31.519204976691967 16.667539979869854 31.70285581707452 15.997420091306559 31.872850915548195 15.326876122961226 32.02887969697088 14.655542798479424 32.17128525608063 13.985604295140059 32.29925289857154 13.315030834199188 32.4138739877819 12.64635320730203 32.51426615223549 11.977172357481914 32.60155896851544 11.309986775039159 32.67496179260871" fill="none"/><polyline stroke="black" stroke-width="1" points="28.79733699365101 4.7410554810188374 29.032928239978233 5.343793008226589 29.256027040626915 5.956511655134241 29.466090524810546 6.580124951329484 29.662963378751716 7.213584904104054 29.84630124186317 7.856809571253098 30.01575058205183 8.50970650673545 30.170949186140685 9.172171439328284 30.312152200634365 9.842160892595256 30.4384303019761 10.521489613243403 30.54961893500251 11.209412527439664 30.645846592089406 11.904531859224734 30.726434142404855 12.607655030546734 30.791429438275454 13.317687654499377 30.840332935123264 14.03489540747595 30.87341972564758 14.757816739600052 30.889962452602056 15.487203700949204 30.889385413133578 16.2233309900783 30.872522491352754 16.96380198974264 30.83812784570197 17.710194795783643 30.786569180231652 18.46108001022974 30.717841118931958 19.21580143581912 30.631130971159102 19.97499328026429 30.527213553491237 20.736798440531434 30.40471820369887 21.502627889092484 30.26460716526758 22.27045237729193 30.105856508075888 23.041089018122968 29.928750014813975 23.813535385155873 29.73300759799543 24.587562962296012 29.51946531730697 25.36162241222573" fill="none"/><circle stroke="black" cx="-7.909968191169" cy="36.50485320083748" r="2.5" fill="hsl(180,90.0%,90.0%)"/><polyline stroke="black" stroke-width="1" points="-7.909968191169 36.50485320083748 -8.619207674722636 36.442878069641786 -9.328081299602148 36.367316962117435 -10.037255138232078 36.277922152998414 -10.74740758673164 36.17437188376698 -11.456373164711845 36.05717447860076 -12.164400387663754 35.9261824997386 -12.87267415694122 35.78087388604724 -13.578757691686143 35.621987699061755 -14.28380827821816 35.449005953791186 -14.98692128703299 35.262167661869974 -15.687692878768635 35.06154856439271 -16.386812464758272 34.84672771478717 -17.083862164865945 34.61774704085931 -17.777191138655983 34.37530327458496 -18.467932573738043 34.11872289046522 -19.154867373322645 33.848532733885975 -19.838716287485358 33.564211853859845 -20.517946093753643 33.266533938134955 -21.193972528662353 32.95451218501444 -21.86483592069285 32.62924745793847 -22.53095524957128 32.29036902145617 -23.191811363804376 31.938117352672204 -23.84780832333378 31.572070137793894 -24.498384410163663 31.192489449009095 -25.142232822243482 30.800285216971563 -25.780999915702157 30.39399990061872 -26.41293612778804 29.974927514119805 -27.03800009272046 29.543000101310778" fill="none"/><polyline stroke="black" stroke-width="1" points="11.309986775039159 32.67496179260871 10.722068651884006 32.97321112279158 10.126042733065761 33.26114036584044 9.523997198175547 33.53799013360053 8.914300936943151 33.8041411904296 8.298271076906998 34.05911259789089 7.675216384723927 34.30296709170034 7.047231131594133 34.53513266616599 6.41235747586717 34.75593757272107 5.771346277520444 34.96509788614579 5.125338097390609 35.16231951302514 4.473211370581058 35.34767026705971 3.817189153218011 35.5207601606368 3.1551538658013136 35.68174007346776 2.488164330324004 35.83036640950497 1.8181223628584087 35.96642060387229 1.142062302381503 36.08996879889985 0.46302255121986774 36.20076313522233 -0.22001058902887544 36.29874704536871 -0.9060454178634035 36.3838238330095 -1.5960818987332661 36.45587063685634 -2.289112896728165 36.51480087297317 -2.984129779624063 36.56059001785398 -3.682207898582146 36.59306605568153 -4.383133474137565 36.612114903411 -5.085117005211596 36.61784255257292 -5.7891637366112745 36.61003545234105 -6.495105737782638 36.588595648035614 -7.202109087147831 36.5535536604436 -7.909968191169 36.50485320083748" fill="none"/><circle stroke="black" cx="-34.43255694032729" cy="10.01333628473143" r="2.5" fill="hsl(180,45.0%,45.0%)"/><polyline stroke="black" stroke-width="1" points="-34.43255694032729 10.01333628473143 -34.950524054231366 9.45365064853757 -35.45959028881269 8.877633274107506 -35.95923322992171 8.28578588705347 -36.44900455115335 7.678415736986517 -36.92858398201269 7.055246085958701 -37.39758607265754 6.416205415833484 -37.85532847594181 5.763078884463491 -38.30173091916594 5.094087709865964 -38.73618563715364 4.410794093354724 -39.15840846118266 3.712492799613006 -39.567941214611444 2.9999117132097077 -39.964414301754736 2.2729783363906493 -40.34739692037255 1.5327472067863692 -40.716546814111126 0.779096614225193 -41.07149849445712 0.011120692748799675 -41.41185465621188 -0.7693210856217247 -41.73727312509474 -1.5622273622121414 -42.04734298612231 -2.3685319941667404 -42.341778535379206 -3.1863415872910568 -42.62015548054953 -4.016569159591804 -42.8821767751421 -4.858230879184724 -43.12747786270463 -5.711275619502365 -43.35565805650768 -6.575786396863901 -43.56665960386478 -7.449682675186692 -43.759787989103515 -8.334963551132775 -43.93503939470203 -9.229493452296317 -44.09186955921824 -10.134118660390982 -44.23029593981033 -11.047073914697831" fill="none"/><polyline stroke="black" stroke-width="1" points="-27.03800009272046 29.543000101310778 -27.490811186368067 28.923152326750486 -27.92906395917154 28.297591653269848 -28.35437748691257 27.66496307170709 -28.76583565855773 27.026356234635994 -29.16262930721098 26.382879732564177 -29.545827997032127 25.733618639971457 -29.91504138196137 25.079212493756213 -30.269976367109475 24.42024531794506 -30.61076026060777 23.756813506716835 -30.937167366168126 23.089461205562408 -31.249984731407423 22.417369158338243 -31.547467440103954 21.7432163376933 -31.831680044869213 21.064334967422244 -32.1008668593598 20.38357287355892 -32.35587473436733 19.699960180469876 -32.59657158420962 19.013986358115538 -32.82308929834293 18.32571393222778 -33.035170301596104 17.63590263944321 -33.2333085396031 16.94393783729905 -33.416721171951416 16.251664216531736 -33.58608332408026 15.55810396596302 -33.741201606726094 14.863996272462263 -33.882050541035035 14.169789405025963 -34.0087694916997 13.475563754878802 -34.121378654046175 12.78168261265697 -34.22011818801972 12.087919766543186 -34.304664416631546 11.39563181120043 -34.375519047959195 10.70383005919235 -34.43255694032729 10.01333628473143" fill="none"/><circle stroke="black" cx="-47.87564785654308" cy="13.922723272272632" r="2.5" fill="hsl(180,45.0%,45.0%)"/><polyline stroke="black" stroke-width="1" points="-47.87564785654308 13.922723272272632 -47.982219322542946 12.978550424966034 -48.07037635202232 12.034859092441959 -48.14005014451925 11.092509830203975 -48.19128097773769 10.152065736821097 -48.22428213990361 9.213301489746954 -48.23918017974253 8.2762691828103 -48.23572488238682 7.343385957491883 -48.21444370137199 6.412467510033145 -48.17519051199389 5.485590340436915 -48.11823141716588 4.561947093519475 -48.043616285468076 3.6425096382448627 -47.95150652024728 2.727244660583739 -47.84199097639014 1.8174574726810795 -47.715265694839395 0.9130146060623493 -47.571498256189 0.012880660192579373 -47.41081957417879 -0.8807657490305552 -47.23342439915459 -1.767948466258848 -47.03942910785407 -2.6497368184729972 -46.82909065127729 -3.524024833121038 -46.602510170502526 -4.391870536366951 -46.35992911170779 -5.252234287179963 -46.101513206307835 -6.105120481089968 -45.82738981348907 -6.950675875950359 -45.53804626889633 -7.786780015632706 -45.23329728800815 -8.615624104188553 -44.91367884306266 -9.435077571606165 -44.57916407375929 -10.246118910829086 -44.23029593981033 -11.047073914697831" fill="none"/><polyline stroke="black" stroke-width="1" points="-27.03800009272046 29.543000101310778 -27.823398776107428 29.273068575303686 -28.6072983872503 28.984775474360966 -29.390987810025603 28.67636902910852 -30.17317108823077 28.348589633847283 -30.952615208795862 28.002246157553234 -31.730058648654115 27.636024577494098 -32.504701601817416 27.25024873305621 -33.275825706681296 26.845208501625812 -34.043159196646755 26.420676171672167 -34.80603355065332 25.97692774763088 -35.5649148439738 25.512710869933183 -36.31738918595541 25.0307525125329 -37.06538009786798 24.527690055183356 -37.80641455976816 24.006510778767872 -38.541019150375924 23.465801768934266 -39.26857956951525 22.90585174911553 -39.988788924739715 22.326451348624737 -40.70086051605685 21.72824922195289 -41.40492242379661 21.110219311175985 -42.099514169938075 20.474395571257638 -42.784981146541305 19.819315590823983 -43.460580241217365 19.145669743300616 -44.12576820011355 18.453807628122977 -44.780209299940495 17.743616555295898 -45.423409027774284 17.015361637770784 -46.055161790298506 16.26853237319313 -46.6745005491167 15.504755177594394 -47.281565850755875 14.72250775596795 -47.87564785654308 13.922723272272632" fill="none"/><circle stroke="black" cx="-34.04027328120269" cy="-34.450276572780055" r="2.5" fill="hsl(180,90.0%,90.0%)"/><polyline stroke="black" stroke-width="1" points="-34.04027328120269 -34.450276572780055 -33.45298564393876 -35.15698491268214 -32.85094313796114 -35.85393794004625 -32.234542303603966 -36.540614747586055 -31.603757724258553 -37.21689230345241 -30.959623996955784 -37.88176351395983 -30.300890617425008 -38.536132671368755 -29.628700020019092 -39.17892565763156 -28.94284971353803 -39.81016875980359 -28.243913188878572 -40.42930716991761 -27.53115127178906 -41.03671603479347 -26.805872995741975 -41.6313558221503 -26.0689698609556 -42.212570461899524 -25.318767731805526 -42.781297241750586 -24.556824233711623 -43.336454559695966 -23.781881991308936 -43.8786273130929 -22.99584209890918 -44.40662615360132 -22.198681756786748 -44.92037957622779 -21.390761017016505 -45.419615889240546 -20.570437597845142 -45.904976543095955 -19.74045586822275 -46.375070943919056 -18.899547694999644 -46.830357109325284 -18.0485232632209 -47.270370463718365 -17.18824549869865 -47.69468122032428 -16.3172403282312 -48.10370849475429 -15.438135188906996 -48.49642467426054 -14.549098571913474 -48.87333112276635 -13.651931652219908 -49.2337535134336 -12.745945279081207 -49.57778715254108" fill="none"/><polyline stroke="black" stroke-width="1" points="-44.23029593981033 -11.047073914697831 -44.10885679453199 -11.90423123429103 -43.97065239107503 -12.761189337332464 -43.81604073323606 -13.61632341946234 -43.644651600409944 -14.470547594297646 -43.45646223880769 -15.323515611212764 -43.25189558184016 -16.173708838037015 -43.03019395968929 -17.02286793673495 -42.79240130746421 -17.868002667923896 -42.5377574942572 -18.71077305617717 -42.26617863346946 -19.55100776746943 -41.978267982969385 -20.387101465142315 -41.6739638892098 -21.218999947236856 -41.35338717950796 -22.046272650534522 -41.01582421381938 -22.870017163549907 -40.66220261833448 -23.68828316331751 -40.292251766541526 -24.501369279728653 -39.90588491125516 -25.309195452436995 -39.50392673641367 -26.11027348390018 -39.085382838990235 -26.90595193130263 -38.650748574616465 -27.695252943813006 -38.200602205164216 -28.47719438713726 -37.73452901281914 -29.252185306070903 -37.252820141376844 -30.01966089938772 -36.75599291833028 -30.778831452601537 -36.242958460375 -31.530833846245354 -35.71453866507555 -32.27448678044041 -35.17166455379652 -33.0086236840498 -34.613269400539636 -33.734262559090666 -34.04027328120269 -34.450276572780055" fill="none"/><circle stroke="black" cx="13.681931797260482" cy="-45.02928587369682" r="2.5" fill="hsl(180,45.0%,45.0%)"/><polyline stroke="black" stroke-width="1" points="13.681931797260482 -45.02928587369682 14.63627154019399 -45.09582324549245 15.597330492164119 -45.14247695378832 16.566044828980957 -45.16853637631543 17.540448709390166 -45.17430801692424 18.521488086424505 -45.1590434056193 19.507949300940364 -45.12281311333233 20.499672343694527 -45.06528331613666 21.49683651953621 -44.98593862552699 22.49709658898751 -44.8854762442049 23.501745266376343 -44.76286776676361 24.509527581939228 -44.61832356867279 25.520267535519892 -44.45151757604512 26.53308702332338 -44.26252187653983 27.548065109482653 -44.05085798226528 28.564054016201577 -43.81679562944125 29.581532596376807 -43.55957783973608 30.59855781531378 -43.28006046246215 31.616637120596184 -42.976731649953216 32.63275971464127 -42.65131161032718 33.64884681910459 -42.30190337795093 34.663004538386666 -41.9294755683193 35.674535508813584 -41.53414926459262 36.683675570197316 -41.11524741303709 37.69016947323882 -40.67245607233581 38.6917284986116 -40.207387241665 39.69011620774131 -39.71786945434663 40.683553835326904 -39.2050750783717 41.67129011198165 -38.66926921216718" fill="none"/><polyline stroke="black" stroke-width="1" points="-12.745945279081207 -49.57778715254108 -11.776449459566926 -49.67069897563281 -10.808573844097966 -49.7446012423448 -9.840699466717252 -49.79999299307569 -8.875874776181442 -49.83639318774475 -7.912992420743781 -49.85419626226448 -6.952101527983923 -49.853527833572706 -5.994326238326484 -49.834367150167225 -5.039674137632688 -49.796871871599166 -4.088158573099499 -49.74117926318087 -3.1407503344282888 -49.667346998285346 -2.197471586347707 -49.57552852707641 -1.2593192793949204 -49.46583456047893 -0.32625894560040947 -49.33843853135993 0.6026250603892962 -49.193481443673775 1.524539636902812 -49.03113182874731 2.441324698875789 -48.85151894595525 3.352068537680929 -48.65480439104465 4.255863490473944 -48.44120031607621 5.1536285891662805 -48.21077480062132 6.043669025187957 -47.96383758337822 6.925797292486016 -47.70059185663614 7.800268449855235 -47.42116561641382 8.666973701683167 -47.12571730979314 9.525224250679864 -46.8145150672459 10.374700443146873 -46.487782112302504 11.215971526448504 -46.14553476580951 12.04764130094685 -45.7882447838627 12.86933491552413 -45.416190829193674 13.681931797260482 -45.02928587369682" fill="none"/><circle stroke="black" cx="17.752031775196965" cy="-58.42459423780705" r="2.5" fill="hsl(180,45.0%,45.0%)"/><polyline stroke="black" stroke-width="1" points="17.752031775196965 -58.42459423780705 18.8038156371274 -57.93644535659421 19.84273978331407 -57.429726440578186 20.87020086981791 -56.904133539482146 21.883922997800298 -56.36064929126056 22.88531754049845 -55.79892087181959 23.87310129590834 -55.21961696706877 24.847319165898536 -54.622896360688074 25.8084240945131 -54.00869943269155 26.75385204091317 -53.37841643135453 27.68542335697983 -52.73135806507008 28.60192004107263 -52.06831175392705 29.50341942445121 -51.3894207916934 30.38919465408443 -50.695284419956636 31.25963473669014 -49.98586016443765 32.11373806802989 -49.26195339870705 32.952354744630995 -48.52320131909458 33.77363380575813 -47.77103947097508 34.57956855577966 -47.0042665424652 35.36718666332867 -46.225232323254666 36.13892320204011 -45.43232181757634 36.893068844262864 -44.627032461446284 37.629240823539355 -43.80991883389942 38.34804924668668 -42.9806857703701 39.04957747575673 -42.139429106406396 39.73182140434619 -41.288223375147126 40.396975810550096 -40.42522332753672 41.043588698928374 -39.55202593511004 41.67129011198165 -38.66926921216718" fill="none"/><polyline stroke="black" stroke-width="1" points="-12.745945279081207 -49.57778715254108 -11.887819560280079 -50.140435696059605 -11.013579261617405 -50.688103400364795 -10.121456261721297 -51.220795088622666 -9.214464465994482 -51.73751159425055 -8.291379483428354 -52.23814684418672 -7.352156146094965 -52.72231994753538 -6.397897495099224 -53.18949287767217 -5.428546991669765 -53.639313100532206 -4.44405392187329 -54.07140619194403 -3.445417675614351 -54.485309886917065 -2.432625608993459 -54.88066422501148 -1.4067544516965413 -55.25706158351939 -0.36775826006141676 -55.614163391133445 0.6854126272639709 -55.95159507437029 1.7495892462418277 -56.26901321694555 2.8268526386783197 -56.566029622937776 3.9161448534366565 -56.842292951079706 5.016374791375681 -57.0975118618016 6.128585316117581 -57.33122622434409 7.250721578454927 -57.54326232987125 8.382480907417595 -57.73332421157906 9.524092103078548 -57.90102633896515 10.675345763133993 -58.04601974505234 11.83530622347723 -58.16809210396254 13.00346962247766 -58.26697993126123 14.180440736492821 -58.34216139522715 15.364341453859923 -58.393689674085586 16.55454455204609 -58.42138380897778 17.752031775196965 -58.42459423780705" fill="none"/><circle stroke="black" cx="58.53912527932987" cy="-11.953025580618561" r="2.5" fill="hsl(180,90.0%,90.0%)"/><polyline stroke="black" stroke-width="1" points="58.53912527932987 -11.953025580618561 58.85274647660292 -10.8659531921018 59.1461960081417 -9.771032380812777 59.4192265446808 -8.66903305198401 59.671709140676654 -7.560089844371899 59.903427259848904 -6.445045969145555 60.11426290498 -5.3241118511156245 60.30412121875797 -4.197078035174489 60.4728031898109 -3.065040709365829 60.62023582728748 -1.9270392853590947 60.746200667335536 -0.7860155358387644 60.850649334944606 0.36000975793488893 60.93345984567819 1.5090361535339127 60.99450699748901 2.6620657719298233 61.03375363466238 3.81710967399899 61.051046081726135 4.975166739120829 61.04634228255122 6.135134898901658 61.019626181093955 7.2961944445452405 60.97068327224167 8.459233541634148 60.89966097062752 9.622262436523004 60.80631364934278 10.786233023958737 60.690835378547014 11.949361365951956 60.55302373870462 13.112221681561218 60.392884312001314 14.274209012278227 60.21028775311844 15.435330124555849 60.0054098573017 16.594389893541507 59.77842779507169 17.75042396511238 59.52898536070488 18.904312915917973 59.25725291251867 20.055085595972827" fill="none"/><polyline stroke="black" stroke-width="1" points="41.67129011198165 -38.66926921216718 42.467415145804374 -37.94337092041479 43.25063630683143 -37.20154731214881 44.02088895060993 -36.44373593882502 44.77808704807937 -35.669865933804026 45.52212232017484 -34.879859941683584 46.25203412971201 -34.07476186322041 46.96740517703935 -33.254994927336085 47.6684999172703 -32.420020114921975 48.35443406275071 -31.57093630924741 49.025582222826856 -30.706991019380737 49.68138108930459 -29.828829209576835 50.32146224340616 -28.936840848076322 50.945732010301015 -28.030952972847388 51.55324805926561 -27.112656373813028 52.14453343389872 -26.180769907743485 52.71868850885914 -25.23680830110912 53.276014281315966 -24.2799179850597 53.81600975357833 -23.31087054216209 54.338201074532634 -22.33049358621774 54.84255941182171 -21.338606749137536 55.32890796979112 -20.335333711063157 55.79657547634172 -19.32219928586054 56.24580170566441 -18.29826081625473 56.67654674026558 -17.263166532168903 57.08795324821873 -16.21927082755898 57.48010126449217 -15.166026718463607 57.85274882871023 -14.103938766876896 58.205798043578284 -13.032954779609588 58.53912527932987 -11.953025580618561" fill="none"/><circle stroke="black" cx="42.075862244436074" cy="50.1748357285526" r="2.5" fill="hsl(180,90.0%,90.0%)"/><polyline stroke="black" stroke-width="1" points="42.075862244436074 50.1748357285526 41.185971062905544 51.03796414093558 40.27896774820454 51.884958455165034 39.35416747492795 52.71622433827061 38.41325871790006 53.53036053339208 37.45439511362266 54.328573122574134 36.479770818448706 55.10916445799146 35.488872838877555 55.87237416537782 34.48238593453633 56.61763367715456 33.459690555117625 57.34518351393243 32.422491830474044 58.053880643837815 31.370440836044786 58.74382550308506 30.303468119845927 59.414917825711164 29.222702971045273 60.06644493723341 28.12769845352559 60.69850723623716 27.019628612427972 61.31042638881332 25.89846450176273 61.902110244946144 24.76451744680196 62.47330536006347 23.618262611382374 63.02370076031635 22.459445563849044 63.55326080741505 21.289451969425727 64.06136000570305 20.108279761603953 64.54789803920086 18.916195560195195 65.01267211669537 17.71408396698925 65.45531026641535 16.502164050445096 65.87565487959466 15.280151615568505 66.27365759283843 14.048992445902536 66.64896416306915 12.810037011728758 67.001193584921 11.56191632950863 67.3305127471152" fill="none"/><polyline stroke="black" stroke-width="1" points="59.25725291251867 20.055085595972827 58.96335362177556 21.203127161821943 58.647572171397954 22.34621801186862 58.30936436004607 23.485549530007575 57.94923735531144 24.61952568596694 57.56696810828845 25.7484330134491 57.1626465705163 26.87177404167778 56.736524861856545 27.988752231138463 56.288323087456476 29.099684003800103 55.818330123366465 30.2037197397932 55.32686008467165 31.300052305289434 54.814068855558084 32.38822243349923 54.27943817524156 33.4688867837611 53.723929421638076 34.54024046561851 53.14713262111242 35.60275873211238 52.54927023608591 36.65588605662878 51.93054802666051 37.69912379420069 51.29122661654605 38.73192626409524 50.63134852080558 39.75405881389659 49.95119789082793 40.76497759402822 49.25119377395248 41.76401229607263 48.530762673686915 42.751671853756214 47.79080340495599 43.726735084434104 47.03071974794066 44.68968392123582 46.25189237132782 45.63888054404572 45.45426942594408 46.57427606467898 44.6372688102406 47.496286027537415 43.80129605706202 48.404327169380366 42.947885978128 49.296869122282196 42.075862244436074 50.1748357285526" fill="none"/><circle stroke="black" cx="-23.63094390434626" cy="59.760452300745186" r="2.5" fill="hsl(180,45.0%,45.0%)"/><polyline stroke="black" stroke-width="1" points="-23.63094390434626 59.760452300745186 -24.889077957815854 59.62912059899732 -26.15006531966525 59.47171741909967 -27.4141838506486 59.287724570966965 -28.680099692867053 59.07734017884696 -29.948414629068232 58.83985885609695 -31.217845375208512 58.57547912846785 -32.48748371789659 58.284268294964505 -33.75755130974702 57.965679247032014 -35.02704704511473 57.619838044716175 -36.29522922430184 57.24675907468813 -37.561750816443755 56.84622327475578 -38.8261603244965 56.41806841302255 -40.087175983571804 55.96272190183518 -41.34565861640115 55.479104125571574 -42.599235697383115 54.96848157807163 -43.84873256940567 54.4297682987604 -45.09274273297245 53.86358289065034 -46.33113221400107 53.26955029628796 -47.562542540893865 52.64835180749406 -48.78727370441315 51.99922820091348 -50.004533992857134 51.322369442156464 -51.21308188436159 50.61845802576048 -52.41313631588799 49.886751974167886 -53.60347295536862 49.12796767751608 -54.784276630616475 48.341338449199874 -55.95340729280469 47.52871171539904 -57.11199664882902 46.688222581119376 -58.25835820727796 45.821281736683105" fill="none"/><polyline stroke="black" stroke-width="1" points="11.56191632950863 67.3305127471152 10.269632916550202 67.39832734103493 8.979271592689443 67.44134983694211 7.690018981256243 67.45983069005011 6.4048064086428775 67.4535753757534 5.12161423148933 67.42296149054037 3.841600462282864 67.36800525256652 2.565668176756817 67.28879397717789 1.2948133742055858 67.18545522388816 0.028090638740639412 67.05816653021479 -1.2335319596891632 66.90704375093436 -2.4890906185061 66.7322501833185 -3.738551205324272 66.533944483373 -4.981063987265899 66.31232424765032 -6.217465352039331 66.06746814469594 -7.446030070751061 65.79965653760877 -8.666703741759495 65.50905599461863 -9.878433208386497 65.19596459994108 -11.08150182381459 64.86050953205691 -12.276698746900104 64.50267629262491 -13.461314977372762 64.12309916606816 -14.636478573186501 63.72172058294075 -15.800276581938402 63.299129815854144 -16.954480959500764 62.85505240061878 -18.09736887026981 62.39006173413047 -19.228133706811782 61.90456387567008 -20.347921394579405 61.39836240175147 -21.454867702427425 60.87220370353847 -22.54953253947488 60.32606319167513 -23.63094390434626 59.760452300745186" fill="none"/><circle stroke="black" cx="-28.77905735471191" cy="72.77955088329553" r="2.5" fill="hsl(180,45.0%,45.0%)"/><polyline stroke="black" stroke-width="1" points="-28.77905735471191 72.77955088329553 -30.089148412516987 72.0874217378422 -31.382734969728332 71.37210263695327 -32.66039549095398 70.63352835144563 -33.92078730710172 69.87248692773404 -35.164881136713824 69.08868694396203 -36.39142426978167 68.2829031648241 -37.599635905735305 67.45574036919423 -38.79005795262289 66.60708404540885 -39.961824030901525 65.73759488392668 -41.114388350022395 64.84779224926277 -42.24766674716617 63.93792207618565 -43.36146312058878 63.00829060561649 -44.45466853687427 62.05985309583515 -45.5285669471784 61.09188221634929 -46.5808734184045 60.10623994710181 -47.612841524501654 59.10218563608871 -48.6232861729962 58.08084065110384 -49.6124203493855 57.04223477455876 -50.57915177027784 55.987523674468775 -51.52417249994283 54.91631321562049 -52.44701349847433 53.82921883225552 -53.34675285597664 52.727355411810194 -54.22400767659944 51.61033687632822 -55.077898364326515 50.47928914682653 -55.90901028439369 49.3337971173876 -56.71555954088485 48.176109545752496 -57.4991073938019 47.00467995759611 -58.25835820727796 45.821281736683105" fill="none"/><polyline stroke="black" stroke-width="1" points="11.56191632950863 67.3305127471152 10.342352587237233 67.8755775221196 9.106697955520797 68.39842144630909 7.854051473409772 68.8987873656208 6.587339701509065 69.3759634142613 5.304445165772153 69.82982043857278 4.006505845144756 70.25985900151538 2.694425029798674 70.66565051535855 1.369230227100803 71.04680716672068 0.029910685093250684 71.40299373521336 -1.3225206481056717 71.73380970738509 -2.6870270617790326 72.03890481239472 -4.063553793899691 72.3179241582893 -5.451152345000582 72.57055575859673 -6.850706506526085 72.7963580432527 -8.260283120481464 72.99511109498698 -9.679762985722455 73.16647186068381 -11.107901698649595 73.3102457290462 -12.544935334592374 73.4260491750094 -13.991684363461882 73.51333659733625 -15.444979131368738 73.57230182365905 -16.905998064232275 73.60235451704094 -18.3724173491258 73.60365021348834 -19.846166294062552 73.57534715125996 -21.325110131664125 73.51758960869431 -22.808146036263466 73.4303367511581 -24.296475967236894 73.31283660842405 -25.787718590624387 73.16545973948885 -27.28236512079188 72.98766302201899 -28.77905735471191 72.77955088329553" fill="none"/><circle stroke="black" cx="-69.58431995517206" cy="8.379139894777031" r="2.5" fill="hsl(180,45.0%,45.0%)"/><polyline stroke="black" stroke-width="1" points="-69.58431995517206 8.379139894777031 -70.08078670925856 7.101524586846326 -70.5536437563072 5.808716084466015 -71.00259278213979 4.49976943860713 -71.42711728216658 3.176486241313628 -71.82685798490462 1.8388653409392353 -72.20142958642641 0.48691826387758175 -72.55043200571272 -0.8784496837926169 -72.87350732771608 -2.256299295840815 -73.17029366536458 -3.646634711827454 -73.4404053401153 -5.04938715769916 -73.68350047752897 -6.463713816981244 -73.89930007464503 -7.888500712934994 -74.08742108110228 -9.323891516523616 -74.24747808447317 -10.769753866531758 -74.37935896245175 -12.224156810339911 -74.48255362785812 -13.687967999333887 -74.55702123325838 -15.159248844814824 -74.60217136449009 -16.639050772394373 -74.61811713311488 -18.12504027440489 -74.60441840011386 -19.617556308248073 -74.56075452681623 -21.11628944569465 -74.48673406758093 -22.62111940407544 -74.38271463405842 -24.12952388156758 -74.2479668282134 -25.64261900126173 -74.0826319991067 -27.15877788278055 -73.88636236326481 -28.67788161125256 -73.65913467932901 -30.19893932922268 -73.40059453074905 -31.72182476675282" fill="none"/><polyline stroke="black" stroke-width="1" points="-58.25835820727796 45.821281736683105 -59.00106607360994 44.63081334806412 -59.71907132052889 43.42943260800012 -60.41344659190891 42.21593332152702 -61.0828902054262 40.992379778801485 -61.72738846119043 39.759124376303006 -62.34765366100265 38.515334390121595 -62.943214706813926 37.26196085243122 -63.5133461462219 36.00050875560179 -64.05819300882177 34.731082680029715 -64.57806510751962 33.45341223488013 -65.0722989657554 32.169068049593264 -65.5414114809269 30.877351292019412 -65.98476783809329 29.579907472904736 -66.40255100138572 28.276730105610962 -66.79484280513755 26.9679738388606 -67.16148071701824 25.654379758399806 -67.50229036743183 24.336807592008046 -67.81741318516121 23.015304786083288 -68.10669040021664 21.69077099438154 -68.36992065047048 20.364392284163692 -68.60783271848085 19.034236862977856 -68.81966766456463 17.703424737172398 -69.0059318756286 16.370673585396492 -69.16638220827899 15.037536494858518 -69.30107677559316 13.704513653774924 -69.41013012908881 12.371840546504913 -69.49367847679814 11.03954628983459 -69.55168849038682 9.708684118344658 -69.58431995517206 8.379139894777031" fill="none"/><circle stroke="black" cx="-83.48390874299874" cy="10.052887644386495" r="2.5" fill="hsl(180,45.0%,45.0%)"/><polyline stroke="black" stroke-width="1" points="-83.48390874299874 10.052887644386495 -83.5120038834769 8.462555526605781 -83.50980747015433 6.87540339572017 -83.47756592490445 5.290367368847467 -83.41526845523502 3.7096198565148026 -83.32309111572023 2.133184558690025 -83.20117945491208 0.5610993312017334 -83.04966240523287 -1.0055756755964709 -82.86871758743547 -2.5657695916695493 -82.65851759386054 -4.1195053946961675 -82.41920790606962 -5.6667237608684955 -82.15098314156054 -7.206504052730715 -81.85410657360535 -8.737649442015291 -81.52872420559869 -10.260378467505776 -81.17497972182247 -11.774602643474255 -80.79331398728458 -13.278282485684933 -80.38373103169403 -14.772451862033867 -79.94674192189107 -16.25510964734623 -79.48226309064314 -17.727492201380088 -78.99096179136991 -19.187221800684846 -78.47291027247154 -20.634793071987268 -77.92830771169177 -22.070011389992136 -77.3572785687966 -23.492884433507356 -76.76072101268139 -24.90094183781987 -76.13839971299839 -26.295507589095454 -75.49097629466422 -27.6750785172665 -74.81860425113334 -29.039717295649933 -74.12176351071165 -30.388608948227773 -73.40059453074905 -31.72182476675282" fill="none"/><polyline stroke="black" stroke-width="1" points="-58.25835820727796 45.821281736683105 -59.38607940901461 44.9220531417235 -60.49993624451264 43.99730012238402 -61.600598355121 43.045495654178424 -62.68632383995031 42.06843496013731 -63.756663554300445 41.066197343943976 -64.81191938462703 40.03763736061611 -65.85117082903365 38.98345136878721 -66.87321369190232 37.904942206761184 -67.8777432844567 36.80196713981049 -68.86463105105408 35.6739844576976 -69.83270882805944 34.52241887995201 -70.7820616500056 33.34628494195026 -71.71153336491234 32.1471241192977 -72.62084117883487 30.92471441366009 -73.50959231055378 29.679009322915057 -74.37712188475125 28.41061438487164 -75.22274356762232 27.12028624189385 -76.04611646420335 25.80789307670886 -76.84656102546786 24.47426452693827 -77.6233409881097 23.12057921451443 -78.37677303569319 21.74448606529708 -79.10548035320903 20.34938507051225 -79.80952404272634 18.93367181047759 -80.4881033030519 17.49900388279541 -81.14075902086462 16.04584938095404 -81.76709608068582 14.57437801628671 -82.36674415066047 13.08452084742879 -82.93913046383298 11.577430199050116 -83.48390874299874 10.052887644386495" fill="none"/><circle stroke="black" cx="-47.942982243132626" cy="-67.69297492823512" r="2.5" fill="hsl(180,90.0%,90.0%)"/><polyline stroke="black" stroke-width="1" points="-47.942982243132626 -67.69297492823512 -46.71741489927576 -68.6696098576186 -45.471342284536355 -69.62452409708519 -44.20561438170879 -70.55698062019788 -42.92115555085226 -71.46625900135624 -41.618525505152 -72.35191356680406 -40.297519740581045 -73.21394428287866 -38.95852144487261 -74.05199115750973 -37.6014655349218 -74.86592689747403 -36.228689042969265 -75.65443889167925 -34.83938136042988 -76.41783648841736 -33.43344041728798 -77.15601637292063 -32.013322689941816 -77.86778489668885 -30.57729767773856 -78.55376474079858 -29.126494738797724 -79.21334550743825 -27.66261852399396 -79.84578531667175 -26.18445728619609 -80.45140500589963 -24.693480401311483 -81.02957639644704 -23.190287126805117 -81.5800100697557 -21.67538514924272 -82.10245887603128 -20.148229895701828 -82.59694244914577 -18.61021767584186 -83.06297155243294 -17.06225294425547 -83.50023787319118 -15.50412548066149 -83.9086791041889 -13.937154209148193 -84.28793261293498 -12.36113571742156 -84.63792927072322 -10.77606691536835 -84.95852756086344 -9.184035492169274 -85.24932945034179 -7.5850223299133654 -85.51025173775783" fill="none"/><polyline stroke="black" stroke-width="1" points="-73.40059453074905 -31.72182476675282 -72.88369102368618 -33.14185950149566 -72.33872645276851 -34.55486933155584 -71.76692539607103 -35.95796262059055 -71.16782424252557 -37.35190775498559 -70.5415045809133 -38.736277079234185 -69.88831452094122 -40.11018050931425 -69.20835826250541 -41.47321468935512 -68.50152119701066 -42.82532583848385 -67.76842302151209 -44.165275686829816 -67.00944759110054 -45.49230386685886 -66.22418170651213 -46.8068352227324 -65.41317274192556 -48.10786248847021 -64.57683711540093 -49.394640307205705 -63.714719792417476 -50.66757239731327 -62.82806855538161 -51.924883118239556 -61.9167325240814 -53.16662900341289 -60.98071193803865 -54.39263502351264 -60.01988864933298 -55.60282325064082 -59.035589383468064 -56.79556702014179 -58.02778110739251 -57.97078034010968 -56.99585813352384 -59.12889024860073 -55.94177246927638 -60.267832205464366 -54.86444398821766 -61.38849678384198 -53.76476912446226 -62.489893940527544 -52.64332258609257 -63.57138955075683 -51.4999671166654 -64.63295873109581 -50.335094461617274 -65.67412324768556 -49.14988378347742 -66.69384230020846 -47.942982243132626 -67.69297492823512" fill="none"/><circle stroke="black" cx="36.20283474292534" cy="-73.41163644529685" r="2.5" fill="hsl(180,45.0%,45.0%)"/><polyline stroke="black" stroke-width="1" points="36.20283474292534 -73.41163644529685 37.74223494308334 -73.03091503261545 39.28050778007064 -72.61790708592343 40.81639196720839 -72.17284372795079 42.3497213367241 -71.69537965379507 43.879209499628544 -71.18582093849665 45.404653993288626 -70.6438527031881 46.92517867340751 -70.069573764001 48.43949656864415 -69.46340329393824 49.94846634101622 -68.82428518466698 51.450159529656794 -68.15310362245336 52.94435874046745 -67.44955809018089 54.42977821986041 -66.71417723345473 55.90665198820327 -65.94629093792861 57.37323248201874 -65.14687003658909 58.829744275094264 -64.31523736663819 60.275406261369696 -63.451561754040654 61.70899478012615 -62.55647531811844 63.13071259202018 -61.62924429703599 64.53883255932038 -60.67106668651878 65.9335844435342 -59.681160607241424 67.31371401169648 -58.66031260530016 68.6780987636968 -57.60926688653404 70.02727953980977 -56.526809084303906 71.36014021711135 -55.41364623623142 72.6750711241125 -54.27124695550298 73.97261851683939 -53.09829525288126 75.2521022152612 -51.89500971368905 76.51195235276603 -50.66296845002333" fill="none"/><polyline stroke="black" stroke-width="1" points="-7.5850223299133654 -85.51025173775783 -5.96224164280136 -85.5006791596308 -4.3425263995582775 -85.46036268166652 -2.7269236501177034 -85.38939976688627 -1.115392170970449 -85.28794816537535 0.4920324795200836 -85.15613025313165 2.0933632259882513 -84.99408671566512 3.6886203007280463 -84.80198862032633 5.27781541523431 -84.57997412194493 6.859980289668292 -84.3282284272299 8.434156541350916 -84.0469775827276 10.000355356986901 -83.73637348893025 11.558576057044865 -83.39653772038464 13.106922223985586 -83.02785991931323 14.645412881637196 -82.63050574774452 16.173313404687587 -82.20475725061573 17.69049524128534 -81.75079240372224 19.196964250676356 -81.26873728783099 20.690925854351352 -80.75914819544633 22.172662224695973 -80.22212120032879 23.641724929376686 -79.65791667689439 25.09690842764497 -79.06704192092114 26.53859029322821 -78.44953891956084 27.966504667252455 -77.80561975664466 29.3784634981516 -77.13622084315894 30.775646602894636 -76.4410819585295 32.15696325431236 -75.72077533477879 33.52277894936217 -74.97528912685884 34.871612402282906 -74.20541650442875 36.20283474292534 -73.41163644529685" fill="none"/><circle stroke="black" cx="42.39490695043092" cy="-85.96783976385764" r="2.5" fill="hsl(180,45.0%,45.0%)"/><polyline stroke="black" stroke-width="1" points="42.39490695043092 -85.96783976385764 43.94024936681399 -85.02402210306333 45.465590338917046 -84.05227430672993 46.969740572287144 -83.05339063260477 48.45279278036687 -82.0274907136798 49.91356499088966 -80.97543552769712 51.35213001560634 -79.89736711469446 52.76780328441389 -78.7938925141879 54.15945837636029 -77.66596612016936 55.52838179439237 -76.51288346609475 56.87275196424641 -75.33610378174136 58.19267120963807 -74.1357540360045 59.48707402082536 -72.91286735166054 60.756572639542405 -71.66715360676749 61.9996263740591 -70.40010518796883 63.21685047598355 -69.1114128411302 64.40777411639465 -67.80168082261298 65.57146898994161 -66.47199482113595 66.70853705175496 -65.1219756258564 67.81754135617902 -63.753284820493356 68.89912409444148 -62.36548074070106 69.95237360425685 -60.959763747331486 70.9765369369779 -59.53726635842305 71.97258982204238 -58.09708546311117 72.93979555844577 -56.640303891241025 73.87693442175612 -55.168757185961226 74.78499558303791 -53.681427744099736 75.66371625632443 -52.178865101518134 76.51195235276603 -50.66296845002333" fill="none"/><polyline stroke="black" stroke-width="1" points="-7.5850223299133654 -85.51025173775783 -5.995824425382383 -85.98226828177155 -4.391524339226433 -86.42463585111022 -2.773150996556004 -86.83693767833898 -1.1406439987291004 -87.21881753402712 0.5059791534402721 -87.56988306494588 2.164682265021326 -87.88976029624664 3.835470839373848 -88.17810670563647 5.518341836039344 -88.43454591856595 7.212262068826893 -88.65875083242967 8.91618625545537 -88.85043841214406 10.63007722402789 -89.00924865889607 12.353885060166377 -89.13478929660361 14.085522232094045 -89.22695555761486 15.824926022819136 -89.28540637633499 17.571214827485125 -89.3099276165134 19.324151155647087 -89.30019470662785 21.08364144664992 -89.2558268809741 22.847603515931784 -89.17691799982431 24.616217260154105 -89.06306083255123 26.388852955916988 -88.9140304373161 28.1640196022885 -88.72988180898228 29.941982328461055 -88.51015378178474 31.72228449031389 -88.25457575882156 33.50226994330598 -87.96370488390478 35.28308927102415 -87.63674581780496 37.063303583408405 -87.27385299442457 38.843133349457766 -86.87451472528176 40.62065542301902 -86.43915341725571 42.39490695043092 -85.96783976385764" fill="none"/></svg>