<svg xmlns="http://www.w3.org/2000/svg" viewBox="-100.0 -100.0 200 200"><circle stroke="black" cx="-7.423341031381013" cy="-5.392089848269879" r="2.5" fill="hsl(180,39.0%,39.0%)"/><polyline stroke="black" stroke-width="1" points="-7.423341031381013 -5.392089848269879 -7.591350370889021 -5.735777944560905 -7.748925755336495 -6.087666944491807 -7.8957661659521845 -6.4475477485790496 -8.032149836037352 -6.814520267842259 -8.156926179085701 -7.18939920668473 -8.270430185835915 -7.571218157142934 -8.372369511326447 -7.959768139105019 -8.462507970764074 -8.354772597197183 -8.540577943805442 -8.755983494644571 -8.606689137154948 -9.162791002670744 -8.659837734933099 -9.57563739807297 -8.700925810267634 -9.99319576283896 -8.729304943773483 -10.41558558446112 -8.744418390454772 -10.842791027345147 -8.747236989017958 -11.273564818294735 -8.735724779479858 -11.709041192976231 -8.711614789702104 -12.147431057130202 -8.674036065427572 -12.588957794065553 -8.622540212726456 -13.033482757160142 -8.55712074196559 -13.480553980746878 -8.478186379213914 -13.929481371602163 -8.385163879135265 -14.380202809682356 -8.278285059537682 -14.83216030079895 -8.157381386743344 -15.285043481709298 -8.021525509133792 -15.738921896584126 -7.872052919168168 -16.19268635696878 -7.708446426415619 -16.646218879621706 -7.530163453921609 -17.099371168473517" fill="none"/><polyline stroke="black" stroke-width="1" points="-13.569678821646734 -1.1099737282260784 -13.3940527172128 -1.349818720364562 -13.214225182111926 -1.5837382065326984 -13.030372034828707 -1.8115117822317552 -12.842755153721875 -2.0324586414799817 -12.651419980546434 -2.2473939663354177 -12.45647832789223 -2.4564599037850043 -12.258462686069667 -2.657792679311094 -12.057153293547312 -2.853318576573754 -11.852930211750923 -3.0420227254554644 -11.645907961293098 -3.2241356018270655 -11.43623753871079 -3.399697143402973 -11.224299493423775 -3.5680105113573126 -11.010105556202317 -3.72963584265403 -10.793645448648073 -3.885063305591134 -10.575641855380336 -4.032749771569353 -10.35575674338617 -4.1741139647496395 -10.13413216206302 -4.309156009943814 -9.911444900859774 -4.436680806915535 -9.687591478748338 -4.557383644910669 -9.462590552382347 -4.671587894550816 -9.236988603176213 -4.778541133821358 -9.010666768368926 -4.878856418083074 -8.783896458340532 -4.972357754203496 -8.556809287208594 -5.059140030528913 -8.329600428611688 -5.139185291182213 -8.102462161649068 -5.212489111690977 -7.87577835894935 -5.278768744311981 -7.64914678703722 -5.338920056724414 -7.423341031381013 -5.392089848269879" fill="none"/><circle stroke="black" cx="-13.086925469491868" cy="-9.505945863298669" r="2.5" fill="hsl(180,39.0%,39.0%)"/><polyline stroke="black" stroke-width="1" points="-13.086925469491868 -9.505945863298669 -12.9769237565405 -9.804942392916669 -12.860243202807277 -10.103191063605129 -12.73679059265895 -10.400645584457694 -12.607383691701886 -10.696173931679496 -12.470562845257907 -10.991377469675552 -12.32722273703364 -11.285034818819524 -12.177250805833044 -11.577139883163651 -12.020618310092816 -11.867584976639314 -11.857249135860252 -12.15630586227293 -11.687580160426982 -12.44274687169121 -11.51052526230396 -12.727792315156236 -11.327563755406215 -13.009944526849342 -11.138072539166634 -13.289666075919891 -10.941587302949241 -13.567208170509511 -10.739549467275518 -13.841285790086495 -10.529665972789887 -14.113573370957093 -10.314265681720705 -14.382159254990508 -10.092481348073381 -14.647601274646844 -9.863984534680531 -14.909999742291902 -9.628961937165716 -15.16909075922461 -9.388044331511237 -15.424358793547297 -9.140749363140088 -15.676000084089578 -8.88748546467011 -15.92366149932623 -8.628210381929678 -16.16726797541361 -8.36209065584455 -16.407139960426967 -8.09066293330797 -16.642363643161662 -7.813498232796528 -16.873075922660064 -7.530163453921609 -17.099371168473517" fill="none"/><polyline stroke="black" stroke-width="1" points="-13.569678821646734 -1.1099737282260784 -13.634215549781072 -1.3740217225611886 -13.69355347828523 -1.641186185938219 -13.747612019446356 -1.9112241065882465 -13.79640401483495 -2.183380452688467 -13.839713348907228 -2.458481998382165 -13.87738868727102 -2.7366682606583193 -13.909751799944152 -3.015813438575554 -13.936286044583726 -3.2980142900511487 -13.957148889708817 -3.582064801408107 -13.972198306979221 -3.8681622890241054 -13.981332960554257 -4.156288076919436 -13.98473678009092 -4.445505740395137 -13.982146567769322 -4.736404635741009 -13.97325694325245 -5.02953224358747 -13.958713114737 -5.32279722542035 -13.937790917043117 -5.617931083766177 -13.910374047380298 -5.914859898041117 -13.877092956710817 -6.211832138771297 -13.837521961632723 -6.509656854583328 -13.791385224016402 -6.808671251804445 -13.739176387015148 -7.1076432299162535 -13.680427271570334 -7.407314254514543 -13.61524206684309 -7.707269181451032 -13.543519755515051 -8.007489783816078 -13.465260495224491 -8.30777769859105 -13.38046682680102 -8.607943641398943 -13.289471908226238 -8.907316298184304 -13.191289626655337 -9.207202152423303 -13.086925469491868 -9.505945863298669" fill="none"/><circle stroke="black" cx="-18.750509907602723" cy="-13.61980187832746" r="2.5" fill="hsl(180,13.0%,13.0%)"/><polyline stroke="black" stroke-width="1" points="-18.750509907602723 -13.61980187832746 -18.36249714219198 -13.874106841272432 -17.971560650278054 -14.118715182718448 -17.57781501936572 -14.35374342033634 -17.18261754736642 -14.577827595516734 -16.784199511430113 -14.793355732666377 -16.384015288231367 -14.998851480496112 -15.982132100339642 -15.194511627222285 -15.578728649421562 -15.380397356081449 -15.173920327915063 -15.556628229901289 -14.768471183699017 -15.722702740711673 -14.361212789674818 -15.8799472322395 -13.954201700544798 -16.026693290859722 -13.546840134559785 -16.163746567378663 -13.13875621544371 -16.291625313673876 -12.731861945533078 -16.409006761878256 -12.323607166099919 -16.518105548937953 -11.916916573739307 -16.61688745285082 -11.510926630719188 -16.706244755228134 -11.105428856634607 -16.786516727423663 -10.700803132365843 -16.857627537702342 -10.297902283808558 -16.91923621549243 -9.896334847144914 -16.971797358496804 -9.49668586980254 -17.015162697853512 -9.099039377116013 -17.04949246911792 -8.702655802555311 -17.07535802426981 -8.30927294744777 -17.092040929354543 -7.918550039177437 -17.099932965698425 -7.530163453921609 -17.099371168473517" fill="none"/><polyline stroke="black" stroke-width="1" points="-13.569678821646734 -1.1099737282260784 -13.874378382349342 -1.3982247247578148 -14.172881774458531 -1.6986341653437398 -14.464852004064007 -2.010936430944738 -14.750052875948024 -2.334302263896952 -15.028006717268026 -2.669570030428912 -15.29829904664981 -3.016876617531634 -15.561040913818637 -3.373834197840014 -15.81541879562014 -3.7427100035285434 -16.06136756766671 -4.12210687736075 -16.298488652665345 -4.512188976221146 -16.526428382397725 -4.9128790104359 -16.745174066758068 -5.323000969432963 -16.954187579336327 -5.743173428827987 -17.152868437856828 -6.174001181583806 -17.341784374093663 -6.612844679271347 -17.51982509070006 -7.061748202782713 -17.686615932697574 -7.5205637861384185 -17.84274101256186 -7.986983470627059 -17.987452444517103 -8.461930064255986 -18.12017989565046 -8.945754609058074 -18.24136417085408 -9.436745326011147 -18.350187774771744 -9.935772090946013 -18.446587675345643 -10.44218060869857 -18.53023022382151 -10.955839537103243 -18.600920561837295 -11.476370105999887 -18.658471491952977 -12.003398171106912 -18.703165457503125 -12.535863852056623 -18.733432466273452 -13.075484248122192 -18.750509907602723 -13.61980187832746" fill="none"/><circle stroke="black" cx="1.8810574330627483" cy="-14.188854496876038" r="2.5" fill="hsl(180,77.0%,77.0%)"/><polyline stroke="black" stroke-width="1" points="1.8810574330627483 -14.188854496876038 2.1991273491511776 -14.488771159009092 2.5296324505562646 -14.781536779477696 2.871976536131707 -15.066863544946283 3.2258405523274183 -15.34444110260677 3.590722965495018 -15.614014846473118 3.9670946319223344 -15.875115103479404 4.354862787940493 -16.12737409184183 4.753418884266668 -16.370567395465333 5.162464645446328 -16.60440926284914 5.582109379091965 -16.828488363918712 6.01200928119599 -17.042528128028714 6.452288555097722 -17.2460889814722 6.90139762643237 -17.43936504080247 7.361081260762854 -17.621290862829714 7.829323883088892 -17.792282051927078 8.306383495190811 -17.95186195636011 8.79276609307281 -18.099389426048997 9.287643757597765 -18.234832672531454 9.79048239411685 -18.358057003939056 10.301124390839604 -18.46874466134832 10.819403186980372 -18.566573073067605 11.345409758643983 -18.651052614610133 11.877297231184492 -18.722884372798955 12.417356912405705 -18.78019903786344 12.962511510237924 -18.82454517595693 13.514318241281867 -18.85445630764859 14.07079512497285 -18.870895487226246 14.633946383554122 -18.871930856254835" fill="none"/><polyline stroke="black" stroke-width="1" points="-7.530163453921609 -17.099371168473517 -7.14829589175111 -17.09924501326074 -6.7689342582491765 -17.090925571721005 -6.392977048086576 -17.074231508205955 -6.020188319728636 -17.04944675062086 -5.6495579684311386 -17.01707956654661 -5.28363341429149 -16.97643531467437 -4.92025732481892 -16.928386729872255 -4.5610839774695275 -16.872588102278176 -4.205668629999227 -16.80934294149946 -3.8542869185376194 -16.738742756343026 -3.5069746453873036 -16.660941721424276 -3.1645964619825815 -16.575929188647383 -2.8255460083526494 -16.484176459459444 -2.4916396329016495 -16.385500780288886 -2.1627589414206443 -16.28010851508947 -1.8390362431392266 -16.168159955616584 -1.5196032365476368 -16.049912253379055 -1.20537472470878 -15.925414007991956 -0.89635840478434 -15.794827599876351 -0.5925674748408144 -15.658308796471102 -0.2947744702226614 -15.51599327788391 -0.002229841672043812 -15.368068803746949 0.2850507394121329 -15.214674813403844 0.5656022858329033 -15.056000566558367 0.8409111724905781 -14.892173727891993 1.110218166609633 -14.723373663381867 1.3735711125298444 -14.549756039421117 1.6302349452509348 -14.371556977636471 1.8810574330627483 -14.188854496876038" fill="none"/><circle stroke="black" cx="3.7209794663806046" cy="-28.06742383637611" r="2.5" fill="hsl(180,13.0%,13.0%)"/><polyline stroke="black" stroke-width="1" points="3.7209794663806046 -28.06742383637611 4.224975048036825 -27.835903476511596 4.722502686332593 -27.595252873142574 5.212527607797344 -27.345781277422745 5.6946185695788785 -27.087742814712097 6.168080267011268 -26.82147795550546 6.633920947437204 -26.5469489385275 7.092130628310154 -26.264304829006704 7.541885215429496 -25.973923867031473 7.982927341674368 -25.67606788623141 8.415644608707339 -25.37079941553282 8.839725242328623 -25.058388808152575 9.255563772022136 -24.738862036768708 9.661178681584056 -24.41314511531198 10.059283534698025 -24.080370092017965 10.447326519069701 -23.741741035565635 10.825959893203377 -23.397202604526946 11.196099269625316 -23.046508753746892 11.556923613482509 -22.690207958147216 11.908048399202581 -22.328688466830727 12.249577640115154 -21.96209977289761 12.581602970796803 -21.59058562626862 12.904508046976435 -21.21410012242555 13.21649392686013 -20.833939135303105 13.520428611932223 -20.448501416242035 13.813224180685001 -20.059975446081797 14.096892942383416 -19.66723347122815 14.369674098951943 -19.27173380739188 14.633946383554122 -18.871930856254835" fill="none"/><polyline stroke="black" stroke-width="1" points="-7.530163453921609 -17.099371168473517 -7.334496188485811 -17.544649700422976 -7.124462850262926 -17.988601996531997 -6.900813923009052 -18.430551780531257 -6.663135320798153 -18.87030185946905 -6.410103176410236 -19.307923981358424 -6.144410371294817 -19.742131415278795 -5.863427188292274 -20.173408920134502 -5.568923110096931 -20.60083661560937 -5.260230642070748 -21.024248126264606 -4.9375473156967065 -21.443223120524028 -4.6007845215194845 -21.857415732015234 -4.250966685800838 -22.26625846727676 -3.8858255751275235 -22.66982532994666 -3.5077001687031886 -23.067310012392245 -3.1163743782167863 -23.458422517346143 -2.711984152575944 -23.842811004690788 -2.29317144364995 -24.22026984895968 -1.8612080054177664 -24.59028502396053 -1.416057820139689 -24.95250674415705 -0.9576930271000396 -25.30657484126686 -0.48734120076174625 -25.652095275901598 -0.0037708587270873957 -25.98875834712184 0.4930401210630775 -26.316174893657177 1.0005495271424332 -26.634040605657386 1.5213213582717797 -26.941944291493886 2.0540034316693174 -27.239565105197418 2.5986456857233096 -27.526540428278583 3.1537899473927173 -27.802662466835365 3.7209794663806046 -28.06742383637611" fill="none"/><circle stroke="black" cx="18.28085947295916" cy="-6.976938148637933" r="2.5" fill="hsl(180,77.0%,77.0%)"/><polyline stroke="black" stroke-width="1" points="18.28085947295916 -6.976938148637933 18.732319911862614 -6.747458852755999 19.181368994894793 -6.503814225643966 19.627898829913907 -6.245205662959747 20.07133202682857 -5.972194878669452 20.511321084787248 -5.684685356883188 20.947509864503985 -5.38258436780217 21.379490340278892 -5.065985100641483 21.80694334115643 -4.7346010513656855 22.22929587391783 -4.389308282613523 22.646208148859696 -4.030044724134076 23.057462465392806 -3.6559259985675294 23.462425446401507 -3.268533795457998 23.860976778056017 -2.866154819103716 24.25252001446333 -2.450438521582513 24.63670798250137 -2.0214598771564103 25.01325590164217 -1.5782896435581244 25.38172546235573 -1.1217195744047561 25.74174945406906 -0.6517937127154676 26.09295600958578 -0.16849015348462235 26.434974171110472 0.32727598861251006 26.767434985287505 0.8364236715960991 27.089983332905888 1.358005531240962 27.402257001594474 1.892053769998739 27.703888667218088 2.4384982498220396 27.994604881691128 2.99632571126629 28.273940509191963 3.566551847747841 28.541629555235687 4.148192929661877 28.79733699365101 4.7410554810188374" fill="none"/><polyline stroke="black" stroke-width="1" points="14.633946383554122 -18.871930856254835 14.893521942468423 -18.47707458000486 15.143804580836672 -18.078878334774796 15.384018596750353 -17.678186197564692 15.614590474282476 -17.274859026649146 15.836213612409995 -16.868452252532272 16.047467150407595 -16.46048456724695 16.24850496695232 -16.05109061352267 16.44082965277645 -15.638972841591592 16.622696345053814 -15.226145387238011 16.79519644294654 -14.811696653388214 16.95789211474141 -14.396339075069985 17.11100684253156 -13.98006041686991 17.254673581062512 -13.562931208807187 17.388493412085122 -13.145707946533031 17.512793200296084 -12.728242232516184 17.627605397073875 -12.31075130419473 17.733043979966865 -11.893337331062078 17.82883620348594 -11.476690790763504 17.915618258394296 -11.060118569126073 17.992572009410775 -10.645232714712122 18.060638820995127 -10.230798474058746 18.11970871628986 -9.817260886089203 18.169401334691656 -9.40564255601819 18.209892079268144 -8.996007278370183 18.241782092051857 -8.587492101308968 18.264455978149368 -8.18173933546627 18.278641188302537 -7.777552413346114 18.283920478217038 -7.376272089310026 18.28085947295916 -6.976938148637933" fill="none"/><circle stroke="black" cx="31.36063831598202" cy="-11.96887018118922" r="2.5" fill="hsl(180,13.0%,13.0%)"/><polyline stroke="black" stroke-width="1" points="31.36063831598202 -11.96887018118922 31.43347351474277 -11.3224667386557 31.49290236774126 -10.678277785107358 31.539477194954507 -10.0352321606899 31.57297876394442 -9.394492693675108 31.593573074500576 -8.75611675551396 31.601412606761418 -8.120166578169465 31.59657376985486 -7.486977912089749 31.57926838760789 -6.856313375526871 31.54934401489007 -6.229607891362049 31.506997355873747 -5.6068816303686075 31.452589190279348 -4.987033534830363 31.385909070497583 -4.3723486615842155 31.307448257736453 -3.7606169492723573 31.217060550287226 -3.154125330373028 31.114937796464393 -2.5530033631296973 31.001347327642772 -1.9561270078540487 30.87636226958839 -1.3645494667246805 30.740147406315476 -0.7783555986796361 30.592862194771207 -0.19754741643059742 30.434667656923605 0.3767938595679906 30.265727490972846 0.9457376444713758 30.086220982172872 1.5082052286942464 29.896318802049056 2.0642621772071434 29.696185863810665 2.6138603906887496 29.486086077327233 3.155962308147763 29.266078220932858 3.691702800367247 29.03643096215342 4.220106542505555 28.79733699365101 4.7410554810188374" fill="none"/><polyline stroke="black" stroke-width="1" points="14.633946383554122 -18.871930856254835 15.196484313162387 -18.852933180802655 15.763798013211796 -18.819034863633675 16.33475745179969 -18.77070558052825 16.909461095716164 -18.707410682733766 17.488329331186144 -18.62825644562514 18.069453066323742 -18.53451080778567 18.652598093951944 -18.42597474614302 19.239111392421734 -18.30077598983137 19.826591174326733 -18.160865932166047 20.4159154382369 -18.004811518556927 21.0061569217391 -17.83309833930359 21.597171615746273 -17.645353473365255 22.18870879695489 -17.441299576692572 22.77982226565172 -17.221554707555242 23.37048374207858 -16.985593032368378 23.96028429358091 -16.7333619327014 24.548918483540145 -16.464661620832082 25.135534273696813 -16.18012255132243 25.720543152688577 -15.878450457481195 26.302282983640065 -15.561639722359542 26.881610178276926 -15.22760845383011 27.45787374281461 -14.876680090788133 28.029979447217656 -14.510107552618475 28.597648781809678 -14.127741969340299 29.16128722583548 -13.727952809225588 29.71937293163089 -13.313079942321588 30.272521055850735 -12.880942120942628 30.819485110501525 -12.433488107670154 31.36063831598202 -11.96887018118922" fill="none"/><circle stroke="black" cx="24.209936122046454" cy="20.799945119312937" r="2.5" fill="black"/><polyline stroke="black" stroke-width="1" points="24.209936122046454 20.799945119312937 23.884146479531676 21.316130730099527 23.547456133980024 21.82742281549166 23.200761617675994 22.332733122669843 22.843033482350677 22.833033029902403 22.4741804196032 23.328225276913805 22.0951464775062 23.817235833633006 21.70533491284966 24.300494519320576 21.305221275849334 24.77742031216875 20.89525203022215 25.247512814922395 20.47537030548223 25.710720679087746 20.04440269577809 26.167831209785433 19.604022236478514 26.61738794297363 19.15402693408064 27.059450779635252 18.693870607717276 27.494280458886795 18.22394911894329 27.92145417334668 17.744898110044726 28.340434374467844 17.257126806649318 28.75087729278866 16.758959506878984 29.153669145753437 16.25195643923643 29.54773890552455 15.73684187433351 29.93260130533022 15.212402736546652 30.308802402002094 14.679393219925052 30.675821719544988 14.137344790934142 31.03375687182989 13.588253738820631 31.3815860007308 13.03005159237055 31.72012559554825 12.46510621967232 32.048273094910435 11.890961082277595 32.36689406694802 11.309986775039159 32.67496179260871" fill="none"/><polyline stroke="black" stroke-width="1" points="28.79733699365101 4.7410554810188374 28.79553661229093 5.300098768714774 28.782973548006787 5.860198213860044 28.759359890589607 6.422303679580167 28.724788986875264 6.985435054601668 28.679166572114433 7.549570333469048 28.622389531206277 8.114677451300063 28.554346696768516 8.680713411598163 28.475507253077513 9.245814088950992 28.385219240900277 9.811767113147752 28.283554872513918 10.377937446061912 28.17085090537695 10.943107448403671 28.04669475515599 11.508105710582653 27.911341701190974 12.072012815761092 27.76454463738457 12.635158019909108 27.60675332313942 13.196316117186807 27.437512635378077 13.756259752127777 27.25651092269461 14.315318754951589 27.064677977320333 14.871471492230924 26.861105815589877 15.426209360194864 26.646303878982952 15.978381514581544 26.42044567251804 16.527529910819634 26.183008196370345 17.07430957322604 25.93482786403549 17.617241647817423 25.674907055457403 18.15764148188596 25.404228292448863 18.693903848787414 25.122091492727094 19.226835358432034 24.828895934053612 19.75571287164609 24.524564678986394 20.280466958483284 24.209936122046454 20.799945119312937" fill="none"/><circle stroke="black" cx="-6.427590344248273" cy="29.663613845358192" r="2.5" fill="hsl(180,39.0%,39.0%)"/><polyline stroke="black" stroke-width="1" points="-6.427590344248273 29.663613845358192 -7.065607805071364 29.87410136122646 -7.713133355322976 30.071132154055615 -8.370639407993455 30.25422793701092 -9.038628367157408 30.422843949491487 -9.7152107011322 30.577133121510354 -10.400500938588568 30.716704720387558 -11.09542860589874 30.840843698760963 -11.797810217359109 30.949918982348763 -12.508543353720894 31.043221750286694 -13.226738662830744 31.120699669785946 -13.95192846835437 31.18216434630613 -14.684614933249577 31.226986900346763 -15.424320219132628 31.254947532956454 -16.169434834126374 31.266425717451952 -16.920857131860174 31.26056656564 -17.677346088171692 31.237607447339855 -18.43943265137653 31.19682821242822 -19.20555827872459 31.138709174917068 -19.976905159550046 31.062093885842174 -20.7514902834369 30.967783798389114 -21.52955402828948 30.855205060782925 -22.310446650674983 30.724364394920777 -23.094400602425182 30.57463502407706 -23.880718760865488 30.406048640252923 -24.667960157854417 30.21928139614652 -25.457568443004558 30.01269676337925 -26.247655759973934 29.787357793708345 -27.03800009272046 29.543000101310778" fill="none"/><polyline stroke="black" stroke-width="1" points="11.309986775039159 32.67496179260871 10.647425306865184 32.74366299601433 9.985442724672362 32.79930974376135 9.326180711721072 32.84139528661291 8.668106123562241 32.87053974588002 8.012576406304618 32.88651810628135 7.3589867750890745 32.889637050046304 6.709402414851601 32.87959457847101 6.062000897780053 32.856952464355565 5.417554329336926 32.82168636572639 4.777177412723959 32.7737673817316 4.139860672561065 32.71350666942621 3.507697188318908 32.64079026248346 2.87876111392809 32.556005244042524 2.254059026789142 32.45917476358574 1.6353279110515255 32.35034818099949 1.0199087861932743 32.229832115711766 0.41054206379128894 32.097650469073045 -0.19367660793709537 31.95399926496715 -0.7918731432908173 31.799038299345188 -1.3849266372524227 31.632904532832093 -1.9719620403547533 31.455766701386278 -2.5521281532941575 31.267846231997737 -3.1263680177020383 31.069237407858598 -3.6945112922212577 30.860085083165064 -4.255074252138184 30.640718562545548 -4.80893816781611 30.411196646325813 -5.355992044532164 30.17167620097659 -5.8955834802097105 29.922419182463987 -6.427590344248273 29.663613845358192" fill="none"/><circle stroke="black" cx="-7.909968191169" cy="36.50485320083748" r="2.5" fill="hsl(180,39.0%,39.0%)"/><polyline stroke="black" stroke-width="1" points="-7.909968191169 36.50485320083748 -8.619207674722636 36.442878069641786 -9.328081299602148 36.367316962117435 -10.037255138232078 36.277922152998414 -10.74740758673164 36.17437188376698 -11.456373164711845 36.05717447860076 -12.164400387663754 35.9261824997386 -12.87267415694122 35.78087388604724 -13.578757691686143 35.621987699061755 -14.28380827821816 35.449005953791186 -14.98692128703299 35.262167661869974 -15.687692878768635 35.06154856439271 -16.386812464758272 34.84672771478717 -17.083862164865945 34.61774704085931 -17.777191138655983 34.37530327458496 -18.467932573738043 34.11872289046522 -19.154867373322645 33.848532733885975 -19.838716287485358 33.564211853859845 -20.517946093753643 33.266533938134955 -21.193972528662353 32.95451218501444 -21.86483592069285 32.62924745793847 -22.53095524957128 32.29036902145617 -23.191811363804376 31.938117352672204 -23.84780832333378 31.572070137793894 -24.498384410163663 31.192489449009095 -25.142232822243482 30.800285216971563 -25.780999915702157 30.39399990061872 -26.41293612778804 29.974927514119805 -27.03800009272046 29.543000101310778" fill="none"/><polyline stroke="black" stroke-width="1" points="11.309986775039159 32.67496179260871 10.722068651884006 32.97321112279158 10.126042733065761 33.26114036584044 9.523997198175547 33.53799013360053 8.914300936943151 33.8041411904296 8.298271076906998 34.05911259789089 7.675216384723927 34.30296709170034 7.047231131594133 34.53513266616599 6.41235747586717 34.75593757272107 5.771346277520444 34.96509788614579 5.125338097390609 35.16231951302514 4.473211370581058 35.34767026705971 3.817189153218011 35.5207601606368 3.1551538658013136 35.68174007346776 2.488164330324004 35.83036640950497 1.8181223628584087 35.96642060387229 1.142062302381503 36.08996879889985 0.46302255121986774 36.20076313522233 -0.22001058902887544 36.29874704536871 -0.9060454178634035 36.3838238330095 -1.5960818987332661 36.45587063685634 -2.289112896728165 36.51480087297317 -2.984129779624063 36.56059001785398 -3.682207898582146 36.59306605568153 -4.383133474137565 36.612114903411 -5.085117005211596 36.61784255257292 -5.7891637366112745 36.61003545234105 -6.495105737782638 36.588595648035614 -7.202109087147831 36.5535536604436 -7.909968191169 36.50485320083748" fill="none"/><circle stroke="black" cx="-9.392346038089727" cy="43.34609255631677" r="2.5" fill="hsl(180,13.0%,13.0%)"/><polyline stroke="black" stroke-width="1" points="-9.392346038089727 43.34609255631677 -10.172807544373905 43.0116547780571 -10.94302924388132 42.66350177017925 -11.7038708684707 42.30161636898591 -12.456186806305872 41.925899818042474 -13.197535628291492 41.537215835691164 -13.92829983673894 41.13566027908964 -14.649919707983702 40.72090407333352 -15.359705166013176 40.29405641577474 -16.059073202715428 39.854790157295675 -16.747103911235236 39.403635653954 -17.4234572891829 38.94093278247929 -18.089009996266967 38.466468529227576 -18.743404110599258 37.98054654876216 -19.384947443185595 37.484180831717964 -20.015008015615912 36.97687921529044 -20.632388658473594 36.45945802043208 -21.237999923594185 35.93159549529147 -21.8303339087827 35.39435870135285 -22.411039897774657 34.84693048418671 -22.978181557948798 34.29071111748783 -23.532356470853085 33.725532982129415 -24.073176076933766 33.15187031042363 -24.601216044242378 32.569505251510726 -25.11605005946184 31.978930257765267 -25.616505486632544 31.381289037796606 -26.104431388399757 30.77530303785819 -26.57821649560215 30.162497234531266 -27.03800009272046 29.543000101310778" fill="none"/><polyline stroke="black" stroke-width="1" points="11.309986775039159 32.67496179260871 10.796711996902832 33.202759249568835 10.266642741459158 33.722970987919524 9.72181368463002 34.23458498058816 9.160495750324062 34.73774263497917 8.583965747509378 35.23170708950041 7.991445994358779 35.71629713335437 7.385059848336664 36.190670753860985 6.762714053954285 36.654922681086575 6.125138225703964 37.1085094065652 5.473498782057258 37.55087164431868 4.8065620686010515 37.98183386469322 4.126681118117114 38.400730058790124 3.4315466176745373 38.80747490289299 2.7222696338588666 39.2015580554242 2.000916814665292 39.582493026745084 1.2642158185697316 39.95010548208793 0.5155030386484464 40.3038758013716 -0.24634457012065553 40.643494825770276 -1.0202176924359896 40.96860936667381 -1.8072371602141095 41.278836740880585 -2.6062637531015755 41.57383504456004 -3.4161314059539687 41.853333803710235 -4.238047779462254 42.11689470350446 -5.071755656053873 42.36414472365694 -5.915159758285008 42.59496654260028 -6.769389305406438 42.808874258356276 -7.634219431033111 43.00551509509463 -8.508634694085952 43.18468813842321 -9.392346038089727 43.34609255631677" fill="none"/><circle stroke="black" cx="-34.43255694032729" cy="10.01333628473143" r="2.5" fill="hsl(180,26.0%,26.0%)"/><polyline stroke="black" stroke-width="1" points="-34.43255694032729 10.01333628473143 -34.950524054231366 9.45365064853757 -35.45959028881269 8.877633274107506 -35.95923322992171 8.28578588705347 -36.44900455115335 7.678415736986517 -36.92858398201269 7.055246085958701 -37.39758607265754 6.416205415833484 -37.85532847594181 5.763078884463491 -38.30173091916594 5.094087709865964 -38.73618563715364 4.410794093354724 -39.15840846118266 3.712492799613006 -39.567941214611444 2.9999117132097077 -39.964414301754736 2.2729783363906493 -40.34739692037255 1.5327472067863692 -40.716546814111126 0.779096614225193 -41.07149849445712 0.011120692748799675 -41.41185465621188 -0.7693210856217247 -41.73727312509474 -1.5622273622121414 -42.04734298612231 -2.3685319941667404 -42.341778535379206 -3.1863415872910568 -42.62015548054953 -4.016569159591804 -42.8821767751421 -4.858230879184724 -43.12747786270463 -5.711275619502365 -43.35565805650768 -6.575786396863901 -43.56665960386478 -7.449682675186692 -43.759787989103515 -8.334963551132775 -43.93503939470203 -9.229493452296317 -44.09186955921824 -10.134118660390982 -44.23029593981033 -11.047073914697831" fill="none"/><polyline stroke="black" stroke-width="1" points="-27.03800009272046 29.543000101310778 -27.490811186368067 28.923152326750486 -27.92906395917154 28.297591653269848 -28.35437748691257 27.66496307170709 -28.76583565855773 27.026356234635994 -29.16262930721098 26.382879732564177 -29.545827997032127 25.733618639971457 -29.91504138196137 25.079212493756213 -30.269976367109475 24.42024531794506 -30.61076026060777 23.756813506716835 -30.937167366168126 23.089461205562408 -31.249984731407423 22.417369158338243 -31.547467440103954 21.7432163376933 -31.831680044869213 21.064334967422244 -32.1008668593598 20.38357287355892 -32.35587473436733 19.699960180469876 -32.59657158420962 19.013986358115538 -32.82308929834293 18.32571393222778 -33.035170301596104 17.63590263944321 -33.2333085396031 16.94393783729905 -33.416721171951416 16.251664216531736 -33.58608332408026 15.55810396596302 -33.741201606726094 14.863996272462263 -33.882050541035035 14.169789405025963 -34.0087694916997 13.475563754878802 -34.121378654046175 12.78168261265697 -34.22011818801972 12.087919766543186 -34.304664416631546 11.39563181120043 -34.375519047959195 10.70383005919235 -34.43255694032729 10.01333628473143" fill="none"/><circle stroke="black" cx="-38.91358724573255" cy="11.316465280578496" r="2.5" fill="hsl(180,26.0%,26.0%)"/><polyline stroke="black" stroke-width="1" points="-38.91358724573255 11.316465280578496 -39.294422477001895 10.628617240680391 -39.6631856432159 9.93004188021899 -40.019505534787555 9.221360534770303 -40.36309669334813 8.502965736931378 -40.693816701309665 7.774597887221453 -41.0114507750192 7.036226671492422 -41.31546061142348 6.289847908806289 -41.60596851323462 5.533547643255025 -41.88252059543371 4.769059509048787 -42.14501611317707 3.9956442309151625 -42.393166238230314 3.2141110215547593 -42.62677837458559 2.4244004444550127 -42.845594939045085 1.6276506287512726 -43.049453107687214 0.8237359448375784 -43.23816508170108 0.011707348563392906 -43.41150962886751 -0.8064693067580015 -43.56932354978136 -1.6308010635610437 -43.711371693366225 -2.4622669356021594 -43.83754924067857 -3.298902669234384 -43.947607043867194 -4.141669618516853 -44.04142755399732 -4.98956534851647 -44.11882297723903 -5.842557240031566 -44.17956864216814 -6.700749556559387 -44.22378849220863 -7.562048455335362 -44.25095775540506 -8.428517068818035 -44.261252544155575 -9.298021492066267 -44.25430106406525 -10.171452077203682 -44.23029593981033 -11.047073914697831" fill="none"/><polyline stroke="black" stroke-width="1" points="-27.03800009272046 29.543000101310778 -27.601673716281187 29.03979107626822 -28.15514210186446 28.526652926966886 -28.69991426128358 28.0020983908409 -29.234947468448745 27.467100701039758 -29.759291274405943 26.922668540893863 -30.273904880906116 26.367753952479 -30.778261455246717 25.802891240189542 -31.271926146966745 25.228566379171973 -31.754893239287433 24.644767728368613 -32.22678942766319 24.051950052918567 -32.688294768929545 23.449149728869887 -33.13744135538777 22.8390617293065 -33.57624672920214 22.21878666334262 -34.00271609282925 21.591218841961904 -34.41758953970353 20.955240709958005 -34.82057424597816 20.3112748217822 -35.21165584047519 19.659293071026767 -35.590400373083014 19.000018166946433 -35.957179834334276 18.332698328591363 -36.31098550461364 17.659241334773704 -36.65238259823394 16.978507840916674 -36.98099448488985 16.291220762741712 -37.296623094061204 15.597795479391634 -37.59924942777997 14.8982480216845 -37.88872211195555 14.192908954361576 -38.16513272211265 13.481457302093167 -38.42794312745993 12.765339599998418 -38.677534648891424 12.043389291450884 -38.91358724573255 11.316465280578496" fill="none"/><circle stroke="black" cx="-43.39461755113782" cy="12.619594276425566" r="2.5" fill="hsl(180,26.0%,26.0%)"/><polyline stroke="black" stroke-width="1" points="-43.39461755113782 12.619594276425566 -43.638320899772424 11.803583832823215 -43.86678099761911 10.982450486330475 -44.07977783965341 10.156935182487139 -44.27718883554291 9.327515736876236 -44.45904942060664 8.493949688484204 -44.62531547738087 7.6562479271513615 -44.775592746905154 6.816616933149086 -44.91020610730331 5.973007576644084 -45.0288555537138 5.127324924742851 -45.131623765171476 4.278795662217319 -45.218391261849206 3.4283103298998117 -45.28914244741643 2.5758225525193756 -45.34379295771762 1.7225540507161763 -45.3823594012633 0.8683752754499638 -45.404831668945036 0.01229400437798614 -45.41116460152315 -0.8436175278942784 -45.40137397446798 -1.699374764909946 -45.37540040061015 -2.5560018770375783 -45.33331994597793 -3.411463751177711 -45.27505860718487 -4.266770077441902 -45.20067833285256 -5.120899817848216 -45.11016809177343 -5.973838860560767 -45.003479227828606 -6.8257127162548725 -44.880917380552475 -7.674414235484034 -44.74212752170661 -8.522070586503293 -44.58746569360912 -9.366549531836217 -44.416732568912266 -10.208785494016384 -44.23029593981033 -11.047073914697831" fill="none"/><polyline stroke="black" stroke-width="1" points="-27.03800009272046 29.543000101310778 -27.712536246194304 29.15642982578595 -28.381220244557383 28.755714200663927 -29.04545103565459 28.339233709974707 -29.704059278339756 27.90784516744352 -30.3559532416009 27.46245734922355 -31.00198176478012 27.00188926498655 -31.64148152853207 26.526569986622878 -32.27387592682402 26.036887440398893 -32.8990262179671 25.53272195002039 -33.51641148915825 25.014438900274726 -34.126604806451674 24.480930299401535 -34.72741527067159 23.9349071209197 -35.32081341353506 23.373238359262988 -35.90456532629871 22.79886481036489 -36.47930434503972 22.210521239446138 -37.04457690774671 21.608563285448867 -37.60022238260745 20.992872209825748 -38.14563044456993 20.36413369444966 -38.68105112906545 19.72145881988368 -39.20524983727586 19.06681845301567 -39.71868187238763 18.39891171587033 -40.22078736305361 17.718445253021166 -40.71119564708738 17.025801553757308 -41.18972936386023 16.320932288490198 -41.656065569864914 15.604135296066179 -42.11014725620558 14.87499483764315 -42.55122183828831 14.135047388796405 -42.97955024982365 13.382948523709418 -43.39461755113782 12.619594276425566" fill="none"/><circle stroke="black" cx="-47.87564785654308" cy="13.922723272272632" r="2.5" fill="hsl(180,13.0%,13.0%)"/><polyline stroke="black" stroke-width="1" points="-47.87564785654308 13.922723272272632 -47.982219322542946 12.978550424966034 -48.07037635202232 12.034859092441959 -48.14005014451925 11.092509830203975 -48.19128097773769 10.152065736821097 -48.22428213990361 9.213301489746954 -48.23918017974253 8.2762691828103 -48.23572488238682 7.343385957491883 -48.21444370137199 6.412467510033145 -48.17519051199389 5.485590340436915 -48.11823141716588 4.561947093519475 -48.043616285468076 3.6425096382448627 -47.95150652024728 2.727244660583739 -47.84199097639014 1.8174574726810795 -47.715265694839395 0.9130146060623493 -47.571498256189 0.012880660192579373 -47.41081957417879 -0.8807657490305552 -47.23342439915459 -1.767948466258848 -47.03942910785407 -2.6497368184729972 -46.82909065127729 -3.524024833121038 -46.602510170502526 -4.391870536366951 -46.35992911170779 -5.252234287179963 -46.101513206307835 -6.105120481089968 -45.82738981348907 -6.950675875950359 -45.53804626889633 -7.786780015632706 -45.23329728800815 -8.615624104188553 -44.91367884306266 -9.435077571606165 -44.57916407375929 -10.246118910829086 -44.23029593981033 -11.047073914697831" fill="none"/><polyline stroke="black" stroke-width="1" points="-27.03800009272046 29.543000101310778 -27.823398776107428 29.273068575303686 -28.6072983872503 28.984775474360966 -29.390987810025603 28.67636902910852 -30.17317108823077 28.348589633847283 -30.952615208795862 28.002246157553234 -31.730058648654115 27.636024577494098 -32.504701601817416 27.25024873305621 -33.275825706681296 26.845208501625812 -34.043159196646755 26.420676171672167 -34.80603355065332 25.97692774763088 -35.5649148439738 25.512710869933183 -36.31738918595541 25.0307525125329 -37.06538009786798 24.527690055183356 -37.80641455976816 24.006510778767872 -38.541019150375924 23.465801768934266 -39.26857956951525 22.90585174911553 -39.988788924739715 22.326451348624737 -40.70086051605685 21.72824922195289 -41.40492242379661 21.110219311175985 -42.099514169938075 20.474395571257638 -42.784981146541305 19.819315590823983 -43.460580241217365 19.145669743300616 -44.12576820011355 18.453807628122977 -44.780209299940495 17.743616555295898 -45.423409027774284 17.015361637770784 -46.055161790298506 16.26853237319313 -46.6745005491167 15.504755177594394 -47.281565850755875 14.72250775596795 -47.87564785654308 13.922723272272632" fill="none"/><circle stroke="black" cx="-29.120244519285343" cy="-29.470987769958302" r="2.5" fill="hsl(180,77.0%,77.0%)"/><polyline stroke="black" stroke-width="1" points="-29.120244519285343 -29.470987769958302 -28.799991343189348 -30.2669804099037 -28.459834789969218 -31.0614263358667 -28.09992466427469 -31.853671503151865 -27.720050780474146 -32.64340125450514 -27.320939352206725 -33.429519803641696 -26.90131145063076 -34.21260847359924 -26.462000099820393 -34.99150262963289 -26.00265571300446 -35.766005157867276 -25.523627017246287 -36.53539613544003 -25.024083007633163 -37.29979099957236 -24.50505088630932 -38.05802157795401 -23.967202608694528 -38.80925231377953 -23.408857705949735 -39.55410903943955 -22.831306826378018 -40.29136183910621 -22.233242243704463 -41.0213182762298 -21.616300474991963 -41.74263198921585 -20.980339755938132 -42.45499060712611 -20.32558258930197 -43.157892007522975 -19.650346941358478 -43.85170277083714 -18.957131088580567 -44.53485294335539 -18.244616116121335 -45.207530985864125 -17.51347514867321 -45.86904126787645 -16.764449797703985 -46.51871472257936 -15.99600861277179 -47.15670786910349 -15.210632693215956 -47.78176208642321 -14.406440570309059 -48.39411437162107 -13.585130221476627 -48.992843636403514 -12.745945279081207 -49.57778715254108" fill="none"/><polyline stroke="black" stroke-width="1" points="-44.23029593981033 -11.047073914697831 -43.875815329056834 -11.84133730110394 -43.50702431421275 -12.626634916390014 -43.12452411307852 -13.401426915980313 -42.728193419548525 -14.166692454250793 -42.31825493339423 -14.922163625460826 -41.89536145532898 -15.666443487099093 -41.45901751897708 -16.40130603811537 -41.01046780036398 -17.12395485368319 -40.54921386256832 -17.83608687626136 -40.07541201845557 -18.537627885690103 -39.58986634739832 -19.22715397746479 -39.0927430626311 -19.904727930094726 -38.58437800357898 -20.57006150005801 -38.06432831153047 -21.224292294250517 -37.53367850229444 -21.865721659711006 -36.99239267672735 -22.494753551248948 -36.440606429912656 -23.111439142146896 -35.87928308874898 -23.714551216752255 -35.307724784775544 -24.305453263084274 -34.7265899024037 -24.883391051700393 -34.13659953310024 -25.447624500760817 -33.53757936438211 -25.99866785009254 -32.92998543651123 -26.536165382224596 -32.314465429959526 -27.059573309843405 -31.690251119453276 -27.570046294254237 -31.058255171738825 -28.06670010115639 -30.419467443622874 -28.548684466722694 -29.77314032295092 -29.017048960056258 -29.120244519285343 -29.470987769958302" fill="none"/><circle stroke="black" cx="-38.96030204312003" cy="-39.42956537560181" r="2.5" fill="hsl(180,13.0%,13.0%)"/><polyline stroke="black" stroke-width="1" points="-38.96030204312003 -39.42956537560181 -38.10597994468818 -40.04698941546059 -37.24205148595306 -40.6464495442258 -36.36915994293324 -41.227557992020245 -35.48746466804296 -41.79038335239968 -34.59830864170485 -42.33400722427797 -33.70046978421925 -42.85965686913827 -32.79539994021779 -43.36634868563023 -31.883043714071594 -43.8543323617399 -30.964199360510854 -44.323218204395175 -30.038219535944958 -44.77364107001459 -29.106695105174627 -45.20469006634658 -28.170737113216674 -45.615888610019525 -27.228677757661316 -46.00848544406162 -26.28234164104523 -46.381547280285716 -25.33052173891341 -46.735936349956 -24.375383722826392 -47.070620317986794 -23.41702375763536 -47.385768545329455 -22.455939444731044 -47.68133977095811 -21.490528254331807 -47.95825031535477 -20.523780647864935 -48.215288944482715 -19.554479273877956 -48.45318323278644 -18.583571377768596 -48.67169965956028 -17.612041199693316 -48.870647718069186 -16.638472043690612 -49.05070912040509 -15.665637684598037 -49.21108726209786 -14.69175657351789 -49.352547873911625 -13.718733082963189 -49.47466339046368 -12.745945279081207 -49.57778715254108" fill="none"/><polyline stroke="black" stroke-width="1" points="-44.23029593981033 -11.047073914697831 -44.34189826000713 -11.967125167478118 -44.43428046793731 -12.895743758274918 -44.507557353393594 -13.831219922944367 -44.56110978127136 -14.774402734344497 -44.594669544221155 -15.724867596964705 -44.60842970835132 -16.68097418897494 -44.60137040040151 -17.64442983535453 -44.57433481456442 -18.612050482164598 -44.52630112594608 -19.58545923609298 -44.456945248483336 -20.56438764924875 -44.366669618540435 -21.547048952819832 -44.25518471578849 -22.53327196437898 -44.12239635543693 -23.522483801011035 -43.9673201161083 -24.5157420328493 -43.79072673437452 -25.51084466692402 -43.5921108563557 -26.507985008208358 -43.371163392597666 -27.506951762727095 -43.12857038407837 -28.505995751048115 -42.863040893204925 -29.50645059952099 -42.57490724682924 -30.507114835925627 -42.264604877228194 -31.50676427351371 -41.931478661256165 -32.50570276204926 -41.57565484624245 -33.50315641655084 -41.19752040670104 -34.49808959535967 -40.79566580129673 -35.491621398236475 -40.37082215841228 -36.48227345972444 -39.92386166397016 -37.4685629013769 -39.45339847812835 -38.45147615812507 -38.96030204312003 -39.42956537560181" fill="none"/><circle stroke="black" cx="13.681931797260482" cy="-45.02928587369682" r="2.5" fill="hsl(180,77.0%,77.0%)"/><polyline stroke="black" stroke-width="1" points="13.681931797260482 -45.02928587369682 14.63627154019399 -45.09582324549245 15.597330492164119 -45.14247695378832 16.566044828980957 -45.16853637631543 17.540448709390166 -45.17430801692424 18.521488086424505 -45.1590434056193 19.507949300940364 -45.12281311333233 20.499672343694527 -45.06528331613666 21.49683651953621 -44.98593862552699 22.49709658898751 -44.8854762442049 23.501745266376343 -44.76286776676361 24.509527581939228 -44.61832356867279 25.520267535519892 -44.45151757604512 26.53308702332338 -44.26252187653983 27.548065109482653 -44.05085798226528 28.564054016201577 -43.81679562944125 29.581532596376807 -43.55957783973608 30.59855781531378 -43.28006046246215 31.616637120596184 -42.976731649953216 32.63275971464127 -42.65131161032718 33.64884681910459 -42.30190337795093 34.663004538386666 -41.9294755683193 35.674535508813584 -41.53414926459262 36.683675570197316 -41.11524741303709 37.69016947323882 -40.67245607233581 38.6917284986116 -40.207387241665 39.69011620774131 -39.71786945434663 40.683553835326904 -39.2050750783717 41.67129011198165 -38.66926921216718" fill="none"/><polyline stroke="black" stroke-width="1" points="-12.745945279081207 -49.57778715254108 -11.776449459566926 -49.67069897563281 -10.808573844097966 -49.7446012423448 -9.840699466717252 -49.79999299307569 -8.875874776181442 -49.83639318774475 -7.912992420743781 -49.85419626226448 -6.952101527983923 -49.853527833572706 -5.994326238326484 -49.834367150167225 -5.039674137632688 -49.796871871599166 -4.088158573099499 -49.74117926318087 -3.1407503344282888 -49.667346998285346 -2.197471586347707 -49.57552852707641 -1.2593192793949204 -49.46583456047893 -0.32625894560040947 -49.33843853135993 0.6026250603892962 -49.193481443673775 1.524539636902812 -49.03113182874731 2.441324698875789 -48.85151894595525 3.352068537680929 -48.65480439104465 4.255863490473944 -48.44120031607621 5.1536285891662805 -48.21077480062132 6.043669025187957 -47.96383758337822 6.925797292486016 -47.70059185663614 7.800268449855235 -47.42116561641382 8.666973701683167 -47.12571730979314 9.525224250679864 -46.8145150672459 10.374700443146873 -46.487782112302504 11.215971526448504 -46.14553476580951 12.04764130094685 -45.7882447838627 12.86933491552413 -45.416190829193674 13.681931797260482 -45.02928587369682" fill="none"/><circle stroke="black" cx="17.752031775196965" cy="-58.42459423780705" r="2.5" fill="hsl(180,13.0%,13.0%)"/><polyline stroke="black" stroke-width="1" points="17.752031775196965 -58.42459423780705 18.8038156371274 -57.93644535659421 19.84273978331407 -57.429726440578186 20.87020086981791 -56.904133539482146 21.883922997800298 -56.36064929126056 22.88531754049845 -55.79892087181959 23.87310129590834 -55.21961696706877 24.847319165898536 -54.622896360688074 25.8084240945131 -54.00869943269155 26.75385204091317 -53.37841643135453 27.68542335697983 -52.73135806507008 28.60192004107263 -52.06831175392705 29.50341942445121 -51.3894207916934 30.38919465408443 -50.695284419956636 31.25963473669014 -49.98586016443765 32.11373806802989 -49.26195339870705 32.952354744630995 -48.52320131909458 33.77363380575813 -47.77103947097508 34.57956855577966 -47.0042665424652 35.36718666332867 -46.225232323254666 36.13892320204011 -45.43232181757634 36.893068844262864 -44.627032461446284 37.629240823539355 -43.80991883389942 38.34804924668668 -42.9806857703701 39.04957747575673 -42.139429106406396 39.73182140434619 -41.288223375147126 40.396975810550096 -40.42522332753672 41.043588698928374 -39.55202593511004 41.67129011198165 -38.66926921216718" fill="none"/><polyline stroke="black" stroke-width="1" points="-12.745945279081207 -49.57778715254108 -11.887819560280079 -50.140435696059605 -11.013579261617405 -50.688103400364795 -10.121456261721297 -51.220795088622666 -9.214464465994482 -51.73751159425055 -8.291379483428354 -52.23814684418672 -7.352156146094965 -52.72231994753538 -6.397897495099224 -53.18949287767217 -5.428546991669765 -53.639313100532206 -4.44405392187329 -54.07140619194403 -3.445417675614351 -54.485309886917065 -2.432625608993459 -54.88066422501148 -1.4067544516965413 -55.25706158351939 -0.36775826006141676 -55.614163391133445 0.6854126272639709 -55.95159507437029 1.7495892462418277 -56.26901321694555 2.8268526386783197 -56.566029622937776 3.9161448534366565 -56.842292951079706 5.016374791375681 -57.0975118618016 6.128585316117581 -57.33122622434409 7.250721578454927 -57.54326232987125 8.382480907417595 -57.73332421157906 9.524092103078548 -57.90102633896515 10.675345763133993 -58.04601974505234 11.83530622347723 -58.16809210396254 13.00346962247766 -58.26697993126123 14.180440736492821 -58.34216139522715 15.364341453859923 -58.393689674085586 16.55454455204609 -58.42138380897778 17.752031775196965 -58.42459423780705" fill="none"/><circle stroke="black" cx="51.68064072018366" cy="-10.552600805076192" r="2.5" fill="hsl(180,39.0%,39.0%)"/><polyline stroke="black" stroke-width="1" points="51.68064072018366 -10.552600805076192 52.214933487813596 -9.640417094771422 52.7331181705675 -8.711583161069473 53.234700850287744 -7.766734910906353 53.71929171836287 -6.805950049283964 54.18642133395804 -5.829949843870249 54.63570791029018 -4.838895229224709 55.066790591818695 -3.8325675358417173 55.479213167696194 -2.8119425247881473 55.872634000302796 -1.7761191329217487 56.246577329508305 -0.727793395028291 56.60072371314125 0.3348659885409924 56.93468592309494 1.4100052691188578 57.24807345851537 2.4985551054476396 57.540578521073215 3.5986431415476554 57.81178414336404 4.711193076270472 58.06137873867442 5.83514716294156 58.28907663442498 6.9696991563926165 58.49440326754381 8.11566791714073 58.67723100235379 9.27111426819679 58.83705606682091 10.436912864677742 58.9737996518195 11.611295820323141 59.08700095943256 12.794767416106481 59.176401414451114 13.986686213238096 59.24161148192663 15.187003159387093 59.282542692817586 16.394482258593012 59.29911246385651 17.60809753305541 59.29071147771677 18.828645507572197 59.25725291251867 20.055085595972827" fill="none"/><polyline stroke="black" stroke-width="1" points="41.67129011198165 -38.66926921216718 42.28741606252369 -37.78254709916726 42.884640969322426 -36.886740547971414 43.463095973437326 -35.981953806451074 44.02289091520593 -35.068282735656254 44.56411393636515 -34.14581687543069 45.086022761557395 -33.215738893803525 45.58841710060673 -32.278610532376106 46.07176106592871 -31.33405546806685 46.53540743775912 -30.383281550473715 46.97992848537804 -29.425703412043447 47.40499393056397 -28.46208049438128 47.81046642456717 -27.492918451138223 48.19647306513579 -26.518277717017824 48.562341567344305 -25.539692050237406 48.90878783241549 -24.556164115080406 49.2351891392513 -23.569232564792117 49.54205218638469 -22.57820860144224 49.82913473471887 -21.583921110980352 50.09622604577856 -20.58723756560419 50.34352987987741 -19.588086296326182 50.57111365259898 -18.5866757541498 50.77859601074704 -17.584486918769343 50.96643013281926 -16.580740307055322 51.13481150617413 -15.57520380815661 51.28320038303288 -14.570081227116685 51.41190721335925 -13.564944063984104 51.52095284869195 -12.56030835009336 51.610488035258456 -11.556188203338545 51.68064072018366 -10.552600805076192" fill="none"/><circle stroke="black" cx="58.53912527932987" cy="-11.953025580618561" r="2.5" fill="hsl(180,39.0%,39.0%)"/><polyline stroke="black" stroke-width="1" points="58.53912527932987 -11.953025580618561 58.85274647660292 -10.8659531921018 59.1461960081417 -9.771032380812777 59.4192265446808 -8.66903305198401 59.671709140676654 -7.560089844371899 59.903427259848904 -6.445045969145555 60.11426290498 -5.3241118511156245 60.30412121875797 -4.197078035174489 60.4728031898109 -3.065040709365829 60.62023582728748 -1.9270392853590947 60.746200667335536 -0.7860155358387644 60.850649334944606 0.36000975793488893 60.93345984567819 1.5090361535339127 60.99450699748901 2.6620657719298233 61.03375363466238 3.81710967399899 61.051046081726135 4.975166739120829 61.04634228255122 6.135134898901658 61.019626181093955 7.2961944445452405 60.97068327224167 8.459233541634148 60.89966097062752 9.622262436523004 60.80631364934278 10.786233023958737 60.690835378547014 11.949361365951956 60.55302373870462 13.112221681561218 60.392884312001314 14.274209012278227 60.21028775311844 15.435330124555849 60.0054098573017 16.594389893541507 59.77842779507169 17.75042396511238 59.52898536070488 18.904312915917973 59.25725291251867 20.055085595972827" fill="none"/><polyline stroke="black" stroke-width="1" points="41.67129011198165 -38.66926921216718 42.467415145804374 -37.94337092041479 43.25063630683143 -37.20154731214881 44.02088895060993 -36.44373593882502 44.77808704807937 -35.669865933804026 45.52212232017484 -34.879859941683584 46.25203412971201 -34.07476186322041 46.96740517703935 -33.254994927336085 47.6684999172703 -32.420020114921975 48.35443406275071 -31.57093630924741 49.025582222826856 -30.706991019380737 49.68138108930459 -29.828829209576835 50.32146224340616 -28.936840848076322 50.945732010301015 -28.030952972847388 51.55324805926561 -27.112656373813028 52.14453343389872 -26.180769907743485 52.71868850885914 -25.23680830110912 53.276014281315966 -24.2799179850597 53.81600975357833 -23.31087054216209 54.338201074532634 -22.33049358621774 54.84255941182171 -21.338606749137536 55.32890796979112 -20.335333711063157 55.79657547634172 -19.32219928586054 56.24580170566441 -18.29826081625473 56.67654674026558 -17.263166532168903 57.08795324821873 -16.21927082755898 57.48010126449217 -15.166026718463607 57.85274882871023 -14.103938766876896 58.205798043578284 -13.032954779609588 58.53912527932987 -11.953025580618561" fill="none"/><circle stroke="black" cx="65.3976098384761" cy="-13.35345035616093" r="2.5" fill="hsl(180,13.0%,13.0%)"/><polyline stroke="black" stroke-width="1" points="65.3976098384761 -13.35345035616093 65.49055946539225 -12.09148928943218 65.5592738457159 -10.83048160055608 65.60375223907383 -9.571331193061667 65.62412656299044 -8.314229639459835 65.62043318573977 -7.060142094420861 65.59281789966983 -5.8093284730065395 65.54145184569724 -4.561588534507261 65.46639321192559 -3.31813889394351 65.36783765427217 -2.0779594377964408 65.24582400516277 -0.8442376766492378 65.10057495674796 0.3851535273287855 64.93223376826147 1.608067037948968 64.74094053646266 2.825576438412007 64.52692874825155 4.035576206450324 64.29030802008823 5.239140401971185 64.03130582642802 6.435122634861755 63.75017572776293 7.622689732697865 63.44696327693953 8.802799166127565 63.122090938901245 9.973410604849217 62.77557123186465 11.135553183239733 62.40787110527454 12.28742691158077 62.01904651797668 13.429675947015957 61.609367209551515 14.561731811318356 61.17896402431026 15.683657089724605 60.728277021785814 16.79429752849 60.25774312628689 17.892750397169355 59.767259243693 18.97998032426375 59.25725291251867 20.055085595972827" fill="none"/><polyline stroke="black" stroke-width="1" points="41.67129011198165 -38.66926921216718 42.64741422908506 -38.104194741662326 43.616631644340444 -37.516354076326216 44.57868192778253 -36.90551807119897 45.533283180952814 -36.271449131951805 46.48013070398453 -35.613903007936486 47.41804549786663 -34.9337848326373 48.346393253471966 -34.23137932229606 49.2652387686119 -33.5059847617771 50.1734606877423 -32.758591068021104 51.071235960275686 -31.988278626718035 51.957768248045205 -31.19557792477239 52.832458062245166 -30.38076324501443 53.694990955466245 -29.54362822867695 54.54415455118693 -28.68562069738865 55.38027903538196 -27.80537570040657 56.20218787846697 -26.904384037426123 57.00997637624726 -25.981627368677167 57.80288477243777 -25.03781997334382 58.58017610328672 -24.073749606831296 59.34158894376601 -23.08912720194889 60.08670228698325 -22.08399166797651 60.8145549419364 -21.059911652951737 61.52517327850956 -20.015781325454135 62.21828197435704 -18.9511292561812 62.892706113404586 -17.868460428001274 63.5482953156251 -16.767109372943114 64.1845448087285 -15.64756918366043 64.80110805189813 -14.509721355880632 65.3976098384761 -13.35345035616093" fill="none"/><circle stroke="black" cx="37.57796914845469" cy="44.8111655581261" r="2.5" fill="hsl(180,13.0%,13.0%)"/><polyline stroke="black" stroke-width="1" points="37.57796914845469 44.8111655581261 36.947000654052474 45.78500022778444 36.29304146312435 46.750526485617975 35.6153038561225 47.70789139806256 34.91514752695844 48.65560740161104 34.190732951038484 49.59454637058842 33.44389688921817 50.52293839664009 32.674019009338465 51.440771981254215 31.881579309901557 52.347293538330035 31.06585835707231 53.24249324928882 30.22829536492083 54.12507651655509 29.368433800221112 54.99489661225338 28.48607526316517 55.851621149249084 27.582152540075175 56.6943396180828 26.656122726125485 57.52290258853196 25.708979177548265 58.33642268019938 24.740584630061004 59.134563641416584 23.751128388227656 59.916834625640355 22.74096286906408 60.68268705635641 21.709743034830726 61.43183531544425 20.658712128115795 62.16342237432937 19.587782929406238 62.87709492462626 18.497131431749924 63.57239948408362 17.38754469132238 64.24871501470625 16.259167638425364 64.90562769247796 15.111651151930626 65.54283094187815 13.945863273909 66.15971537780348 12.76308957622195 66.75564127216599 11.56191632950863 67.3305127471152" fill="none"/><polyline stroke="black" stroke-width="1" points="59.25725291251867 20.055085595972827 58.736213809658 21.12144805057712 58.196451129364895 22.17432941048627 57.63766381941426 23.215005398897986 57.06059286217641 24.241988259714244 56.46525373863814 25.255660515972185 55.851969640455636 26.25563366996175 55.221218737257175 27.241235040422204 54.57295811699369 28.212882339552642 53.907696922402344 29.169861693522005 53.22596279209379 30.111512145137702 52.528125616912845 31.037517411423707 51.81390805108004 31.94863249665697 51.08444600595137 32.8432612449193 50.3395608745751 33.72199311813914 49.57967546887274 34.58443716814209 48.80519229777481 35.43026322943855 48.01656090591911 36.25910353767114 47.214022358138216 37.07088743438808 46.39804028911897 37.86525954645937 45.569197775534526 38.64175445075427 44.727155862707576 39.40100227254505 43.87293429631166 40.142036514763 43.00617159364477 40.865464646999605 42.12831431424271 41.569955431740034 41.239488439098295 42.25564162807593 40.339340420594915 42.92307531009199 39.428412943372784 43.57190247051473 38.50825440008143 44.20092710163021 37.57796914845469 44.8111655581261" fill="none"/><circle stroke="black" cx="39.077266847115155" cy="46.59905561493493" r="2.5" fill="hsl(180,13.0%,13.0%)"/><polyline stroke="black" stroke-width="1" points="39.077266847115155 46.59905561493493 38.35999079033684 47.53598819883482 37.62168355815108 48.462003808800326 36.86159172905766 49.37733571146524 36.081184590605645 50.28052511220472 35.27862033856654 51.17255528791699 34.455854865628346 52.05168041709055 33.61230361918483 52.91797270929542 32.74851485144649 53.77074025127155 31.863802423087414 54.610056670836684 30.9596941867719 55.434677892315996 30.035769478829007 56.24453957586394 29.09187288205876 57.039386708069785 28.129002683731873 57.81837472446634 27.146647968592188 58.581437471100365 26.145862322508165 59.32775724973735 25.126544587294916 60.05707917592644 24.08892474108576 60.76899153711473 23.033396116503514 61.463024957676396 21.959643877836832 62.13897714610119 20.868958741885773 62.79606825145394 19.761281873472143 63.434029296151124 18.636819474565016 64.05249036162087 17.49639111654467 64.65091343194263 16.34016644243194 65.22897008818352 15.167817973143253 65.78643982553157 13.980239664573512 66.32279830622538 12.778738721390885 66.83749204308432 11.56191632950863 67.3305127471152" fill="none"/><polyline stroke="black" stroke-width="1" points="59.25725291251867 20.055085595972827 58.81192708036385 21.14867442099206 58.346824810042584 22.231625610947052 57.861563999624856 23.305186775934512 57.35680769322142 24.367834068465143 56.832491861854905 25.419918015131156 56.28886195047586 26.461013793867096 55.72632077879029 27.49040743732762 55.14474644048129 28.5084828943018 54.54457465605705 29.514481042279073 53.926261889619745 30.507692198521614 53.290106696461265 31.487752418782218 52.63575142580054 32.45538392569168 51.96427381118028 33.40892098515237 51.27541812342088 34.34891498946355 50.56954039127713 35.27492013097098 49.84697754073671 36.18655008435926 49.108116142794756 37.08337777981251 48.353131079027335 37.96527789422424 47.58242615635529 38.831832228982314 46.79652977500718 39.68250706586039 45.99502479970069 40.517892132948774 45.178890665859775 41.33693603798671 44.34768764507674 42.14020440507835 43.50284033327108 42.9262638025086 42.64441543471356 43.69518644027695 41.77198321714348 44.4474788825738 40.886040647935864 45.182710703469944 39.988131592763615 45.899574441847534 39.077266847115155 46.59905561493493" fill="none"/><circle stroke="black" cx="40.57656454577561" cy="48.38694567174377" r="2.5" fill="hsl(180,13.0%,13.0%)"/><polyline stroke="black" stroke-width="1" points="40.57656454577561 48.38694567174377 39.77298092662119 49.28697616988519 38.950325653177806 50.17348113198267 38.1078796019928 51.04678002486792 37.247221654252854 51.9054428227984 36.366507726094596 52.75056420524556 35.467812842038526 53.580422437540996 34.55058822903119 54.39517343733662 33.61545039299141 55.19418696421305 32.661746489102526 55.97762009238456 31.69109300862297 56.74427926807691 30.70310515743689 57.494182539474494 29.69767050095235 58.227152266890485 28.675852827388574 58.942409830849876 27.637173211058887 59.63997235366875 26.582745467468065 60.31909181927533 25.512504544528824 60.97959471043629 24.426721093943858 61.621148448589096 23.325829363942944 62.24336285899637 22.20954472084294 62.84611897675812 21.079205355655752 63.4287141285785 19.934780817538048 63.990963667676 18.776507517380104 64.53258123915812 17.605237541766964 65.05311184917899 16.421165246438516 65.55231248388908 15.223984794355879 66.030048709185 14.014616055238022 66.48588123464725 12.794387866559823 66.91934281400266 11.56191632950863 67.3305127471152" fill="none"/><polyline stroke="black" stroke-width="1" points="59.25725291251867 20.055085595972827 58.887640351069706 21.175900791407003 58.49719849072027 22.288921811407835 58.08546417983546 23.395368152971045 57.653022524266426 24.49367987721604 57.19972998507168 25.58417551429013 56.72575426049608 26.666393917772435 56.23142282032342 27.73957983423304 55.71653476396888 28.80408344905095 55.181452389711765 29.85910039103614 54.626560987145695 30.903872251905522 54.05208777600967 31.93798742614072 53.45759480052105 32.962135354726385 52.844101616409176 33.974580725385444 52.21127537226664 34.97583686078796 51.55940531368152 35.96540309379988 50.88876278369861 36.94283693927998 50.1996713796704 37.90765202195387 49.49223979991646 38.85966835406042 48.766812023591605 39.798404911505266 48.02386177447983 40.72325968096651 47.2628937366938 41.63478199335249 46.48484703540788 42.53183556121041 45.6892036965087 43.414944163157074 44.87736635229945 44.28257217327716 44.04934243032881 45.13473125247796 43.204626013692035 45.971882455055606 42.34366835249894 46.79351893642515 41.468008785445804 47.59822178206486 40.57656454577561 48.38694567174377" fill="none"/><circle stroke="black" cx="42.075862244436074" cy="50.1748357285526" r="2.5" fill="hsl(180,13.0%,13.0%)"/><polyline stroke="black" stroke-width="1" points="42.075862244436074 50.1748357285526 41.185971062905544 51.03796414093558 40.27896774820454 51.884958455165034 39.35416747492795 52.71622433827061 38.41325871790006 53.53036053339208 37.45439511362266 54.328573122574134 36.479770818448706 55.10916445799146 35.488872838877555 55.87237416537782 34.48238593453633 56.61763367715456 33.459690555117625 57.34518351393243 32.422491830474044 58.053880643837815 31.370440836044786 58.74382550308506 30.303468119845927 59.414917825711164 29.222702971045273 60.06644493723341 28.12769845352559 60.69850723623716 27.019628612427972 61.31042638881332 25.89846450176273 61.902110244946144 24.76451744680196 62.47330536006347 23.618262611382374 63.02370076031635 22.459445563849044 63.55326080741505 21.289451969425727 64.06136000570305 20.108279761603953 64.54789803920086 18.916195560195195 65.01267211669537 17.71408396698925 65.45531026641535 16.502164050445096 65.87565487959466 15.280151615568505 66.27365759283843 14.048992445902536 66.64896416306915 12.810037011728758 67.001193584921 11.56191632950863 67.3305127471152" fill="none"/><polyline stroke="black" stroke-width="1" points="59.25725291251867 20.055085595972827 58.96335362177556 21.203127161821943 58.647572171397954 22.34621801186862 58.30936436004607 23.485549530007575 57.94923735531144 24.61952568596694 57.56696810828845 25.7484330134491 57.1626465705163 26.87177404167778 56.736524861856545 27.988752231138463 56.288323087456476 29.099684003800103 55.818330123366465 30.2037197397932 55.32686008467165 31.300052305289434 54.814068855558084 32.38822243349923 54.27943817524156 33.4688867837611 53.723929421638076 34.54024046561851 53.14713262111242 35.60275873211238 52.54927023608591 36.65588605662878 51.93054802666051 37.69912379420069 51.29122661654605 38.73192626409524 50.63134852080558 39.75405881389659 49.95119789082793 40.76497759402822 49.25119377395248 41.76401229607263 48.530762673686915 42.751671853756214 47.79080340495599 43.726735084434104 47.03071974794066 44.68968392123582 46.25189237132782 45.63888054404572 45.45426942594408 46.57427606467898 44.6372688102406 47.496286027537415 43.80129605706202 48.404327169380366 42.947885978128 49.296869122282196 42.075862244436074 50.1748357285526" fill="none"/><circle stroke="black" cx="43.57515994309653" cy="51.96272578536143" r="2.5" fill="hsl(180,13.0%,13.0%)"/><polyline stroke="black" stroke-width="1" points="43.57515994309653 51.96272578536143 42.5989611991899 52.78895211198596 41.60760984323127 53.59643577834738 40.6004553478631 54.38566865167329 39.579295781547266 55.15527824398576 38.54228250115071 55.906582039902695 37.49172879485887 56.63790647844189 36.42715744872391 57.34957489341901 35.349321476081265 58.04108039009607 34.25763462113274 58.71274693548031 33.15389065232511 59.36348201959873 32.03777651465268 59.99346846669563 30.909265738739517 60.60268338453187 29.769553114701974 61.190480043616944 28.618223695992285 61.75704211880555 27.456511757387876 62.3017609583513 26.28442445899664 62.824625779456 25.10231379966006 63.32546227153784 23.91069585882181 63.80403866163634 22.70934640685515 64.26040263807198 21.499698583195705 64.69400588282761 20.281778705669854 65.1048324107257 19.055883603010287 65.49276299423262 17.822930392211543 65.85750868365173 16.583162854451672 66.19899727530021 15.33631843678113 66.51726647649186 14.08336883656705 66.81204709149104 12.825686156897692 67.08304435583933 11.56191632950863 67.3305127471152" fill="none"/><polyline stroke="black" stroke-width="1" points="59.25725291251867 20.055085595972827 59.039066892481415 21.230353532236887 58.79794585207564 22.4035142123294 58.53326454025667 23.575730907044104 58.245452186356445 24.745371494717837 57.93420623150522 25.912690512608073 57.59953888053652 27.077154165583124 57.24162690338966 28.23792462804388 56.86011141094408 29.395284558549257 56.45520785702118 30.54833908855027 56.0271591821976 31.69623235867334 55.57604993510649 32.83845744085773 55.10128154996206 33.9756382127958 54.603757226866975 35.10590020585158 54.08298986995818 36.22968060343678 53.53913515849029 37.34636901945767 52.97233326962241 38.455410649121404 52.3827818534217 39.556200506236614 51.77045724169471 40.64844927373276 51.135583758064236 41.731550276551154 50.47852577342513 42.804764911178744 49.79863161068002 43.868561714159924 49.0967597745041 44.92163460765781 48.372235799372625 45.96442367931455 47.626418390356186 46.995188914814285 46.859196421559325 48.01382087687999 46.06991160678916 49.020689600019224 45.25892376162509 50.015135402335574 44.42776317081019 50.99551646249952 43.57515994309653 51.96272578536143" fill="none"/><circle stroke="black" cx="45.07445764175699" cy="53.75061584217027" r="2.5" fill="hsl(180,13.0%,13.0%)"/><polyline stroke="black" stroke-width="1" points="45.07445764175699 53.75061584217027 44.01195133547426 54.539940083036335 42.936251938258 55.30791310152973 41.846743220798245 56.055112965075985 40.745332845194476 56.78019595457944 39.63016988867878 57.48459095723128 38.50368677126906 58.16664849889236 37.36544205857029 58.826775621460236 36.21625701762619 59.46452710303758 35.05557868714784 60.08031035702818 33.88528947417618 60.67308339535963 32.70511219326057 61.243111430306186 31.515063357633107 61.79044894335257 30.316403258358672 62.31451515000048 29.108748938458994 62.81557700137397 27.893394902347776 63.29309552788928 26.670384416230547 63.74714131396585 25.440110152518166 64.17761918301221 24.20312910626124 64.58437656295632 22.959247249861253 64.96754446872892 21.709945196965684 65.32665175995217 20.455277649735763 65.66176678225058 19.195571645825382 65.9728538717699 17.931776817433835 66.2597071008881 16.664161658458248 66.52233967100578 15.392485257993757 66.76087536014528 14.117745227231561 66.97513001991292 12.84133530206663 67.16489512675767 11.56191632950863 67.3305127471152" fill="none"/><polyline stroke="black" stroke-width="1" points="59.25725291251867 20.055085595972827 59.11478016318726 21.257579902651827 58.94831953275334 22.460810412790188 58.757164720467266 23.665912284080633 58.54166701740145 24.871217303468736 58.30144435472199 26.076948011767044 58.03643119055674 27.282534289488467 57.74672894492278 28.4870970249493 57.43189973443167 29.690885113298407 57.092085590675886 30.892958437307335 56.72745827972356 32.09241241205725 56.33803101465491 33.28869244821624 55.92312492468259 34.48238964183052 55.483585032095874 35.67155994608465 55.01884711880397 36.8566024747612 54.52900008089468 38.03685198228657 54.014118512584304 39.21169750404211 53.474337090297354 40.38047474837798 52.909565962583834 41.54283973356893 52.31996962530055 42.698122959074105 51.70585777289779 43.845517526284866 51.066500547673144 44.985451574563655 50.402716144052214 46.11653413088151 49.713751850804584 47.23916343739329 49.000944409384566 48.35149728558285 48.26412341717459 49.45336568908102 47.50255440333773 50.54509317250104 46.71655146618817 51.62594363529079 45.90764036349238 52.694163802716865 45.07445764175699 53.75061584217027" fill="none"/><circle stroke="black" cx="46.57375534041745" cy="55.5385058989791" r="2.5" fill="hsl(180,13.0%,13.0%)"/><polyline stroke="black" stroke-width="1" points="46.57375534041745 55.5385058989791 45.42494147175861 56.29092805408671 44.264894033284726 57.01939042471207 43.09303109373339 57.72455727847865 41.91136990884168 58.40511366517312 40.71805727620683 59.06259987455985 39.51564474767924 59.695390519342816 38.303726668416644 60.303976349501426 37.08319255917111 60.88797381597908 35.85352275316295 61.447873778576046 34.616688296027256 61.982684771120546 33.37244787186846 62.49275439391675 32.120860976526686 62.97821450217325 30.863253402015374 63.43855025638402 29.599274180925693 63.874111883942355 28.330278047307683 64.28443009742726 27.056344373464455 64.6696568484757 25.77790650537627 65.02977609448659 24.49556235370067 65.36471446427629 23.20914809286736 65.67468629938585 21.92019181073566 65.95929763707673 20.628776593801664 66.21870115377544 19.335259688640466 66.45294474930714 18.040623242656125 66.66190551812446 16.745160462464824 66.84568206671136 15.448652079206383 67.00448424379871 14.152121617896075 67.13821294833481 12.856984447235567 67.246745897676 11.56191632950863 67.3305127471152" fill="none"/><polyline stroke="black" stroke-width="1" points="59.25725291251867 20.055085595972827 59.19049343389312 21.284806273066767 59.09869321343103 22.51810661325097 58.98106490067787 23.756093661117163 58.83788184844646 24.99706311221963 58.66868247793875 26.241205510926015 58.47332350057696 27.48791441339381 58.25183098645591 28.736269421854725 58.00368805791927 29.986485668047564 57.728963324330586 31.2375777860644 57.427757377249506 32.48859246544116 57.100012094203315 33.73892745557474 56.74496829940309 34.98914107086523 56.36341283732477 36.23721968631772 55.95470436764974 37.483524346085616 55.51886500329908 38.727334945115466 55.055903755546204 39.96798435896282 54.565892327173 41.20474899051935 54.048674683472946 42.43723019340509 53.504355492536874 43.664695641597056 52.93318977237044 44.88627014139099 52.33436948466624 46.102341434967364 51.70867251360032 47.31143365410521 51.055267902236544 48.51390319547202 50.375470428412925 49.707805656351404 49.669050412789844 50.89291050128203 48.93519719988629 52.06949674498285 48.17417917075124 53.23675186824599 47.38751755617457 54.39281114293419 46.57375534041745 55.5385058989791" fill="none"/><circle stroke="black" cx="-23.63094390434626" cy="59.760452300745186" r="2.5" fill="hsl(180,77.0%,77.0%)"/><polyline stroke="black" stroke-width="1" points="-23.63094390434626 59.760452300745186 -24.889077957815854 59.62912059899732 -26.15006531966525 59.47171741909967 -27.4141838506486 59.287724570966965 -28.680099692867053 59.07734017884696 -29.948414629068232 58.83985885609695 -31.217845375208512 58.57547912846785 -32.48748371789659 58.284268294964505 -33.75755130974702 57.965679247032014 -35.02704704511473 57.619838044716175 -36.29522922430184 57.24675907468813 -37.561750816443755 56.84622327475578 -38.8261603244965 56.41806841302255 -40.087175983571804 55.96272190183518 -41.34565861640115 55.479104125571574 -42.599235697383115 54.96848157807163 -43.84873256940567 54.4297682987604 -45.09274273297245 53.86358289065034 -46.33113221400107 53.26955029628796 -47.562542540893865 52.64835180749406 -48.78727370441315 51.99922820091348 -50.004533992857134 51.322369442156464 -51.21308188436159 50.61845802576048 -52.41313631588799 49.886751974167886 -53.60347295536862 49.12796767751608 -54.784276630616475 48.341338449199874 -55.95340729280469 47.52871171539904 -57.11199664882902 46.688222581119376 -58.25835820727796 45.821281736683105" fill="none"/><polyline stroke="black" stroke-width="1" points="11.56191632950863 67.3305127471152 10.269632916550202 67.39832734103493 8.979271592689443 67.44134983694211 7.690018981256243 67.45983069005011 6.4048064086428775 67.4535753757534 5.12161423148933 67.42296149054037 3.841600462282864 67.36800525256652 2.565668176756817 67.28879397717789 1.2948133742055858 67.18545522388816 0.028090638740639412 67.05816653021479 -1.2335319596891632 66.90704375093436 -2.4890906185061 66.7322501833185 -3.738551205324272 66.533944483373 -4.981063987265899 66.31232424765032 -6.217465352039331 66.06746814469594 -7.446030070751061 65.79965653760877 -8.666703741759495 65.50905599461863 -9.878433208386497 65.19596459994108 -11.08150182381459 64.86050953205691 -12.276698746900104 64.50267629262491 -13.461314977372762 64.12309916606816 -14.636478573186501 63.72172058294075 -15.800276581938402 63.299129815854144 -16.954480959500764 62.85505240061878 -18.09736887026981 62.39006173413047 -19.228133706811782 61.90456387567008 -20.347921394579405 61.39836240175147 -21.454867702427425 60.87220370353847 -22.54953253947488 60.32606319167513 -23.63094390434626 59.760452300745186" fill="none"/><circle stroke="black" cx="-28.77905735471191" cy="72.77955088329553" r="2.5" fill="hsl(180,13.0%,13.0%)"/><polyline stroke="black" stroke-width="1" points="-28.77905735471191 72.77955088329553 -30.089148412516987 72.0874217378422 -31.382734969728332 71.37210263695327 -32.66039549095398 70.63352835144563 -33.92078730710172 69.87248692773404 -35.164881136713824 69.08868694396203 -36.39142426978167 68.2829031648241 -37.599635905735305 67.45574036919423 -38.79005795262289 66.60708404540885 -39.961824030901525 65.73759488392668 -41.114388350022395 64.84779224926277 -42.24766674716617 63.93792207618565 -43.36146312058878 63.00829060561649 -44.45466853687427 62.05985309583515 -45.5285669471784 61.09188221634929 -46.5808734184045 60.10623994710181 -47.612841524501654 59.10218563608871 -48.6232861729962 58.08084065110384 -49.6124203493855 57.04223477455876 -50.57915177027784 55.987523674468775 -51.52417249994283 54.91631321562049 -52.44701349847433 53.82921883225552 -53.34675285597664 52.727355411810194 -54.22400767659944 51.61033687632822 -55.077898364326515 50.47928914682653 -55.90901028439369 49.3337971173876 -56.71555954088485 48.176109545752496 -57.4991073938019 47.00467995759611 -58.25835820727796 45.821281736683105" fill="none"/><polyline stroke="black" stroke-width="1" points="11.56191632950863 67.3305127471152 10.342352587237233 67.8755775221196 9.106697955520797 68.39842144630909 7.854051473409772 68.8987873656208 6.587339701509065 69.3759634142613 5.304445165772153 69.82982043857278 4.006505845144756 70.25985900151538 2.694425029798674 70.66565051535855 1.369230227100803 71.04680716672068 0.029910685093250684 71.40299373521336 -1.3225206481056717 71.73380970738509 -2.6870270617790326 72.03890481239472 -4.063553793899691 72.3179241582893 -5.451152345000582 72.57055575859673 -6.850706506526085 72.7963580432527 -8.260283120481464 72.99511109498698 -9.679762985722455 73.16647186068381 -11.107901698649595 73.3102457290462 -12.544935334592374 73.4260491750094 -13.991684363461882 73.51333659733625 -15.444979131368738 73.57230182365905 -16.905998064232275 73.60235451704094 -18.3724173491258 73.60365021348834 -19.846166294062552 73.57534715125996 -21.325110131664125 73.51758960869431 -22.808146036263466 73.4303367511581 -24.296475967236894 73.31283660842405 -25.787718590624387 73.16545973948885 -27.28236512079188 72.98766302201899 -28.77905735471191 72.77955088329553" fill="none"/><circle stroke="black" cx="-69.58431995517206" cy="8.379139894777031" r="2.5" fill="hsl(180,39.0%,39.0%)"/><polyline stroke="black" stroke-width="1" points="-69.58431995517206 8.379139894777031 -70.08078670925856 7.101524586846326 -70.5536437563072 5.808716084466015 -71.00259278213979 4.49976943860713 -71.42711728216658 3.176486241313628 -71.82685798490462 1.8388653409392353 -72.20142958642641 0.48691826387758175 -72.55043200571272 -0.8784496837926169 -72.87350732771608 -2.256299295840815 -73.17029366536458 -3.646634711827454 -73.4404053401153 -5.04938715769916 -73.68350047752897 -6.463713816981244 -73.89930007464503 -7.888500712934994 -74.08742108110228 -9.323891516523616 -74.24747808447317 -10.769753866531758 -74.37935896245175 -12.224156810339911 -74.48255362785812 -13.687967999333887 -74.55702123325838 -15.159248844814824 -74.60217136449009 -16.639050772394373 -74.61811713311488 -18.12504027440489 -74.60441840011386 -19.617556308248073 -74.56075452681623 -21.11628944569465 -74.48673406758093 -22.62111940407544 -74.38271463405842 -24.12952388156758 -74.2479668282134 -25.64261900126173 -74.0826319991067 -27.15877788278055 -73.88636236326481 -28.67788161125256 -73.65913467932901 -30.19893932922268 -73.40059453074905 -31.72182476675282" fill="none"/><polyline stroke="black" stroke-width="1" points="-58.25835820727796 45.821281736683105 -59.00106607360994 44.63081334806412 -59.71907132052889 43.42943260800012 -60.41344659190891 42.21593332152702 -61.0828902054262 40.992379778801485 -61.72738846119043 39.759124376303006 -62.34765366100265 38.515334390121595 -62.943214706813926 37.26196085243122 -63.5133461462219 36.00050875560179 -64.05819300882177 34.731082680029715 -64.57806510751962 33.45341223488013 -65.0722989657554 32.169068049593264 -65.5414114809269 30.877351292019412 -65.98476783809329 29.579907472904736 -66.40255100138572 28.276730105610962 -66.79484280513755 26.9679738388606 -67.16148071701824 25.654379758399806 -67.50229036743183 24.336807592008046 -67.81741318516121 23.015304786083288 -68.10669040021664 21.69077099438154 -68.36992065047048 20.364392284163692 -68.60783271848085 19.034236862977856 -68.81966766456463 17.703424737172398 -69.0059318756286 16.370673585396492 -69.16638220827899 15.037536494858518 -69.30107677559316 13.704513653774924 -69.41013012908881 12.371840546504913 -69.49367847679814 11.03954628983459 -69.55168849038682 9.708684118344658 -69.58431995517206 8.379139894777031" fill="none"/><circle stroke="black" cx="-76.5341143490854" cy="9.216013769581762" r="2.5" fill="hsl(180,39.0%,39.0%)"/><polyline stroke="black" stroke-width="1" points="-76.5341143490854 9.216013769581762 -76.79639529636772 7.7820400567260535 -77.03172561323076 6.3420597400930925 -77.24007935352212 4.895068403727299 -77.4211928687008 3.4430530489142153 -77.57497455031243 1.98602494981463 -77.70130452066925 0.5240087975396577 -77.8000472054728 -0.9420126796945439 -77.87111245757578 -2.411034443755182 -77.91440562961256 -3.8830700532618105 -77.92980662309247 -5.358055459283828 -77.91724180954475 -6.835108934855979 -77.87670332412519 -8.313075077475142 -77.80807264335049 -9.792134992014695 -77.71122890314783 -11.272178255003007 -77.58633647486816 -12.751219648012423 -77.43314232977608 -14.230209930683877 -77.25188157757472 -15.707179246080528 -77.04221722756661 -17.18327148688723 -76.8045394622424 -18.656131037544867 -76.5386643362927 -20.12617469011767 -76.24453111925399 -21.593150417843393 -75.92200631818876 -23.057001918791396 -75.57171782336991 -24.515232859693725 -75.1931832706059 -25.969063295178593 -74.78680414688546 -27.416928200023527 -74.35248330719908 -28.858799453451248 -73.89044909502033 -30.293774138725226 -73.40059453074905 -31.72182476675282" fill="none"/><polyline stroke="black" stroke-width="1" points="-58.25835820727796 45.821281736683105 -59.19357274131229 44.776433244893816 -60.10950378252077 43.713366365192066 -61.007022473514965 42.63071448785273 -61.884607022688265 41.5304073694694 -62.742026007745444 40.412660860123495 -63.57978652281485 39.276485875368856 -64.39719276792378 38.122706110609215 -65.19327991906212 36.95272548118149 -65.96796814663924 35.76652490992011 -66.72134807928684 34.56369834628887 -67.45250389690742 33.34574346477264 -68.16173656546626 32.11181811698484 -68.84815060150281 30.86351579610122 -69.51169609011029 29.600722259635525 -70.15221755784567 28.32349158088783 -70.76930130088473 27.03249707163572 -71.36251696752707 25.72854691695095 -71.93176482468229 24.411598931396078 -72.47662571284225 23.082517760659908 -72.99663081929009 21.74248574933906 -73.49230287708703 20.38936146413747 -73.96257400888683 19.026404903842323 -74.40772795917749 17.652172697937043 -74.82724275566544 16.268270188826964 -75.2209178982289 14.875181517364483 -75.58861310488733 13.473109281395812 -75.9302113137293 12.062033568631689 -76.2454094771099 10.643057158697388 -76.5341143490854 9.216013769581762" fill="none"/><circle stroke="black" cx="-83.48390874299874" cy="10.052887644386495" r="2.5" fill="hsl(180,13.0%,13.0%)"/><polyline stroke="black" stroke-width="1" points="-83.48390874299874 10.052887644386495 -83.5120038834769 8.462555526605781 -83.50980747015433 6.87540339572017 -83.47756592490445 5.290367368847467 -83.41526845523502 3.7096198565148026 -83.32309111572023 2.133184558690025 -83.20117945491208 0.5610993312017334 -83.04966240523287 -1.0055756755964709 -82.86871758743547 -2.5657695916695493 -82.65851759386054 -4.1195053946961675 -82.41920790606962 -5.6667237608684955 -82.15098314156054 -7.206504052730715 -81.85410657360535 -8.737649442015291 -81.52872420559869 -10.260378467505776 -81.17497972182247 -11.774602643474255 -80.79331398728458 -13.278282485684933 -80.38373103169403 -14.772451862033867 -79.94674192189107 -16.25510964734623 -79.48226309064314 -17.727492201380088 -78.99096179136991 -19.187221800684846 -78.47291027247154 -20.634793071987268 -77.92830771169177 -22.070011389992136 -77.3572785687966 -23.492884433507356 -76.76072101268139 -24.90094183781987 -76.13839971299839 -26.295507589095454 -75.49097629466422 -27.6750785172665 -74.81860425113334 -29.039717295649933 -74.12176351071165 -30.388608948227773 -73.40059453074905 -31.72182476675282" fill="none"/><polyline stroke="black" stroke-width="1" points="-58.25835820727796 45.821281736683105 -59.38607940901461 44.9220531417235 -60.49993624451264 43.99730012238402 -61.600598355121 43.045495654178424 -62.68632383995031 42.06843496013731 -63.756663554300445 41.066197343943976 -64.81191938462703 40.03763736061611 -65.85117082903365 38.98345136878721 -66.87321369190232 37.904942206761184 -67.8777432844567 36.80196713981049 -68.86463105105408 35.6739844576976 -69.83270882805944 34.52241887995201 -70.7820616500056 33.34628494195026 -71.71153336491234 32.1471241192977 -72.62084117883487 30.92471441366009 -73.50959231055378 29.679009322915057 -74.37712188475125 28.41061438487164 -75.22274356762232 27.12028624189385 -76.04611646420335 25.80789307670886 -76.84656102546786 24.47426452693827 -77.6233409881097 23.12057921451443 -78.37677303569319 21.74448606529708 -79.10548035320903 20.34938507051225 -79.80952404272634 18.93367181047759 -80.4881033030519 17.49900388279541 -81.14075902086462 16.04584938095404 -81.76709608068582 14.57437801628671 -82.36674415066047 13.08452084742879 -82.93913046383298 11.577430199050116 -83.48390874299874 10.052887644386495" fill="none"/><circle stroke="black" cx="-47.942982243132626" cy="-67.69297492823512" r="2.5" fill="black"/><polyline stroke="black" stroke-width="1" points="-47.942982243132626 -67.69297492823512 -46.71741489927576 -68.6696098576186 -45.471342284536355 -69.62452409708519 -44.20561438170879 -70.55698062019788 -42.92115555085226 -71.46625900135624 -41.618525505152 -72.35191356680406 -40.297519740581045 -73.21394428287866 -38.95852144487261 -74.05199115750973 -37.6014655349218 -74.86592689747403 -36.228689042969265 -75.65443889167925 -34.83938136042988 -76.41783648841736 -33.43344041728798 -77.15601637292063 -32.013322689941816 -77.86778489668885 -30.57729767773856 -78.55376474079858 -29.126494738797724 -79.21334550743825 -27.66261852399396 -79.84578531667175 -26.18445728619609 -80.45140500589963 -24.693480401311483 -81.02957639644704 -23.190287126805117 -81.5800100697557 -21.67538514924272 -82.10245887603128 -20.148229895701828 -82.59694244914577 -18.61021767584186 -83.06297155243294 -17.06225294425547 -83.50023787319118 -15.50412548066149 -83.9086791041889 -13.937154209148193 -84.28793261293498 -12.36113571742156 -84.63792927072322 -10.77606691536835 -84.95852756086344 -9.184035492169274 -85.24932945034179 -7.5850223299133654 -85.51025173775783" fill="none"/><polyline stroke="black" stroke-width="1" points="-73.40059453074905 -31.72182476675282 -72.88369102368618 -33.14185950149566 -72.33872645276851 -34.55486933155584 -71.76692539607103 -35.95796262059055 -71.16782424252557 -37.35190775498559 -70.5415045809133 -38.736277079234185 -69.88831452094122 -40.11018050931425 -69.20835826250541 -41.47321468935512 -68.50152119701066 -42.82532583848385 -67.76842302151209 -44.165275686829816 -67.00944759110054 -45.49230386685886 -66.22418170651213 -46.8068352227324 -65.41317274192556 -48.10786248847021 -64.57683711540093 -49.394640307205705 -63.714719792417476 -50.66757239731327 -62.82806855538161 -51.924883118239556 -61.9167325240814 -53.16662900341289 -60.98071193803865 -54.39263502351264 -60.01988864933298 -55.60282325064082 -59.035589383468064 -56.79556702014179 -58.02778110739251 -57.97078034010968 -56.99585813352384 -59.12889024860073 -55.94177246927638 -60.267832205464366 -54.86444398821766 -61.38849678384198 -53.76476912446226 -62.489893940527544 -52.64332258609257 -63.57138955075683 -51.4999671166654 -64.63295873109581 -50.335094461617274 -65.67412324768556 -49.14988378347742 -66.69384230020846 -47.942982243132626 -67.69297492823512" fill="none"/><circle stroke="black" cx="39.298870846678135" cy="-79.68973810457724" r="2.5" fill="hsl(180,90.0%,90.0%)"/><polyline stroke="black" stroke-width="1" points="39.298870846678135 -79.68973810457724 40.84124215494867 -79.02746856783939 42.373049059493844 -78.33509069632667 43.89306626974776 -77.61311718027778 45.40125705854548 -76.86143518373744 46.8963872452591 -76.08062823309689 48.378392004447484 -75.27060990894128 49.8464909789107 -74.43173313909445 51.29947747250222 -73.5646847070538 52.738424067704294 -72.66858432538086 54.1614557469516 -71.74460370209736 55.568514975052764 -70.79265606309269 56.958426120342885 -69.81352229255764 58.33161231387284 -68.80672227234805 59.68642942803892 -67.77348761227896 61.02329737553891 -66.7133251038842 62.34159018888217 -65.62662128832682 63.64023188503388 -64.51423506962719 64.91962482188757 -63.375609961446195 66.1781869577497 -62.21217575350607 67.41635426898785 -61.02332067397124 68.63304380797666 -59.81003817631583 69.82731785033734 -58.57326662247854 70.99993468092607 -57.31194727370754 72.14996788777856 -56.026975063736224 73.2760027729343 -54.7200020707321 74.37880704993866 -53.3898614984905 75.45790923579283 -52.03693740760359 76.51195235276603 -50.66296845002333" fill="none"/><polyline stroke="black" stroke-width="1" points="-7.5850223299133654 -85.51025173775783 -5.979033034091872 -85.74147372070118 -4.367025369392355 -85.94249926638837 -2.7500373233368536 -86.11316872261263 -1.1280180848497747 -86.25338284970124 0.49900581648017783 -86.36300665903877 2.1290227455047885 -86.44192350595587 3.762045570050947 -86.4900476629814 5.398078625636828 -86.50726002025543 7.036121179247592 -86.4934896298298 8.675171398403144 -86.44870799743583 10.315216290507395 -86.37281107391317 11.95623055860562 -86.26566350849411 13.596222228039816 -86.12740773846404 15.235169452228167 -85.95795606203976 16.872264116086356 -85.75734243356457 18.507323198466214 -85.52549355517505 20.14030284866314 -85.26228208440256 21.76926468514157 -84.96803309763533 23.394439742425035 -84.64259101644001 25.015288942646837 -84.28597355710524 26.630464014966734 -83.89846186495171 28.240286310844635 -83.47984635067279 29.84439457878317 -83.0300977577331 31.44036672072879 -82.54996286353185 33.029367936959396 -82.03891388816723 34.61013341886038 -81.49731416460168 36.18295614940997 -80.92490192607029 37.74613391265097 -80.32228496084224 39.298870846678135 -79.68973810457724" fill="none"/></svg>